<svg xmlns="http://www.w3.org/2000/svg" width="1072" height="420" viewBox="0 0 1072 420" font-family="sans-serif">
<rect width="1072" height="420" fill="white"/>
<text x="536" y="20" text-anchor="middle" font-size="15" font-weight="bold">At a glance — baseline vs memory-ordered, T=1 vs T=8</text>
<rect x="371" y="32" width="12" height="12" fill="#ffffff" stroke="black" stroke-width="0.8"/>
<text x="387" y="42" font-size="11">baseline T=1</text>
<rect x="491" y="32" width="12" height="12" fill="#3f3f3f" stroke="black" stroke-width="0.8"/>
<text x="507" y="42" font-size="11">memory-ordered T=1</text>
<rect x="611" y="32" width="12" height="12" fill="#e8e8e8" stroke="black" stroke-width="0.8"/>
<text x="627" y="42" font-size="11">baseline T=8</text>
<rect x="731" y="32" width="12" height="12" fill="#7f7f7f" stroke="black" stroke-width="0.8"/>
<text x="747" y="42" font-size="11">memory-ordered T=8</text>
<line x1="58" y1="60" x2="58" y2="366" stroke="black" stroke-width="1.4"/>
<line x1="58" y1="366" x2="518" y2="366" stroke="black" stroke-width="1.4"/>
<text x="15" y="216" font-size="12" text-anchor="middle" transform="rotate(-90 15 216)">cycles / op</text>
<text x="288" y="408" font-size="12" text-anchor="middle">memory-ordered instruction</text>
<rect x="77.9" y="365.2" width="25.0" height="0.8" fill="#ffffff" stroke="black" stroke-width="0.7"/>
<text x="92.9" y="361.2" font-size="7.5" text-anchor="start" transform="rotate(-90 92.9 361.2)">1.2</text>
<rect x="106.3" y="354.4" width="25.0" height="11.6" fill="#3f3f3f" stroke="black" stroke-width="0.7"/>
<text x="121.3" y="350.4" font-size="7.5" text-anchor="start" transform="rotate(-90 121.3 350.4)">17.3</text>
<rect x="134.7" y="360.0" width="25.0" height="6.0" fill="#e8e8e8" stroke="black" stroke-width="0.7"/>
<text x="149.6" y="356.0" font-size="7.5" text-anchor="start" transform="rotate(-90 149.6 356.0)">8.9</text>
<rect x="163.0" y="120.1" width="25.0" height="245.9" fill="#7f7f7f" stroke="black" stroke-width="0.7"/>
<text x="178.0" y="116.1" font-size="7.5" text-anchor="start" transform="rotate(-90 178.0 116.1)">367</text>
<text x="134.7" y="382" font-size="11" text-anchor="middle">ldar</text>
<rect x="231.3" y="365.2" width="25.0" height="0.8" fill="#ffffff" stroke="black" stroke-width="0.7"/>
<text x="246.2" y="361.2" font-size="7.5" text-anchor="start" transform="rotate(-90 246.2 361.2)">1.2</text>
<rect x="259.6" y="364.0" width="25.0" height="2.0" fill="#3f3f3f" stroke="black" stroke-width="0.7"/>
<text x="274.6" y="360.0" font-size="7.5" text-anchor="start" transform="rotate(-90 274.6 360.0)">3.0</text>
<rect x="288.0" y="359.8" width="25.0" height="6.2" fill="#e8e8e8" stroke="black" stroke-width="0.7"/>
<text x="303.0" y="355.8" font-size="7.5" text-anchor="start" transform="rotate(-90 303.0 355.8)">9.2</text>
<rect x="316.4" y="342.2" width="25.0" height="23.8" fill="#7f7f7f" stroke="black" stroke-width="0.7"/>
<text x="331.3" y="338.2" font-size="7.5" text-anchor="start" transform="rotate(-90 331.3 338.2)">35.5</text>
<text x="288.0" y="382" font-size="11" text-anchor="middle">ldapr</text>
<rect x="384.6" y="366.0" width="25.0" height="0.0" fill="#ffffff" stroke="black" stroke-width="0.7"/>
<text x="399.6" y="362.0" font-size="7.5" text-anchor="start" transform="rotate(-90 399.6 362.0)">0.0</text>
<rect x="413.0" y="356.4" width="25.0" height="9.6" fill="#3f3f3f" stroke="black" stroke-width="0.7"/>
<text x="427.9" y="352.4" font-size="7.5" text-anchor="start" transform="rotate(-90 427.9 352.4)">14.3</text>
<rect x="441.3" y="366.2" width="25.0" height="0.0" fill="#e8e8e8" stroke="black" stroke-width="0.7"/>
<text x="456.3" y="362.2" font-size="7.5" text-anchor="start" transform="rotate(-90 456.3 362.2)">-0.3</text>
<rect x="469.7" y="143.9" width="25.0" height="222.1" fill="#7f7f7f" stroke="black" stroke-width="0.7"/>
<text x="484.7" y="139.9" font-size="7.5" text-anchor="start" transform="rotate(-90 484.7 139.9)">331</text>
<text x="441.3" y="382" font-size="11" text-anchor="middle">gap</text>
<line x1="594" y1="60" x2="594" y2="366" stroke="black" stroke-width="1.4"/>
<line x1="594" y1="366" x2="1054" y2="366" stroke="black" stroke-width="1.4"/>
<text x="551" y="216" font-size="12" text-anchor="middle" transform="rotate(-90 551 216)">wall-time / op (ns)</text>
<text x="824" y="408" font-size="12" text-anchor="middle">memory-ordered instruction</text>
<rect x="613.9" y="365.2" width="25.0" height="0.8" fill="#ffffff" stroke="black" stroke-width="0.7"/>
<text x="628.9" y="361.2" font-size="7.5" text-anchor="start" transform="rotate(-90 628.9 361.2)">0.4</text>
<rect x="642.3" y="354.4" width="25.0" height="11.6" fill="#3f3f3f" stroke="black" stroke-width="0.7"/>
<text x="657.3" y="350.4" font-size="7.5" text-anchor="start" transform="rotate(-90 657.3 350.4)">5.4</text>
<rect x="670.7" y="360.0" width="25.0" height="6.0" fill="#e8e8e8" stroke="black" stroke-width="0.7"/>
<text x="685.6" y="356.0" font-size="7.5" text-anchor="start" transform="rotate(-90 685.6 356.0)">2.8</text>
<rect x="699.0" y="120.1" width="25.0" height="245.9" fill="#7f7f7f" stroke="black" stroke-width="0.7"/>
<text x="714.0" y="116.1" font-size="7.5" text-anchor="start" transform="rotate(-90 714.0 116.1)">114</text>
<text x="670.7" y="382" font-size="11" text-anchor="middle">ldar</text>
<rect x="767.3" y="365.2" width="25.0" height="0.8" fill="#ffffff" stroke="black" stroke-width="0.7"/>
<text x="782.2" y="361.2" font-size="7.5" text-anchor="start" transform="rotate(-90 782.2 361.2)">0.4</text>
<rect x="795.6" y="364.0" width="25.0" height="2.0" fill="#3f3f3f" stroke="black" stroke-width="0.7"/>
<text x="810.6" y="360.0" font-size="7.5" text-anchor="start" transform="rotate(-90 810.6 360.0)">0.9</text>
<rect x="824.0" y="359.8" width="25.0" height="6.2" fill="#e8e8e8" stroke="black" stroke-width="0.7"/>
<text x="839.0" y="355.8" font-size="7.5" text-anchor="start" transform="rotate(-90 839.0 355.8)">2.9</text>
<rect x="852.4" y="342.2" width="25.0" height="23.8" fill="#7f7f7f" stroke="black" stroke-width="0.7"/>
<text x="867.3" y="338.2" font-size="7.5" text-anchor="start" transform="rotate(-90 867.3 338.2)">11.0</text>
<text x="824.0" y="382" font-size="11" text-anchor="middle">ldapr</text>
<rect x="920.6" y="366.0" width="25.0" height="0.0" fill="#ffffff" stroke="black" stroke-width="0.7"/>
<text x="935.6" y="362.0" font-size="7.5" text-anchor="start" transform="rotate(-90 935.6 362.0)">0.0</text>
<rect x="949.0" y="356.4" width="25.0" height="9.6" fill="#3f3f3f" stroke="black" stroke-width="0.7"/>
<text x="963.9" y="352.4" font-size="7.5" text-anchor="start" transform="rotate(-90 963.9 352.4)">4.4</text>
<rect x="977.3" y="366.2" width="25.0" height="0.0" fill="#e8e8e8" stroke="black" stroke-width="0.7"/>
<text x="992.3" y="362.2" font-size="7.5" text-anchor="start" transform="rotate(-90 992.3 362.2)">-0.1</text>
<rect x="1005.7" y="143.9" width="25.0" height="222.1" fill="#7f7f7f" stroke="black" stroke-width="0.7"/>
<text x="1020.7" y="139.9" font-size="7.5" text-anchor="start" transform="rotate(-90 1020.7 139.9)">103</text>
<text x="977.3" y="382" font-size="11" text-anchor="middle">gap</text>
</svg>