<svg xmlns="http://www.w3.org/2000/svg" width="1072" height="420" viewBox="0 0 1072 420" font-family="sans-serif">
<rect width="1072" height="420" fill="white"/>
<text x="536" y="20" text-anchor="middle" font-size="15" font-weight="bold">ldapr (RCpc) — single-line contention</text>
<rect x="371" y="32" width="12" height="12" fill="#ffffff" stroke="black" stroke-width="0.8"/>
<text x="387" y="42" font-size="11">Baseline</text>
<rect x="491" y="32" width="12" height="12" fill="#3f3f3f" stroke="black" stroke-width="0.8"/>
<text x="507" y="42" font-size="11">Treatment (ldapr)</text>
<line x1="58" y1="60" x2="58" y2="366" stroke="black" stroke-width="1.4"/>
<line x1="58" y1="366" x2="518" y2="366" stroke="black" stroke-width="1.4"/>
<text x="15" y="216" font-size="12" text-anchor="middle" transform="rotate(-90 15 216)">Cycles / op</text>
<text x="288" y="408" font-size="12" text-anchor="middle">Threads (T)</text>
<rect x="73.0" y="357.7" width="37.4" height="8.3" fill="#ffffff" stroke="black" stroke-width="0.7"/>
<text x="94.2" y="353.7" font-size="7.5" text-anchor="start" transform="rotate(-90 94.2 353.7)">1.2</text>
<rect x="115.5" y="345.2" width="37.4" height="20.8" fill="#3f3f3f" stroke="black" stroke-width="0.7"/>
<text x="136.7" y="341.2" font-size="7.5" text-anchor="start" transform="rotate(-90 136.7 341.2)">3.0</text>
<text x="115.5" y="382" font-size="11" text-anchor="middle">1</text>
<rect x="187.9" y="353.5" width="37.4" height="12.5" fill="#ffffff" stroke="black" stroke-width="0.7"/>
<text x="209.2" y="349.5" font-size="7.5" text-anchor="start" transform="rotate(-90 209.2 349.5)">1.8</text>
<rect x="230.5" y="303.7" width="37.4" height="62.3" fill="#3f3f3f" stroke="black" stroke-width="0.7"/>
<text x="251.7" y="299.7" font-size="7.5" text-anchor="start" transform="rotate(-90 251.7 299.7)">9.0</text>
<text x="230.5" y="382" font-size="11" text-anchor="middle">2</text>
<rect x="302.9" y="333.0" width="37.4" height="33.0" fill="#ffffff" stroke="black" stroke-width="0.7"/>
<text x="324.2" y="329.0" font-size="7.5" text-anchor="start" transform="rotate(-90 324.2 329.0)">4.8</text>
<rect x="345.5" y="249.5" width="37.4" height="116.5" fill="#3f3f3f" stroke="black" stroke-width="0.7"/>
<text x="366.7" y="245.5" font-size="7.5" text-anchor="start" transform="rotate(-90 366.7 245.5)">16.8</text>
<text x="345.5" y="382" font-size="11" text-anchor="middle">4</text>
<rect x="417.9" y="302.3" width="37.4" height="63.7" fill="#ffffff" stroke="black" stroke-width="0.7"/>
<text x="439.2" y="298.3" font-size="7.5" text-anchor="start" transform="rotate(-90 439.2 298.3)">9.2</text>
<rect x="460.5" y="120.1" width="37.4" height="245.9" fill="#3f3f3f" stroke="black" stroke-width="0.7"/>
<text x="481.7" y="116.1" font-size="7.5" text-anchor="start" transform="rotate(-90 481.7 116.1)">35.5</text>
<text x="460.5" y="382" font-size="11" text-anchor="middle">8</text>
<line x1="594" y1="60" x2="594" y2="366" stroke="black" stroke-width="1.4"/>
<line x1="594" y1="366" x2="1054" y2="366" stroke="black" stroke-width="1.4"/>
<text x="551" y="216" font-size="12" text-anchor="middle" transform="rotate(-90 551 216)">Wall-time (ns / op)</text>
<text x="824" y="408" font-size="12" text-anchor="middle">Threads (T)</text>
<rect x="609.0" y="357.6" width="37.4" height="8.4" fill="#ffffff" stroke="black" stroke-width="0.7"/>
<text x="630.2" y="353.6" font-size="7.5" text-anchor="start" transform="rotate(-90 630.2 353.6)">0.4</text>
<rect x="651.5" y="345.0" width="37.4" height="21.0" fill="#3f3f3f" stroke="black" stroke-width="0.7"/>
<text x="672.7" y="341.0" font-size="7.5" text-anchor="start" transform="rotate(-90 672.7 341.0)">0.9</text>
<text x="651.5" y="382" font-size="11" text-anchor="middle">1</text>
<rect x="724.0" y="353.3" width="37.4" height="12.7" fill="#ffffff" stroke="black" stroke-width="0.7"/>
<text x="745.2" y="349.3" font-size="7.5" text-anchor="start" transform="rotate(-90 745.2 349.3)">0.6</text>
<rect x="766.5" y="303.6" width="37.4" height="62.4" fill="#3f3f3f" stroke="black" stroke-width="0.7"/>
<text x="787.7" y="299.6" font-size="7.5" text-anchor="start" transform="rotate(-90 787.7 299.6)">2.8</text>
<text x="766.5" y="382" font-size="11" text-anchor="middle">2</text>
<rect x="839.0" y="332.8" width="37.4" height="33.2" fill="#ffffff" stroke="black" stroke-width="0.7"/>
<text x="860.2" y="328.8" font-size="7.5" text-anchor="start" transform="rotate(-90 860.2 328.8)">1.5</text>
<rect x="881.5" y="249.5" width="37.4" height="116.5" fill="#3f3f3f" stroke="black" stroke-width="0.7"/>
<text x="902.7" y="245.5" font-size="7.5" text-anchor="start" transform="rotate(-90 902.7 245.5)">5.2</text>
<text x="881.5" y="382" font-size="11" text-anchor="middle">4</text>
<rect x="954.0" y="302.0" width="37.4" height="64.0" fill="#ffffff" stroke="black" stroke-width="0.7"/>
<text x="975.2" y="298.0" font-size="7.5" text-anchor="start" transform="rotate(-90 975.2 298.0)">2.9</text>
<rect x="996.5" y="120.1" width="37.4" height="245.9" fill="#3f3f3f" stroke="black" stroke-width="0.7"/>
<text x="1017.7" y="116.1" font-size="7.5" text-anchor="start" transform="rotate(-90 1017.7 116.1)">11.0</text>
<text x="996.5" y="382" font-size="11" text-anchor="middle">8</text>
</svg>