<svg xmlns="http://www.w3.org/2000/svg" width="1072" height="420" viewBox="0 0 1072 420" font-family="sans-serif">
<rect width="1072" height="420" fill="white"/>
<text x="536" y="20" text-anchor="middle" font-size="15" font-weight="bold">ldar (RCsc) — single-line contention</text>
<rect x="371" y="32" width="12" height="12" fill="#ffffff" stroke="black" stroke-width="0.8"/>
<text x="387" y="42" font-size="11">Baseline</text>
<rect x="491" y="32" width="12" height="12" fill="#3f3f3f" stroke="black" stroke-width="0.8"/>
<text x="507" y="42" font-size="11">Treatment (ldar)</text>
<line x1="58" y1="60" x2="58" y2="366" stroke="black" stroke-width="1.4"/>
<line x1="58" y1="366" x2="518" y2="366" stroke="black" stroke-width="1.4"/>
<text x="15" y="216" font-size="12" text-anchor="middle" transform="rotate(-90 15 216)">Cycles / op</text>
<text x="288" y="408" font-size="12" text-anchor="middle">Threads (T)</text>
<rect x="73.0" y="365.2" width="37.4" height="0.8" fill="#ffffff" stroke="black" stroke-width="0.7"/>
<text x="94.2" y="361.2" font-size="7.5" text-anchor="start" transform="rotate(-90 94.2 361.2)">1.2</text>
<rect x="115.5" y="354.4" width="37.4" height="11.6" fill="#3f3f3f" stroke="black" stroke-width="0.7"/>
<text x="136.7" y="350.4" font-size="7.5" text-anchor="start" transform="rotate(-90 136.7 350.4)">17.3</text>
<text x="115.5" y="382" font-size="11" text-anchor="middle">1</text>
<rect x="187.9" y="364.8" width="37.4" height="1.2" fill="#ffffff" stroke="black" stroke-width="0.7"/>
<text x="209.2" y="360.8" font-size="7.5" text-anchor="start" transform="rotate(-90 209.2 360.8)">1.8</text>
<rect x="230.5" y="297.9" width="37.4" height="68.1" fill="#3f3f3f" stroke="black" stroke-width="0.7"/>
<text x="251.7" y="293.9" font-size="7.5" text-anchor="start" transform="rotate(-90 251.7 293.9)">102</text>
<text x="230.5" y="382" font-size="11" text-anchor="middle">2</text>
<rect x="302.9" y="363.0" width="37.4" height="3.0" fill="#ffffff" stroke="black" stroke-width="0.7"/>
<text x="324.2" y="359.0" font-size="7.5" text-anchor="start" transform="rotate(-90 324.2 359.0)">4.5</text>
<rect x="345.5" y="229.5" width="37.4" height="136.5" fill="#3f3f3f" stroke="black" stroke-width="0.7"/>
<text x="366.7" y="225.5" font-size="7.5" text-anchor="start" transform="rotate(-90 366.7 225.5)">203</text>
<text x="345.5" y="382" font-size="11" text-anchor="middle">4</text>
<rect x="417.9" y="360.0" width="37.4" height="6.0" fill="#ffffff" stroke="black" stroke-width="0.7"/>
<text x="439.2" y="356.0" font-size="7.5" text-anchor="start" transform="rotate(-90 439.2 356.0)">8.9</text>
<rect x="460.5" y="120.1" width="37.4" height="245.9" fill="#3f3f3f" stroke="black" stroke-width="0.7"/>
<text x="481.7" y="116.1" font-size="7.5" text-anchor="start" transform="rotate(-90 481.7 116.1)">367</text>
<text x="460.5" y="382" font-size="11" text-anchor="middle">8</text>
<line x1="594" y1="60" x2="594" y2="366" stroke="black" stroke-width="1.4"/>
<line x1="594" y1="366" x2="1054" y2="366" stroke="black" stroke-width="1.4"/>
<text x="551" y="216" font-size="12" text-anchor="middle" transform="rotate(-90 551 216)">Wall-time (ns / op)</text>
<text x="824" y="408" font-size="12" text-anchor="middle">Threads (T)</text>
<rect x="609.0" y="365.2" width="37.4" height="0.8" fill="#ffffff" stroke="black" stroke-width="0.7"/>
<text x="630.2" y="361.2" font-size="7.5" text-anchor="start" transform="rotate(-90 630.2 361.2)">0.4</text>
<rect x="651.5" y="354.4" width="37.4" height="11.6" fill="#3f3f3f" stroke="black" stroke-width="0.7"/>
<text x="672.7" y="350.4" font-size="7.5" text-anchor="start" transform="rotate(-90 672.7 350.4)">5.4</text>
<text x="651.5" y="382" font-size="11" text-anchor="middle">1</text>
<rect x="724.0" y="364.7" width="37.4" height="1.3" fill="#ffffff" stroke="black" stroke-width="0.7"/>
<text x="745.2" y="360.7" font-size="7.5" text-anchor="start" transform="rotate(-90 745.2 360.7)">0.6</text>
<rect x="766.5" y="297.8" width="37.4" height="68.2" fill="#3f3f3f" stroke="black" stroke-width="0.7"/>
<text x="787.7" y="293.8" font-size="7.5" text-anchor="start" transform="rotate(-90 787.7 293.8)">31.5</text>
<text x="766.5" y="382" font-size="11" text-anchor="middle">2</text>
<rect x="839.0" y="363.0" width="37.4" height="3.0" fill="#ffffff" stroke="black" stroke-width="0.7"/>
<text x="860.2" y="359.0" font-size="7.5" text-anchor="start" transform="rotate(-90 860.2 359.0)">1.4</text>
<rect x="881.5" y="229.5" width="37.4" height="136.5" fill="#3f3f3f" stroke="black" stroke-width="0.7"/>
<text x="902.7" y="225.5" font-size="7.5" text-anchor="start" transform="rotate(-90 902.7 225.5)">63.2</text>
<text x="881.5" y="382" font-size="11" text-anchor="middle">4</text>
<rect x="954.0" y="360.0" width="37.4" height="6.0" fill="#ffffff" stroke="black" stroke-width="0.7"/>
<text x="975.2" y="356.0" font-size="7.5" text-anchor="start" transform="rotate(-90 975.2 356.0)">2.8</text>
<rect x="996.5" y="120.1" width="37.4" height="245.9" fill="#3f3f3f" stroke="black" stroke-width="0.7"/>
<text x="1017.7" y="116.1" font-size="7.5" text-anchor="start" transform="rotate(-90 1017.7 116.1)">114</text>
<text x="996.5" y="382" font-size="11" text-anchor="middle">8</text>
</svg>