<svg xmlns="http://www.w3.org/2000/svg" width="1072" height="420" viewBox="0 0 1072 420" font-family="sans-serif">
<rect width="1072" height="420" fill="white"/>
<text x="536" y="20" text-anchor="middle" font-size="15" font-weight="bold">Load-acquire completion stall — Δ over baseline (the RC4 gap)</text>
<rect x="371" y="32" width="12" height="12" fill="#3f3f3f" stroke="black" stroke-width="0.8"/>
<text x="387" y="42" font-size="11">ldar (RCsc)</text>
<rect x="491" y="32" width="12" height="12" fill="#bdbdbd" stroke="black" stroke-width="0.8"/>
<text x="507" y="42" font-size="11">ldapr (RCpc)</text>
<line x1="58" y1="60" x2="58" y2="366" stroke="black" stroke-width="1.4"/>
<line x1="58" y1="366" x2="518" y2="366" stroke="black" stroke-width="1.4"/>
<text x="15" y="216" font-size="12" text-anchor="middle" transform="rotate(-90 15 216)">Δ Cycles / op</text>
<text x="288" y="408" font-size="12" text-anchor="middle">Threads (T)</text>
<rect x="73.0" y="354.9" width="37.4" height="11.1" fill="#3f3f3f" stroke="black" stroke-width="0.7"/>
<text x="94.2" y="350.9" font-size="7.5" text-anchor="start" transform="rotate(-90 94.2 350.9)">16.1</text>
<rect x="115.5" y="364.8" width="37.4" height="1.2" fill="#bdbdbd" stroke="black" stroke-width="0.7"/>
<text x="136.7" y="360.8" font-size="7.5" text-anchor="start" transform="rotate(-90 136.7 360.8)">1.8</text>
<text x="115.5" y="382" font-size="11" text-anchor="middle">1</text>
<rect x="187.9" y="297.4" width="37.4" height="68.6" fill="#3f3f3f" stroke="black" stroke-width="0.7"/>
<text x="209.2" y="293.4" font-size="7.5" text-anchor="start" transform="rotate(-90 209.2 293.4)">99.7</text>
<rect x="230.5" y="361.1" width="37.4" height="4.9" fill="#bdbdbd" stroke="black" stroke-width="0.7"/>
<text x="251.7" y="357.1" font-size="7.5" text-anchor="start" transform="rotate(-90 251.7 357.1)">7.2</text>
<text x="230.5" y="382" font-size="11" text-anchor="middle">2</text>
<rect x="302.9" y="229.0" width="37.4" height="137.0" fill="#3f3f3f" stroke="black" stroke-width="0.7"/>
<text x="324.2" y="225.0" font-size="7.5" text-anchor="start" transform="rotate(-90 324.2 225.0)">199</text>
<rect x="345.5" y="357.7" width="37.4" height="8.3" fill="#bdbdbd" stroke="black" stroke-width="0.7"/>
<text x="366.7" y="353.7" font-size="7.5" text-anchor="start" transform="rotate(-90 366.7 353.7)">12.0</text>
<text x="345.5" y="382" font-size="11" text-anchor="middle">4</text>
<rect x="417.9" y="120.1" width="37.4" height="245.9" fill="#3f3f3f" stroke="black" stroke-width="0.7"/>
<text x="439.2" y="116.1" font-size="7.5" text-anchor="start" transform="rotate(-90 439.2 116.1)">358</text>
<rect x="460.5" y="347.9" width="37.4" height="18.1" fill="#bdbdbd" stroke="black" stroke-width="0.7"/>
<text x="481.7" y="343.9" font-size="7.5" text-anchor="start" transform="rotate(-90 481.7 343.9)">26.3</text>
<text x="460.5" y="382" font-size="11" text-anchor="middle">8</text>
<line x1="594" y1="60" x2="594" y2="366" stroke="black" stroke-width="1.4"/>
<line x1="594" y1="366" x2="1054" y2="366" stroke="black" stroke-width="1.4"/>
<text x="551" y="216" font-size="12" text-anchor="middle" transform="rotate(-90 551 216)">Δ Wall-time (ns / op)</text>
<text x="824" y="408" font-size="12" text-anchor="middle">Threads (T)</text>
<rect x="609.0" y="354.9" width="37.4" height="11.1" fill="#3f3f3f" stroke="black" stroke-width="0.7"/>
<text x="630.2" y="350.9" font-size="7.5" text-anchor="start" transform="rotate(-90 630.2 350.9)">5.0</text>
<rect x="651.5" y="364.8" width="37.4" height="1.2" fill="#bdbdbd" stroke="black" stroke-width="0.7"/>
<text x="672.7" y="360.8" font-size="7.5" text-anchor="start" transform="rotate(-90 672.7 360.8)">0.6</text>
<text x="651.5" y="382" font-size="11" text-anchor="middle">1</text>
<rect x="724.0" y="297.4" width="37.4" height="68.6" fill="#3f3f3f" stroke="black" stroke-width="0.7"/>
<text x="745.2" y="293.4" font-size="7.5" text-anchor="start" transform="rotate(-90 745.2 293.4)">31.0</text>
<rect x="766.5" y="361.1" width="37.4" height="4.9" fill="#bdbdbd" stroke="black" stroke-width="0.7"/>
<text x="787.7" y="357.1" font-size="7.5" text-anchor="start" transform="rotate(-90 787.7 357.1)">2.2</text>
<text x="766.5" y="382" font-size="11" text-anchor="middle">2</text>
<rect x="839.0" y="229.0" width="37.4" height="137.0" fill="#3f3f3f" stroke="black" stroke-width="0.7"/>
<text x="860.2" y="225.0" font-size="7.5" text-anchor="start" transform="rotate(-90 860.2 225.0)">61.8</text>
<rect x="881.5" y="357.7" width="37.4" height="8.3" fill="#bdbdbd" stroke="black" stroke-width="0.7"/>
<text x="902.7" y="353.7" font-size="7.5" text-anchor="start" transform="rotate(-90 902.7 353.7)">3.7</text>
<text x="881.5" y="382" font-size="11" text-anchor="middle">4</text>
<rect x="954.0" y="120.1" width="37.4" height="245.9" fill="#3f3f3f" stroke="black" stroke-width="0.7"/>
<text x="975.2" y="116.1" font-size="7.5" text-anchor="start" transform="rotate(-90 975.2 116.1)">111</text>
<rect x="996.5" y="347.9" width="37.4" height="18.1" fill="#bdbdbd" stroke="black" stroke-width="0.7"/>
<text x="1017.7" y="343.9" font-size="7.5" text-anchor="start" transform="rotate(-90 1017.7 343.9)">8.2</text>
<text x="996.5" y="382" font-size="11" text-anchor="middle">8</text>
</svg>