<svg xmlns="http://www.w3.org/2000/svg" width="1072" height="420" viewBox="0 0 1072 420" font-family="sans-serif">
<rect width="1072" height="420" fill="white"/>
<text x="536" y="20" text-anchor="middle" font-size="15" font-weight="bold">At a glance — baseline vs memory-ordered RMW, T=1 vs T=8</text>
<rect x="371" y="32" width="12" height="12" fill="#ffffff" stroke="black" stroke-width="0.8"/>
<text x="387" y="42" font-size="11">baseline T=1</text>
<rect x="491" y="32" width="12" height="12" fill="#3f3f3f" stroke="black" stroke-width="0.8"/>
<text x="507" y="42" font-size="11">memory-ordered T=1</text>
<rect x="611" y="32" width="12" height="12" fill="#e8e8e8" stroke="black" stroke-width="0.8"/>
<text x="627" y="42" font-size="11">baseline T=8</text>
<rect x="731" y="32" width="12" height="12" fill="#7f7f7f" stroke="black" stroke-width="0.8"/>
<text x="747" y="42" font-size="11">memory-ordered T=8</text>
<line x1="58" y1="60" x2="58" y2="366" stroke="black" stroke-width="1.4"/>
<line x1="58" y1="366" x2="518" y2="366" stroke="black" stroke-width="1.4"/>
<text x="15" y="216" font-size="12" text-anchor="middle" transform="rotate(-90 15 216)">cycles / op</text>
<text x="288" y="408" font-size="12" text-anchor="middle">atomic op</text>
<rect x="77.9" y="359.6" width="25.0" height="6.4" fill="#ffffff" stroke="black" stroke-width="0.7"/>
<text x="92.9" y="355.6" font-size="7.5" text-anchor="start" transform="rotate(-90 92.9 355.6)">13.4</text>
<rect x="106.3" y="359.6" width="25.0" height="6.4" fill="#3f3f3f" stroke="black" stroke-width="0.7"/>
<text x="121.3" y="355.6" font-size="7.5" text-anchor="start" transform="rotate(-90 121.3 355.6)">13.4</text>
<rect x="134.7" y="295.6" width="25.0" height="70.4" fill="#e8e8e8" stroke="black" stroke-width="0.7"/>
<text x="149.6" y="291.6" font-size="7.5" text-anchor="start" transform="rotate(-90 149.6 291.6)">147</text>
<rect x="163.0" y="295.6" width="25.0" height="70.4" fill="#7f7f7f" stroke="black" stroke-width="0.7"/>
<text x="178.0" y="291.6" font-size="7.5" text-anchor="start" transform="rotate(-90 178.0 291.6)">147</text>
<text x="134.7" y="382" font-size="11" text-anchor="middle">ldadd</text>
<rect x="231.3" y="359.6" width="25.0" height="6.4" fill="#ffffff" stroke="black" stroke-width="0.7"/>
<text x="246.2" y="355.6" font-size="7.5" text-anchor="start" transform="rotate(-90 246.2 355.6)">13.3</text>
<rect x="259.6" y="359.5" width="25.0" height="6.5" fill="#3f3f3f" stroke="black" stroke-width="0.7"/>
<text x="274.6" y="355.5" font-size="7.5" text-anchor="start" transform="rotate(-90 274.6 355.5)">13.5</text>
<rect x="288.0" y="294.0" width="25.0" height="72.0" fill="#e8e8e8" stroke="black" stroke-width="0.7"/>
<text x="303.0" y="290.0" font-size="7.5" text-anchor="start" transform="rotate(-90 303.0 290.0)">150</text>
<rect x="316.4" y="292.4" width="25.0" height="73.6" fill="#7f7f7f" stroke="black" stroke-width="0.7"/>
<text x="331.3" y="288.4" font-size="7.5" text-anchor="start" transform="rotate(-90 331.3 288.4)">154</text>
<text x="288.0" y="382" font-size="11" text-anchor="middle">swp</text>
<rect x="384.6" y="356.4" width="25.0" height="9.6" fill="#ffffff" stroke="black" stroke-width="0.7"/>
<text x="399.6" y="352.4" font-size="7.5" text-anchor="start" transform="rotate(-90 399.6 352.4)">20.0</text>
<rect x="413.0" y="356.4" width="25.0" height="9.6" fill="#3f3f3f" stroke="black" stroke-width="0.7"/>
<text x="427.9" y="352.4" font-size="7.5" text-anchor="start" transform="rotate(-90 427.9 352.4)">20.0</text>
<rect x="441.3" y="120.1" width="25.0" height="245.9" fill="#e8e8e8" stroke="black" stroke-width="0.7"/>
<text x="456.3" y="116.1" font-size="7.5" text-anchor="start" transform="rotate(-90 456.3 116.1)">513</text>
<rect x="469.7" y="120.1" width="25.0" height="245.9" fill="#7f7f7f" stroke="black" stroke-width="0.7"/>
<text x="484.7" y="116.1" font-size="7.5" text-anchor="start" transform="rotate(-90 484.7 116.1)">513</text>
<text x="441.3" y="382" font-size="11" text-anchor="middle">cas</text>
<line x1="594" y1="60" x2="594" y2="366" stroke="black" stroke-width="1.4"/>
<line x1="594" y1="366" x2="1054" y2="366" stroke="black" stroke-width="1.4"/>
<text x="551" y="216" font-size="12" text-anchor="middle" transform="rotate(-90 551 216)">wall-time / op (ns)</text>
<text x="824" y="408" font-size="12" text-anchor="middle">atomic op</text>
<rect x="613.9" y="359.6" width="25.0" height="6.4" fill="#ffffff" stroke="black" stroke-width="0.7"/>
<text x="628.9" y="355.6" font-size="7.5" text-anchor="start" transform="rotate(-90 628.9 355.6)">4.2</text>
<rect x="642.3" y="359.6" width="25.0" height="6.4" fill="#3f3f3f" stroke="black" stroke-width="0.7"/>
<text x="657.3" y="355.6" font-size="7.5" text-anchor="start" transform="rotate(-90 657.3 355.6)">4.2</text>
<rect x="670.7" y="295.5" width="25.0" height="70.5" fill="#e8e8e8" stroke="black" stroke-width="0.7"/>
<text x="685.6" y="291.5" font-size="7.5" text-anchor="start" transform="rotate(-90 685.6 291.5)">45.6</text>
<rect x="699.0" y="295.6" width="25.0" height="70.4" fill="#7f7f7f" stroke="black" stroke-width="0.7"/>
<text x="714.0" y="291.6" font-size="7.5" text-anchor="start" transform="rotate(-90 714.0 291.6)">45.6</text>
<text x="670.7" y="382" font-size="11" text-anchor="middle">ldadd</text>
<rect x="767.3" y="359.6" width="25.0" height="6.4" fill="#ffffff" stroke="black" stroke-width="0.7"/>
<text x="782.2" y="355.6" font-size="7.5" text-anchor="start" transform="rotate(-90 782.2 355.6)">4.1</text>
<rect x="795.6" y="359.5" width="25.0" height="6.5" fill="#3f3f3f" stroke="black" stroke-width="0.7"/>
<text x="810.6" y="355.5" font-size="7.5" text-anchor="start" transform="rotate(-90 810.6 355.5)">4.2</text>
<rect x="824.0" y="294.0" width="25.0" height="72.0" fill="#e8e8e8" stroke="black" stroke-width="0.7"/>
<text x="839.0" y="290.0" font-size="7.5" text-anchor="start" transform="rotate(-90 839.0 290.0)">46.6</text>
<rect x="852.4" y="292.3" width="25.0" height="73.7" fill="#7f7f7f" stroke="black" stroke-width="0.7"/>
<text x="867.3" y="288.3" font-size="7.5" text-anchor="start" transform="rotate(-90 867.3 288.3)">47.7</text>
<text x="824.0" y="382" font-size="11" text-anchor="middle">swp</text>
<rect x="920.6" y="356.4" width="25.0" height="9.6" fill="#ffffff" stroke="black" stroke-width="0.7"/>
<text x="935.6" y="352.4" font-size="7.5" text-anchor="start" transform="rotate(-90 935.6 352.4)">6.2</text>
<rect x="949.0" y="356.4" width="25.0" height="9.6" fill="#3f3f3f" stroke="black" stroke-width="0.7"/>
<text x="963.9" y="352.4" font-size="7.5" text-anchor="start" transform="rotate(-90 963.9 352.4)">6.2</text>
<rect x="977.3" y="120.1" width="25.0" height="245.9" fill="#e8e8e8" stroke="black" stroke-width="0.7"/>
<text x="992.3" y="116.1" font-size="7.5" text-anchor="start" transform="rotate(-90 992.3 116.1)">159</text>
<rect x="1005.7" y="120.1" width="25.0" height="245.9" fill="#7f7f7f" stroke="black" stroke-width="0.7"/>
<text x="1020.7" y="116.1" font-size="7.5" text-anchor="start" transform="rotate(-90 1020.7 116.1)">159</text>
<text x="977.3" y="382" font-size="11" text-anchor="middle">cas</text>
</svg>