<svg xmlns="http://www.w3.org/2000/svg" width="1072" height="420" viewBox="0 0 1072 420" font-family="sans-serif">
<rect width="1072" height="420" fill="white"/>
<text x="536" y="20" text-anchor="middle" font-size="15" font-weight="bold">Cost of the atomic RMW (relaxed) — by op, single-line contention</text>
<rect x="371" y="32" width="12" height="12" fill="#bdbdbd" stroke="black" stroke-width="0.8"/>
<text x="387" y="42" font-size="11">ldadd</text>
<rect x="491" y="32" width="12" height="12" fill="#7f7f7f" stroke="black" stroke-width="0.8"/>
<text x="507" y="42" font-size="11">swp</text>
<rect x="611" y="32" width="12" height="12" fill="#3f3f3f" stroke="black" stroke-width="0.8"/>
<text x="627" y="42" font-size="11">cas</text>
<line x1="58" y1="60" x2="58" y2="366" stroke="black" stroke-width="1.4"/>
<line x1="58" y1="366" x2="518" y2="366" stroke="black" stroke-width="1.4"/>
<text x="15" y="216" font-size="12" text-anchor="middle" transform="rotate(-90 15 216)">Cycles / op</text>
<text x="288" y="408" font-size="12" text-anchor="middle">Threads (T)</text>
<rect x="73.0" y="359.6" width="25.0" height="6.4" fill="#bdbdbd" stroke="black" stroke-width="0.7"/>
<text x="87.9" y="355.6" font-size="7.5" text-anchor="start" transform="rotate(-90 87.9 355.6)">13.4</text>
<rect x="101.3" y="359.6" width="25.0" height="6.4" fill="#7f7f7f" stroke="black" stroke-width="0.7"/>
<text x="116.3" y="355.6" font-size="7.5" text-anchor="start" transform="rotate(-90 116.3 355.6)">13.3</text>
<rect x="129.7" y="356.4" width="25.0" height="9.6" fill="#3f3f3f" stroke="black" stroke-width="0.7"/>
<text x="144.7" y="352.4" font-size="7.5" text-anchor="start" transform="rotate(-90 144.7 352.4)">20.0</text>
<text x="115.5" y="382" font-size="11" text-anchor="middle">1</text>
<rect x="187.9" y="348.8" width="25.0" height="17.2" fill="#bdbdbd" stroke="black" stroke-width="0.7"/>
<text x="202.9" y="344.8" font-size="7.5" text-anchor="start" transform="rotate(-90 202.9 344.8)">35.8</text>
<rect x="216.3" y="348.9" width="25.0" height="17.1" fill="#7f7f7f" stroke="black" stroke-width="0.7"/>
<text x="231.3" y="344.9" font-size="7.5" text-anchor="start" transform="rotate(-90 231.3 344.9)">35.7</text>
<rect x="244.7" y="307.2" width="25.0" height="58.8" fill="#3f3f3f" stroke="black" stroke-width="0.7"/>
<text x="259.7" y="303.2" font-size="7.5" text-anchor="start" transform="rotate(-90 259.7 303.2)">123</text>
<text x="230.5" y="382" font-size="11" text-anchor="middle">2</text>
<rect x="302.9" y="330.7" width="25.0" height="35.3" fill="#bdbdbd" stroke="black" stroke-width="0.7"/>
<text x="317.9" y="326.7" font-size="7.5" text-anchor="start" transform="rotate(-90 317.9 326.7)">73.7</text>
<rect x="331.3" y="332.2" width="25.0" height="33.8" fill="#7f7f7f" stroke="black" stroke-width="0.7"/>
<text x="346.3" y="328.2" font-size="7.5" text-anchor="start" transform="rotate(-90 346.3 328.2)">70.5</text>
<rect x="359.7" y="257.9" width="25.0" height="108.1" fill="#3f3f3f" stroke="black" stroke-width="0.7"/>
<text x="374.7" y="253.9" font-size="7.5" text-anchor="start" transform="rotate(-90 374.7 253.9)">225</text>
<text x="345.5" y="382" font-size="11" text-anchor="middle">4</text>
<rect x="417.9" y="293.9" width="25.0" height="72.1" fill="#bdbdbd" stroke="black" stroke-width="0.7"/>
<text x="432.9" y="289.9" font-size="7.5" text-anchor="start" transform="rotate(-90 432.9 289.9)">150</text>
<rect x="446.3" y="294.0" width="25.0" height="72.0" fill="#7f7f7f" stroke="black" stroke-width="0.7"/>
<text x="461.3" y="290.0" font-size="7.5" text-anchor="start" transform="rotate(-90 461.3 290.0)">150</text>
<rect x="474.7" y="120.1" width="25.0" height="245.9" fill="#3f3f3f" stroke="black" stroke-width="0.7"/>
<text x="489.7" y="116.1" font-size="7.5" text-anchor="start" transform="rotate(-90 489.7 116.1)">513</text>
<text x="460.5" y="382" font-size="11" text-anchor="middle">8</text>
<line x1="594" y1="60" x2="594" y2="366" stroke="black" stroke-width="1.4"/>
<line x1="594" y1="366" x2="1054" y2="366" stroke="black" stroke-width="1.4"/>
<text x="551" y="216" font-size="12" text-anchor="middle" transform="rotate(-90 551 216)">Wall-time (ns / op)</text>
<text x="824" y="408" font-size="12" text-anchor="middle">Threads (T)</text>
<rect x="609.0" y="359.6" width="25.0" height="6.4" fill="#bdbdbd" stroke="black" stroke-width="0.7"/>
<text x="623.9" y="355.6" font-size="7.5" text-anchor="start" transform="rotate(-90 623.9 355.6)">4.2</text>
<rect x="637.3" y="359.6" width="25.0" height="6.4" fill="#7f7f7f" stroke="black" stroke-width="0.7"/>
<text x="652.3" y="355.6" font-size="7.5" text-anchor="start" transform="rotate(-90 652.3 355.6)">4.1</text>
<rect x="665.7" y="356.4" width="25.0" height="9.6" fill="#3f3f3f" stroke="black" stroke-width="0.7"/>
<text x="680.7" y="352.4" font-size="7.5" text-anchor="start" transform="rotate(-90 680.7 352.4)">6.2</text>
<text x="651.5" y="382" font-size="11" text-anchor="middle">1</text>
<rect x="724.0" y="348.8" width="25.0" height="17.2" fill="#bdbdbd" stroke="black" stroke-width="0.7"/>
<text x="738.9" y="344.8" font-size="7.5" text-anchor="start" transform="rotate(-90 738.9 344.8)">11.1</text>
<rect x="752.3" y="348.9" width="25.0" height="17.1" fill="#7f7f7f" stroke="black" stroke-width="0.7"/>
<text x="767.3" y="344.9" font-size="7.5" text-anchor="start" transform="rotate(-90 767.3 344.9)">11.1</text>
<rect x="780.7" y="307.2" width="25.0" height="58.8" fill="#3f3f3f" stroke="black" stroke-width="0.7"/>
<text x="795.7" y="303.2" font-size="7.5" text-anchor="start" transform="rotate(-90 795.7 303.2)">38.1</text>
<text x="766.5" y="382" font-size="11" text-anchor="middle">2</text>
<rect x="839.0" y="330.7" width="25.0" height="35.3" fill="#bdbdbd" stroke="black" stroke-width="0.7"/>
<text x="853.9" y="326.7" font-size="7.5" text-anchor="start" transform="rotate(-90 853.9 326.7)">22.9</text>
<rect x="867.3" y="332.2" width="25.0" height="33.8" fill="#7f7f7f" stroke="black" stroke-width="0.7"/>
<text x="882.3" y="328.2" font-size="7.5" text-anchor="start" transform="rotate(-90 882.3 328.2)">21.9</text>
<rect x="895.7" y="257.9" width="25.0" height="108.1" fill="#3f3f3f" stroke="black" stroke-width="0.7"/>
<text x="910.7" y="253.9" font-size="7.5" text-anchor="start" transform="rotate(-90 910.7 253.9)">69.9</text>
<text x="881.5" y="382" font-size="11" text-anchor="middle">4</text>
<rect x="954.0" y="293.8" width="25.0" height="72.2" fill="#bdbdbd" stroke="black" stroke-width="0.7"/>
<text x="968.9" y="289.8" font-size="7.5" text-anchor="start" transform="rotate(-90 968.9 289.8)">46.7</text>
<rect x="982.3" y="294.0" width="25.0" height="72.0" fill="#7f7f7f" stroke="black" stroke-width="0.7"/>
<text x="997.3" y="290.0" font-size="7.5" text-anchor="start" transform="rotate(-90 997.3 290.0)">46.6</text>
<rect x="1010.7" y="120.1" width="25.0" height="245.9" fill="#3f3f3f" stroke="black" stroke-width="0.7"/>
<text x="1025.7" y="116.1" font-size="7.5" text-anchor="start" transform="rotate(-90 1025.7 116.1)">159</text>
<text x="996.5" y="382" font-size="11" text-anchor="middle">8</text>
</svg>