<svg xmlns="http://www.w3.org/2000/svg" width="1072" height="420" viewBox="0 0 1072 420" font-family="sans-serif">
<rect width="1072" height="420" fill="white"/>
<text x="536" y="20" text-anchor="middle" font-size="15" font-weight="bold">cas — RMW cost by memory order, single-line contention</text>
<rect x="371" y="32" width="12" height="12" fill="#ffffff" stroke="black" stroke-width="0.8"/>
<text x="387" y="42" font-size="11">relaxed</text>
<rect x="491" y="32" width="12" height="12" fill="#cfcfcf" stroke="black" stroke-width="0.8"/>
<text x="507" y="42" font-size="11">acquire</text>
<rect x="611" y="32" width="12" height="12" fill="#9e9e9e" stroke="black" stroke-width="0.8"/>
<text x="627" y="42" font-size="11">release</text>
<rect x="731" y="32" width="12" height="12" fill="#6e6e6e" stroke="black" stroke-width="0.8"/>
<text x="747" y="42" font-size="11">acq_rel</text>
<rect x="851" y="32" width="12" height="12" fill="#3f3f3f" stroke="black" stroke-width="0.8"/>
<text x="867" y="42" font-size="11">seq_cst</text>
<line x1="58" y1="60" x2="58" y2="366" stroke="black" stroke-width="1.4"/>
<line x1="58" y1="366" x2="518" y2="366" stroke="black" stroke-width="1.4"/>
<text x="15" y="216" font-size="12" text-anchor="middle" transform="rotate(-90 15 216)">Cycles / op</text>
<text x="288" y="408" font-size="12" text-anchor="middle">Threads (T)</text>
<rect x="73.0" y="356.4" width="15.0" height="9.6" fill="#ffffff" stroke="black" stroke-width="0.7"/>
<text x="82.9" y="352.4" font-size="7.5" text-anchor="start" transform="rotate(-90 82.9 352.4)">20.0</text>
<rect x="90.0" y="356.4" width="15.0" height="9.6" fill="#cfcfcf" stroke="black" stroke-width="0.7"/>
<text x="100.0" y="352.4" font-size="7.5" text-anchor="start" transform="rotate(-90 100.0 352.4)">20.0</text>
<rect x="107.0" y="356.4" width="15.0" height="9.6" fill="#9e9e9e" stroke="black" stroke-width="0.7"/>
<text x="117.0" y="352.4" font-size="7.5" text-anchor="start" transform="rotate(-90 117.0 352.4)">20.0</text>
<rect x="124.0" y="356.4" width="15.0" height="9.6" fill="#6e6e6e" stroke="black" stroke-width="0.7"/>
<text x="134.0" y="352.4" font-size="7.5" text-anchor="start" transform="rotate(-90 134.0 352.4)">20.0</text>
<rect x="141.0" y="356.4" width="15.0" height="9.6" fill="#3f3f3f" stroke="black" stroke-width="0.7"/>
<text x="151.0" y="352.4" font-size="7.5" text-anchor="start" transform="rotate(-90 151.0 352.4)">20.0</text>
<text x="115.5" y="382" font-size="11" text-anchor="middle">1</text>
<rect x="187.9" y="307.2" width="15.0" height="58.8" fill="#ffffff" stroke="black" stroke-width="0.7"/>
<text x="197.9" y="303.2" font-size="7.5" text-anchor="start" transform="rotate(-90 197.9 303.2)">123</text>
<rect x="205.0" y="307.1" width="15.0" height="58.9" fill="#cfcfcf" stroke="black" stroke-width="0.7"/>
<text x="215.0" y="303.1" font-size="7.5" text-anchor="start" transform="rotate(-90 215.0 303.1)">123</text>
<rect x="222.0" y="314.1" width="15.0" height="51.9" fill="#9e9e9e" stroke="black" stroke-width="0.7"/>
<text x="232.0" y="310.1" font-size="7.5" text-anchor="start" transform="rotate(-90 232.0 310.1)">108</text>
<rect x="239.0" y="312.8" width="15.0" height="53.2" fill="#6e6e6e" stroke="black" stroke-width="0.7"/>
<text x="249.0" y="308.8" font-size="7.5" text-anchor="start" transform="rotate(-90 249.0 308.8)">111</text>
<rect x="256.0" y="310.9" width="15.0" height="55.1" fill="#3f3f3f" stroke="black" stroke-width="0.7"/>
<text x="266.0" y="306.9" font-size="7.5" text-anchor="start" transform="rotate(-90 266.0 306.9)">115</text>
<text x="230.5" y="382" font-size="11" text-anchor="middle">2</text>
<rect x="302.9" y="257.9" width="15.0" height="108.1" fill="#ffffff" stroke="black" stroke-width="0.7"/>
<text x="312.9" y="253.9" font-size="7.5" text-anchor="start" transform="rotate(-90 312.9 253.9)">225</text>
<rect x="320.0" y="257.9" width="15.0" height="108.1" fill="#cfcfcf" stroke="black" stroke-width="0.7"/>
<text x="330.0" y="253.9" font-size="7.5" text-anchor="start" transform="rotate(-90 330.0 253.9)">225</text>
<rect x="337.0" y="266.7" width="15.0" height="99.3" fill="#9e9e9e" stroke="black" stroke-width="0.7"/>
<text x="347.0" y="262.7" font-size="7.5" text-anchor="start" transform="rotate(-90 347.0 262.7)">207</text>
<rect x="354.0" y="259.6" width="15.0" height="106.4" fill="#6e6e6e" stroke="black" stroke-width="0.7"/>
<text x="364.0" y="255.6" font-size="7.5" text-anchor="start" transform="rotate(-90 364.0 255.6)">222</text>
<rect x="371.0" y="263.1" width="15.0" height="102.9" fill="#3f3f3f" stroke="black" stroke-width="0.7"/>
<text x="381.0" y="259.1" font-size="7.5" text-anchor="start" transform="rotate(-90 381.0 259.1)">214</text>
<text x="345.5" y="382" font-size="11" text-anchor="middle">4</text>
<rect x="417.9" y="120.1" width="15.0" height="245.9" fill="#ffffff" stroke="black" stroke-width="0.7"/>
<text x="427.9" y="116.1" font-size="7.5" text-anchor="start" transform="rotate(-90 427.9 116.1)">513</text>
<rect x="435.0" y="120.1" width="15.0" height="245.9" fill="#cfcfcf" stroke="black" stroke-width="0.7"/>
<text x="445.0" y="116.1" font-size="7.5" text-anchor="start" transform="rotate(-90 445.0 116.1)">513</text>
<rect x="452.0" y="142.3" width="15.0" height="223.7" fill="#9e9e9e" stroke="black" stroke-width="0.7"/>
<text x="462.0" y="138.3" font-size="7.5" text-anchor="start" transform="rotate(-90 462.0 138.3)">466</text>
<rect x="469.0" y="171.6" width="15.0" height="194.4" fill="#6e6e6e" stroke="black" stroke-width="0.7"/>
<text x="479.0" y="167.6" font-size="7.5" text-anchor="start" transform="rotate(-90 479.0 167.6)">405</text>
<rect x="486.0" y="131.9" width="15.0" height="234.1" fill="#3f3f3f" stroke="black" stroke-width="0.7"/>
<text x="496.0" y="127.9" font-size="7.5" text-anchor="start" transform="rotate(-90 496.0 127.9)">488</text>
<text x="460.5" y="382" font-size="11" text-anchor="middle">8</text>
<line x1="594" y1="60" x2="594" y2="366" stroke="black" stroke-width="1.4"/>
<line x1="594" y1="366" x2="1054" y2="366" stroke="black" stroke-width="1.4"/>
<text x="551" y="216" font-size="12" text-anchor="middle" transform="rotate(-90 551 216)">Wall-time (ns / op)</text>
<text x="824" y="408" font-size="12" text-anchor="middle">Threads (T)</text>
<rect x="609.0" y="356.4" width="15.0" height="9.6" fill="#ffffff" stroke="black" stroke-width="0.7"/>
<text x="618.9" y="352.4" font-size="7.5" text-anchor="start" transform="rotate(-90 618.9 352.4)">6.2</text>
<rect x="626.0" y="356.4" width="15.0" height="9.6" fill="#cfcfcf" stroke="black" stroke-width="0.7"/>
<text x="636.0" y="352.4" font-size="7.5" text-anchor="start" transform="rotate(-90 636.0 352.4)">6.2</text>
<rect x="643.0" y="356.4" width="15.0" height="9.6" fill="#9e9e9e" stroke="black" stroke-width="0.7"/>
<text x="653.0" y="352.4" font-size="7.5" text-anchor="start" transform="rotate(-90 653.0 352.4)">6.2</text>
<rect x="660.0" y="356.4" width="15.0" height="9.6" fill="#6e6e6e" stroke="black" stroke-width="0.7"/>
<text x="670.0" y="352.4" font-size="7.5" text-anchor="start" transform="rotate(-90 670.0 352.4)">6.2</text>
<rect x="677.0" y="356.4" width="15.0" height="9.6" fill="#3f3f3f" stroke="black" stroke-width="0.7"/>
<text x="687.0" y="352.4" font-size="7.5" text-anchor="start" transform="rotate(-90 687.0 352.4)">6.2</text>
<text x="651.5" y="382" font-size="11" text-anchor="middle">1</text>
<rect x="724.0" y="307.2" width="15.0" height="58.8" fill="#ffffff" stroke="black" stroke-width="0.7"/>
<text x="733.9" y="303.2" font-size="7.5" text-anchor="start" transform="rotate(-90 733.9 303.2)">38.1</text>
<rect x="741.0" y="307.2" width="15.0" height="58.8" fill="#cfcfcf" stroke="black" stroke-width="0.7"/>
<text x="751.0" y="303.2" font-size="7.5" text-anchor="start" transform="rotate(-90 751.0 303.2)">38.1</text>
<rect x="758.0" y="314.1" width="15.0" height="51.9" fill="#9e9e9e" stroke="black" stroke-width="0.7"/>
<text x="768.0" y="310.1" font-size="7.5" text-anchor="start" transform="rotate(-90 768.0 310.1)">33.6</text>
<rect x="775.0" y="312.8" width="15.0" height="53.2" fill="#6e6e6e" stroke="black" stroke-width="0.7"/>
<text x="785.0" y="308.8" font-size="7.5" text-anchor="start" transform="rotate(-90 785.0 308.8)">34.4</text>
<rect x="792.0" y="310.9" width="15.0" height="55.1" fill="#3f3f3f" stroke="black" stroke-width="0.7"/>
<text x="802.0" y="306.9" font-size="7.5" text-anchor="start" transform="rotate(-90 802.0 306.9)">35.7</text>
<text x="766.5" y="382" font-size="11" text-anchor="middle">2</text>
<rect x="839.0" y="257.9" width="15.0" height="108.1" fill="#ffffff" stroke="black" stroke-width="0.7"/>
<text x="848.9" y="253.9" font-size="7.5" text-anchor="start" transform="rotate(-90 848.9 253.9)">69.9</text>
<rect x="856.0" y="257.9" width="15.0" height="108.1" fill="#cfcfcf" stroke="black" stroke-width="0.7"/>
<text x="866.0" y="253.9" font-size="7.5" text-anchor="start" transform="rotate(-90 866.0 253.9)">70.0</text>
<rect x="873.0" y="266.7" width="15.0" height="99.3" fill="#9e9e9e" stroke="black" stroke-width="0.7"/>
<text x="883.0" y="262.7" font-size="7.5" text-anchor="start" transform="rotate(-90 883.0 262.7)">64.2</text>
<rect x="890.0" y="259.6" width="15.0" height="106.4" fill="#6e6e6e" stroke="black" stroke-width="0.7"/>
<text x="900.0" y="255.6" font-size="7.5" text-anchor="start" transform="rotate(-90 900.0 255.6)">68.8</text>
<rect x="907.0" y="263.1" width="15.0" height="102.9" fill="#3f3f3f" stroke="black" stroke-width="0.7"/>
<text x="917.0" y="259.1" font-size="7.5" text-anchor="start" transform="rotate(-90 917.0 259.1)">66.5</text>
<text x="881.5" y="382" font-size="11" text-anchor="middle">4</text>
<rect x="954.0" y="120.1" width="15.0" height="245.9" fill="#ffffff" stroke="black" stroke-width="0.7"/>
<text x="963.9" y="116.1" font-size="7.5" text-anchor="start" transform="rotate(-90 963.9 116.1)">159</text>
<rect x="971.0" y="120.1" width="15.0" height="245.9" fill="#cfcfcf" stroke="black" stroke-width="0.7"/>
<text x="981.0" y="116.1" font-size="7.5" text-anchor="start" transform="rotate(-90 981.0 116.1)">159</text>
<rect x="988.0" y="142.3" width="15.0" height="223.7" fill="#9e9e9e" stroke="black" stroke-width="0.7"/>
<text x="998.0" y="138.3" font-size="7.5" text-anchor="start" transform="rotate(-90 998.0 138.3)">145</text>
<rect x="1005.0" y="171.5" width="15.0" height="194.5" fill="#6e6e6e" stroke="black" stroke-width="0.7"/>
<text x="1015.0" y="167.5" font-size="7.5" text-anchor="start" transform="rotate(-90 1015.0 167.5)">126</text>
<rect x="1022.0" y="131.8" width="15.0" height="234.2" fill="#3f3f3f" stroke="black" stroke-width="0.7"/>
<text x="1032.0" y="127.8" font-size="7.5" text-anchor="start" transform="rotate(-90 1032.0 127.8)">152</text>
<text x="996.5" y="382" font-size="11" text-anchor="middle">8</text>
</svg>