<svg xmlns="http://www.w3.org/2000/svg" width="1072" height="420" viewBox="0 0 1072 420" font-family="sans-serif">
<rect width="1072" height="420" fill="white"/>
<text x="536" y="20" text-anchor="middle" font-size="15" font-weight="bold">swp  (hit)</text>
<rect x="371" y="32" width="12" height="12" fill="#ffffff" stroke="black" stroke-width="0.8"/>
<text x="387" y="42" font-size="11">relaxed</text>
<rect x="491" y="32" width="12" height="12" fill="#cfcfcf" stroke="black" stroke-width="0.8"/>
<text x="507" y="42" font-size="11">acquire</text>
<rect x="611" y="32" width="12" height="12" fill="#9e9e9e" stroke="black" stroke-width="0.8"/>
<text x="627" y="42" font-size="11">release</text>
<rect x="731" y="32" width="12" height="12" fill="#6e6e6e" stroke="black" stroke-width="0.8"/>
<text x="747" y="42" font-size="11">acq_rel</text>
<rect x="851" y="32" width="12" height="12" fill="#3f3f3f" stroke="black" stroke-width="0.8"/>
<text x="867" y="42" font-size="11">seq_cst</text>
<line x1="58" y1="60" x2="58" y2="366" stroke="black" stroke-width="1.4"/>
<line x1="58" y1="366" x2="518" y2="366" stroke="black" stroke-width="1.4"/>
<text x="15" y="216" font-size="12" text-anchor="middle" transform="rotate(-90 15 216)">Cycles</text>
<text x="288" y="408" font-size="12" text-anchor="middle">Number of Inst. (N)</text>
<rect x="66.5" y="362.0" width="8.6" height="4.0" fill="#ffffff" stroke="black" stroke-width="0.7"/>
<text x="73.3" y="358.0" font-size="7.5" text-anchor="start" transform="rotate(-90 73.3 358.0)">14.8</text>
<rect x="76.3" y="362.0" width="8.6" height="4.0" fill="#cfcfcf" stroke="black" stroke-width="0.7"/>
<text x="83.0" y="358.0" font-size="7.5" text-anchor="start" transform="rotate(-90 83.0 358.0)">14.8</text>
<rect x="86.0" y="362.0" width="8.6" height="4.0" fill="#9e9e9e" stroke="black" stroke-width="0.7"/>
<text x="92.8" y="358.0" font-size="7.5" text-anchor="start" transform="rotate(-90 92.8 358.0)">14.8</text>
<rect x="95.7" y="361.9" width="8.6" height="4.1" fill="#6e6e6e" stroke="black" stroke-width="0.7"/>
<text x="102.5" y="357.9" font-size="7.5" text-anchor="start" transform="rotate(-90 102.5 357.9)">15.0</text>
<rect x="105.4" y="362.0" width="8.6" height="4.0" fill="#3f3f3f" stroke="black" stroke-width="0.7"/>
<text x="112.2" y="358.0" font-size="7.5" text-anchor="start" transform="rotate(-90 112.2 358.0)">14.8</text>
<text x="90.9" y="382" font-size="11" text-anchor="middle">1</text>
<rect x="132.3" y="358.1" width="8.6" height="7.9" fill="#ffffff" stroke="black" stroke-width="0.7"/>
<text x="139.0" y="354.1" font-size="7.5" text-anchor="start" transform="rotate(-90 139.0 354.1)">29.0</text>
<rect x="142.0" y="358.1" width="8.6" height="7.9" fill="#cfcfcf" stroke="black" stroke-width="0.7"/>
<text x="148.8" y="354.1" font-size="7.5" text-anchor="start" transform="rotate(-90 148.8 354.1)">29.0</text>
<rect x="151.7" y="358.1" width="8.6" height="7.9" fill="#9e9e9e" stroke="black" stroke-width="0.7"/>
<text x="158.5" y="354.1" font-size="7.5" text-anchor="start" transform="rotate(-90 158.5 354.1)">29.0</text>
<rect x="161.4" y="358.1" width="8.6" height="7.9" fill="#6e6e6e" stroke="black" stroke-width="0.7"/>
<text x="168.2" y="354.1" font-size="7.5" text-anchor="start" transform="rotate(-90 168.2 354.1)">29.0</text>
<rect x="171.2" y="358.1" width="8.6" height="7.9" fill="#3f3f3f" stroke="black" stroke-width="0.7"/>
<text x="177.9" y="354.1" font-size="7.5" text-anchor="start" transform="rotate(-90 177.9 354.1)">29.0</text>
<text x="156.6" y="382" font-size="11" text-anchor="middle">2</text>
<rect x="198.0" y="350.4" width="8.6" height="15.6" fill="#ffffff" stroke="black" stroke-width="0.7"/>
<text x="204.8" y="346.4" font-size="7.5" text-anchor="start" transform="rotate(-90 204.8 346.4)">57.3</text>
<rect x="207.7" y="350.4" width="8.6" height="15.6" fill="#cfcfcf" stroke="black" stroke-width="0.7"/>
<text x="214.5" y="346.4" font-size="7.5" text-anchor="start" transform="rotate(-90 214.5 346.4)">57.3</text>
<rect x="217.4" y="350.4" width="8.6" height="15.6" fill="#9e9e9e" stroke="black" stroke-width="0.7"/>
<text x="224.2" y="346.4" font-size="7.5" text-anchor="start" transform="rotate(-90 224.2 346.4)">57.3</text>
<rect x="227.1" y="350.4" width="8.6" height="15.6" fill="#6e6e6e" stroke="black" stroke-width="0.7"/>
<text x="233.9" y="346.4" font-size="7.5" text-anchor="start" transform="rotate(-90 233.9 346.4)">57.3</text>
<rect x="236.9" y="350.3" width="8.6" height="15.7" fill="#3f3f3f" stroke="black" stroke-width="0.7"/>
<text x="243.7" y="346.3" font-size="7.5" text-anchor="start" transform="rotate(-90 243.7 346.3)">57.7</text>
<text x="222.3" y="382" font-size="11" text-anchor="middle">4</text>
<rect x="263.7" y="335.1" width="8.6" height="30.9" fill="#ffffff" stroke="black" stroke-width="0.7"/>
<text x="270.5" y="331.1" font-size="7.5" text-anchor="start" transform="rotate(-90 270.5 331.1)">114</text>
<rect x="273.4" y="335.1" width="8.6" height="30.9" fill="#cfcfcf" stroke="black" stroke-width="0.7"/>
<text x="280.2" y="331.1" font-size="7.5" text-anchor="start" transform="rotate(-90 280.2 331.1)">114</text>
<rect x="283.1" y="335.1" width="8.6" height="30.9" fill="#9e9e9e" stroke="black" stroke-width="0.7"/>
<text x="289.9" y="331.1" font-size="7.5" text-anchor="start" transform="rotate(-90 289.9 331.1)">114</text>
<rect x="292.9" y="335.1" width="8.6" height="30.9" fill="#6e6e6e" stroke="black" stroke-width="0.7"/>
<text x="299.6" y="331.1" font-size="7.5" text-anchor="start" transform="rotate(-90 299.6 331.1)">114</text>
<rect x="302.6" y="335.1" width="8.6" height="30.9" fill="#3f3f3f" stroke="black" stroke-width="0.7"/>
<text x="309.4" y="331.1" font-size="7.5" text-anchor="start" transform="rotate(-90 309.4 331.1)">114</text>
<text x="288.0" y="382" font-size="11" text-anchor="middle">8</text>
<rect x="329.4" y="304.4" width="8.6" height="61.6" fill="#ffffff" stroke="black" stroke-width="0.7"/>
<text x="336.2" y="300.4" font-size="7.5" text-anchor="start" transform="rotate(-90 336.2 300.4)">227</text>
<rect x="339.1" y="303.9" width="8.6" height="62.1" fill="#cfcfcf" stroke="black" stroke-width="0.7"/>
<text x="345.9" y="299.9" font-size="7.5" text-anchor="start" transform="rotate(-90 345.9 299.9)">229</text>
<rect x="348.9" y="304.4" width="8.6" height="61.6" fill="#9e9e9e" stroke="black" stroke-width="0.7"/>
<text x="355.6" y="300.4" font-size="7.5" text-anchor="start" transform="rotate(-90 355.6 300.4)">227</text>
<rect x="358.6" y="304.4" width="8.6" height="61.6" fill="#6e6e6e" stroke="black" stroke-width="0.7"/>
<text x="365.4" y="300.4" font-size="7.5" text-anchor="start" transform="rotate(-90 365.4 300.4)">227</text>
<rect x="368.3" y="304.4" width="8.6" height="61.6" fill="#3f3f3f" stroke="black" stroke-width="0.7"/>
<text x="375.1" y="300.4" font-size="7.5" text-anchor="start" transform="rotate(-90 375.1 300.4)">227</text>
<text x="353.7" y="382" font-size="11" text-anchor="middle">16</text>
<rect x="395.1" y="243.0" width="8.6" height="123.0" fill="#ffffff" stroke="black" stroke-width="0.7"/>
<text x="401.9" y="239.0" font-size="7.5" text-anchor="start" transform="rotate(-90 401.9 239.0)">453</text>
<rect x="404.8" y="243.0" width="8.6" height="123.0" fill="#cfcfcf" stroke="black" stroke-width="0.7"/>
<text x="411.6" y="239.0" font-size="7.5" text-anchor="start" transform="rotate(-90 411.6 239.0)">453</text>
<rect x="414.6" y="243.0" width="8.6" height="123.0" fill="#9e9e9e" stroke="black" stroke-width="0.7"/>
<text x="421.3" y="239.0" font-size="7.5" text-anchor="start" transform="rotate(-90 421.3 239.0)">453</text>
<rect x="424.3" y="243.0" width="8.6" height="123.0" fill="#6e6e6e" stroke="black" stroke-width="0.7"/>
<text x="431.1" y="239.0" font-size="7.5" text-anchor="start" transform="rotate(-90 431.1 239.0)">453</text>
<rect x="434.0" y="241.9" width="8.6" height="124.1" fill="#3f3f3f" stroke="black" stroke-width="0.7"/>
<text x="440.8" y="237.9" font-size="7.5" text-anchor="start" transform="rotate(-90 440.8 237.9)">457</text>
<text x="419.4" y="382" font-size="11" text-anchor="middle">32</text>
<rect x="460.8" y="120.1" width="8.6" height="245.9" fill="#ffffff" stroke="black" stroke-width="0.7"/>
<text x="467.6" y="116.1" font-size="7.5" text-anchor="start" transform="rotate(-90 467.6 116.1)">905</text>
<rect x="470.6" y="120.1" width="8.6" height="245.9" fill="#cfcfcf" stroke="black" stroke-width="0.7"/>
<text x="477.3" y="116.1" font-size="7.5" text-anchor="start" transform="rotate(-90 477.3 116.1)">905</text>
<rect x="480.3" y="120.1" width="8.6" height="245.9" fill="#9e9e9e" stroke="black" stroke-width="0.7"/>
<text x="487.1" y="116.1" font-size="7.5" text-anchor="start" transform="rotate(-90 487.1 116.1)">905</text>
<rect x="490.0" y="120.1" width="8.6" height="245.9" fill="#6e6e6e" stroke="black" stroke-width="0.7"/>
<text x="496.8" y="116.1" font-size="7.5" text-anchor="start" transform="rotate(-90 496.8 116.1)">905</text>
<rect x="499.7" y="120.1" width="8.6" height="245.9" fill="#3f3f3f" stroke="black" stroke-width="0.7"/>
<text x="506.5" y="116.1" font-size="7.5" text-anchor="start" transform="rotate(-90 506.5 116.1)">905</text>
<text x="485.1" y="382" font-size="11" text-anchor="middle">64</text>
<line x1="594" y1="60" x2="594" y2="366" stroke="black" stroke-width="1.4"/>
<line x1="594" y1="366" x2="1054" y2="366" stroke="black" stroke-width="1.4"/>
<text x="551" y="216" font-size="12" text-anchor="middle" transform="rotate(-90 551 216)">Wall-time (ns)</text>
<text x="824" y="408" font-size="12" text-anchor="middle">Number of Inst. (N)</text>
<rect x="602.5" y="362.0" width="8.6" height="4.0" fill="#ffffff" stroke="black" stroke-width="0.7"/>
<text x="609.3" y="358.0" font-size="7.5" text-anchor="start" transform="rotate(-90 609.3 358.0)">4.6</text>
<rect x="612.3" y="362.0" width="8.6" height="4.0" fill="#cfcfcf" stroke="black" stroke-width="0.7"/>
<text x="619.0" y="358.0" font-size="7.5" text-anchor="start" transform="rotate(-90 619.0 358.0)">4.6</text>
<rect x="622.0" y="362.0" width="8.6" height="4.0" fill="#9e9e9e" stroke="black" stroke-width="0.7"/>
<text x="628.8" y="358.0" font-size="7.5" text-anchor="start" transform="rotate(-90 628.8 358.0)">4.6</text>
<rect x="631.7" y="361.9" width="8.6" height="4.1" fill="#6e6e6e" stroke="black" stroke-width="0.7"/>
<text x="638.5" y="357.9" font-size="7.5" text-anchor="start" transform="rotate(-90 638.5 357.9)">4.7</text>
<rect x="641.4" y="362.0" width="8.6" height="4.0" fill="#3f3f3f" stroke="black" stroke-width="0.7"/>
<text x="648.2" y="358.0" font-size="7.5" text-anchor="start" transform="rotate(-90 648.2 358.0)">4.6</text>
<text x="626.9" y="382" font-size="11" text-anchor="middle">1</text>
<rect x="668.3" y="358.1" width="8.6" height="7.9" fill="#ffffff" stroke="black" stroke-width="0.7"/>
<text x="675.0" y="354.1" font-size="7.5" text-anchor="start" transform="rotate(-90 675.0 354.1)">9.0</text>
<rect x="678.0" y="358.1" width="8.6" height="7.9" fill="#cfcfcf" stroke="black" stroke-width="0.7"/>
<text x="684.8" y="354.1" font-size="7.5" text-anchor="start" transform="rotate(-90 684.8 354.1)">9.0</text>
<rect x="687.7" y="358.1" width="8.6" height="7.9" fill="#9e9e9e" stroke="black" stroke-width="0.7"/>
<text x="694.5" y="354.1" font-size="7.5" text-anchor="start" transform="rotate(-90 694.5 354.1)">9.0</text>
<rect x="697.4" y="358.1" width="8.6" height="7.9" fill="#6e6e6e" stroke="black" stroke-width="0.7"/>
<text x="704.2" y="354.1" font-size="7.5" text-anchor="start" transform="rotate(-90 704.2 354.1)">9.0</text>
<rect x="707.2" y="358.1" width="8.6" height="7.9" fill="#3f3f3f" stroke="black" stroke-width="0.7"/>
<text x="713.9" y="354.1" font-size="7.5" text-anchor="start" transform="rotate(-90 713.9 354.1)">9.0</text>
<text x="692.6" y="382" font-size="11" text-anchor="middle">2</text>
<rect x="734.0" y="350.4" width="8.6" height="15.6" fill="#ffffff" stroke="black" stroke-width="0.7"/>
<text x="740.8" y="346.4" font-size="7.5" text-anchor="start" transform="rotate(-90 740.8 346.4)">17.8</text>
<rect x="743.7" y="350.4" width="8.6" height="15.6" fill="#cfcfcf" stroke="black" stroke-width="0.7"/>
<text x="750.5" y="346.4" font-size="7.5" text-anchor="start" transform="rotate(-90 750.5 346.4)">17.8</text>
<rect x="753.4" y="350.4" width="8.6" height="15.6" fill="#9e9e9e" stroke="black" stroke-width="0.7"/>
<text x="760.2" y="346.4" font-size="7.5" text-anchor="start" transform="rotate(-90 760.2 346.4)">17.8</text>
<rect x="763.1" y="350.4" width="8.6" height="15.6" fill="#6e6e6e" stroke="black" stroke-width="0.7"/>
<text x="769.9" y="346.4" font-size="7.5" text-anchor="start" transform="rotate(-90 769.9 346.4)">17.8</text>
<rect x="772.9" y="350.3" width="8.6" height="15.7" fill="#3f3f3f" stroke="black" stroke-width="0.7"/>
<text x="779.7" y="346.3" font-size="7.5" text-anchor="start" transform="rotate(-90 779.7 346.3)">17.9</text>
<text x="758.3" y="382" font-size="11" text-anchor="middle">4</text>
<rect x="799.7" y="335.1" width="8.6" height="30.9" fill="#ffffff" stroke="black" stroke-width="0.7"/>
<text x="806.5" y="331.1" font-size="7.5" text-anchor="start" transform="rotate(-90 806.5 331.1)">35.3</text>
<rect x="809.4" y="335.1" width="8.6" height="30.9" fill="#cfcfcf" stroke="black" stroke-width="0.7"/>
<text x="816.2" y="331.1" font-size="7.5" text-anchor="start" transform="rotate(-90 816.2 331.1)">35.3</text>
<rect x="819.1" y="335.1" width="8.6" height="30.9" fill="#9e9e9e" stroke="black" stroke-width="0.7"/>
<text x="825.9" y="331.1" font-size="7.5" text-anchor="start" transform="rotate(-90 825.9 331.1)">35.3</text>
<rect x="828.9" y="335.1" width="8.6" height="30.9" fill="#6e6e6e" stroke="black" stroke-width="0.7"/>
<text x="835.6" y="331.1" font-size="7.5" text-anchor="start" transform="rotate(-90 835.6 331.1)">35.3</text>
<rect x="838.6" y="335.1" width="8.6" height="30.9" fill="#3f3f3f" stroke="black" stroke-width="0.7"/>
<text x="845.4" y="331.1" font-size="7.5" text-anchor="start" transform="rotate(-90 845.4 331.1)">35.3</text>
<text x="824.0" y="382" font-size="11" text-anchor="middle">8</text>
<rect x="865.4" y="304.4" width="8.6" height="61.6" fill="#ffffff" stroke="black" stroke-width="0.7"/>
<text x="872.2" y="300.4" font-size="7.5" text-anchor="start" transform="rotate(-90 872.2 300.4)">70.4</text>
<rect x="875.1" y="303.9" width="8.6" height="62.1" fill="#cfcfcf" stroke="black" stroke-width="0.7"/>
<text x="881.9" y="299.9" font-size="7.5" text-anchor="start" transform="rotate(-90 881.9 299.9)">70.9</text>
<rect x="884.9" y="304.3" width="8.6" height="61.7" fill="#9e9e9e" stroke="black" stroke-width="0.7"/>
<text x="891.6" y="300.3" font-size="7.5" text-anchor="start" transform="rotate(-90 891.6 300.3)">70.4</text>
<rect x="894.6" y="304.4" width="8.6" height="61.6" fill="#6e6e6e" stroke="black" stroke-width="0.7"/>
<text x="901.4" y="300.4" font-size="7.5" text-anchor="start" transform="rotate(-90 901.4 300.4)">70.3</text>
<rect x="904.3" y="304.4" width="8.6" height="61.6" fill="#3f3f3f" stroke="black" stroke-width="0.7"/>
<text x="911.1" y="300.4" font-size="7.5" text-anchor="start" transform="rotate(-90 911.1 300.4)">70.4</text>
<text x="889.7" y="382" font-size="11" text-anchor="middle">16</text>
<rect x="931.1" y="243.0" width="8.6" height="123.0" fill="#ffffff" stroke="black" stroke-width="0.7"/>
<text x="937.9" y="239.0" font-size="7.5" text-anchor="start" transform="rotate(-90 937.9 239.0)">140</text>
<rect x="940.8" y="242.9" width="8.6" height="123.1" fill="#cfcfcf" stroke="black" stroke-width="0.7"/>
<text x="947.6" y="238.9" font-size="7.5" text-anchor="start" transform="rotate(-90 947.6 238.9)">140</text>
<rect x="950.6" y="243.0" width="8.6" height="123.0" fill="#9e9e9e" stroke="black" stroke-width="0.7"/>
<text x="957.3" y="239.0" font-size="7.5" text-anchor="start" transform="rotate(-90 957.3 239.0)">140</text>
<rect x="960.3" y="242.9" width="8.6" height="123.1" fill="#6e6e6e" stroke="black" stroke-width="0.7"/>
<text x="967.1" y="238.9" font-size="7.5" text-anchor="start" transform="rotate(-90 967.1 238.9)">140</text>
<rect x="970.0" y="241.9" width="8.6" height="124.1" fill="#3f3f3f" stroke="black" stroke-width="0.7"/>
<text x="976.8" y="237.9" font-size="7.5" text-anchor="start" transform="rotate(-90 976.8 237.9)">142</text>
<text x="955.4" y="382" font-size="11" text-anchor="middle">32</text>
<rect x="996.8" y="120.1" width="8.6" height="245.9" fill="#ffffff" stroke="black" stroke-width="0.7"/>
<text x="1003.6" y="116.1" font-size="7.5" text-anchor="start" transform="rotate(-90 1003.6 116.1)">281</text>
<rect x="1006.6" y="120.1" width="8.6" height="245.9" fill="#cfcfcf" stroke="black" stroke-width="0.7"/>
<text x="1013.3" y="116.1" font-size="7.5" text-anchor="start" transform="rotate(-90 1013.3 116.1)">281</text>
<rect x="1016.3" y="120.1" width="8.6" height="245.9" fill="#9e9e9e" stroke="black" stroke-width="0.7"/>
<text x="1023.1" y="116.1" font-size="7.5" text-anchor="start" transform="rotate(-90 1023.1 116.1)">281</text>
<rect x="1026.0" y="120.1" width="8.6" height="245.9" fill="#6e6e6e" stroke="black" stroke-width="0.7"/>
<text x="1032.8" y="116.1" font-size="7.5" text-anchor="start" transform="rotate(-90 1032.8 116.1)">281</text>
<rect x="1035.7" y="120.1" width="8.6" height="245.9" fill="#3f3f3f" stroke="black" stroke-width="0.7"/>
<text x="1042.5" y="116.1" font-size="7.5" text-anchor="start" transform="rotate(-90 1042.5 116.1)">281</text>
<text x="1021.1" y="382" font-size="11" text-anchor="middle">64</text>
</svg>