<svg xmlns="http://www.w3.org/2000/svg" width="1072" height="420" viewBox="0 0 1072 420" font-family="sans-serif">
<rect width="1072" height="420" fill="white"/>
<text x="536" y="20" text-anchor="middle" font-size="15" font-weight="bold">At a glance — baseline vs memory-ordered at after_every · N=64</text>
<rect x="371" y="32" width="12" height="12" fill="#ffffff" stroke="black" stroke-width="0.8"/>
<text x="387" y="42" font-size="11">baseline miss</text>
<rect x="491" y="32" width="12" height="12" fill="#3f3f3f" stroke="black" stroke-width="0.8"/>
<text x="507" y="42" font-size="11">memory-ordered miss</text>
<rect x="611" y="32" width="12" height="12" fill="#e8e8e8" stroke="black" stroke-width="0.8"/>
<text x="627" y="42" font-size="11">baseline hit</text>
<rect x="731" y="32" width="12" height="12" fill="#7f7f7f" stroke="black" stroke-width="0.8"/>
<text x="747" y="42" font-size="11">memory-ordered hit</text>
<line x1="58" y1="60" x2="58" y2="366" stroke="black" stroke-width="1.4"/>
<line x1="58" y1="366" x2="518" y2="366" stroke="black" stroke-width="1.4"/>
<text x="15" y="216" font-size="12" text-anchor="middle" transform="rotate(-90 15 216)">cycles / iteration</text>
<text x="288" y="408" font-size="12" text-anchor="middle">memory-ordered instruction</text>
<rect x="68.0" y="140.2" width="12.5" height="225.8" fill="#ffffff" stroke="black" stroke-width="0.7"/>
<text x="76.7" y="136.2" font-size="7.5" text-anchor="start" transform="rotate(-90 76.7 136.2)">2398</text>
<rect x="82.2" y="120.1" width="12.5" height="245.9" fill="#3f3f3f" stroke="black" stroke-width="0.7"/>
<text x="90.9" y="116.1" font-size="7.5" text-anchor="start" transform="rotate(-90 90.9 116.1)">2612</text>
<rect x="96.3" y="350.7" width="12.5" height="15.3" fill="#e8e8e8" stroke="black" stroke-width="0.7"/>
<text x="105.1" y="346.7" font-size="7.5" text-anchor="start" transform="rotate(-90 105.1 346.7)">163</text>
<rect x="110.5" y="317.1" width="12.5" height="48.9" fill="#7f7f7f" stroke="black" stroke-width="0.7"/>
<text x="119.3" y="313.1" font-size="7.5" text-anchor="start" transform="rotate(-90 119.3 313.1)">520</text>
<text x="96.3" y="382" font-size="11" text-anchor="middle">dmb_ish</text>
<rect x="144.6" y="140.2" width="12.5" height="225.8" fill="#ffffff" stroke="black" stroke-width="0.7"/>
<text x="153.4" y="136.2" font-size="7.5" text-anchor="start" transform="rotate(-90 153.4 136.2)">2398</text>
<rect x="158.8" y="120.1" width="12.5" height="245.9" fill="#3f3f3f" stroke="black" stroke-width="0.7"/>
<text x="167.6" y="116.1" font-size="7.5" text-anchor="start" transform="rotate(-90 167.6 116.1)">2612</text>
<rect x="173.0" y="350.7" width="12.5" height="15.3" fill="#e8e8e8" stroke="black" stroke-width="0.7"/>
<text x="181.7" y="346.7" font-size="7.5" text-anchor="start" transform="rotate(-90 181.7 346.7)">163</text>
<rect x="187.2" y="316.8" width="12.5" height="49.2" fill="#7f7f7f" stroke="black" stroke-width="0.7"/>
<text x="195.9" y="312.8" font-size="7.5" text-anchor="start" transform="rotate(-90 195.9 312.8)">523</text>
<text x="173.0" y="382" font-size="11" text-anchor="middle">dmb_sy</text>
<rect x="221.3" y="140.2" width="12.5" height="225.8" fill="#ffffff" stroke="black" stroke-width="0.7"/>
<text x="230.0" y="136.2" font-size="7.5" text-anchor="start" transform="rotate(-90 230.0 136.2)">2398</text>
<rect x="235.5" y="120.1" width="12.5" height="245.9" fill="#3f3f3f" stroke="black" stroke-width="0.7"/>
<text x="244.2" y="116.1" font-size="7.5" text-anchor="start" transform="rotate(-90 244.2 116.1)">2612</text>
<rect x="249.7" y="350.7" width="12.5" height="15.3" fill="#e8e8e8" stroke="black" stroke-width="0.7"/>
<text x="258.4" y="346.7" font-size="7.5" text-anchor="start" transform="rotate(-90 258.4 346.7)">163</text>
<rect x="263.9" y="316.8" width="12.5" height="49.2" fill="#7f7f7f" stroke="black" stroke-width="0.7"/>
<text x="272.6" y="312.8" font-size="7.5" text-anchor="start" transform="rotate(-90 272.6 312.8)">523</text>
<text x="249.7" y="382" font-size="11" text-anchor="middle">dmb_ishld</text>
<rect x="298.0" y="140.2" width="12.5" height="225.8" fill="#ffffff" stroke="black" stroke-width="0.7"/>
<text x="306.7" y="136.2" font-size="7.5" text-anchor="start" transform="rotate(-90 306.7 136.2)">2398</text>
<rect x="312.1" y="120.1" width="12.5" height="245.9" fill="#3f3f3f" stroke="black" stroke-width="0.7"/>
<text x="320.9" y="116.1" font-size="7.5" text-anchor="start" transform="rotate(-90 320.9 116.1)">2612</text>
<rect x="326.3" y="350.7" width="12.5" height="15.3" fill="#e8e8e8" stroke="black" stroke-width="0.7"/>
<text x="335.1" y="346.7" font-size="7.5" text-anchor="start" transform="rotate(-90 335.1 346.7)">163</text>
<rect x="340.5" y="316.8" width="12.5" height="49.2" fill="#7f7f7f" stroke="black" stroke-width="0.7"/>
<text x="349.3" y="312.8" font-size="7.5" text-anchor="start" transform="rotate(-90 349.3 312.8)">523</text>
<text x="326.3" y="382" font-size="11" text-anchor="middle">dmb_ld</text>
<rect x="374.6" y="140.2" width="12.5" height="225.8" fill="#ffffff" stroke="black" stroke-width="0.7"/>
<text x="383.4" y="136.2" font-size="7.5" text-anchor="start" transform="rotate(-90 383.4 136.2)">2398</text>
<rect x="388.8" y="139.8" width="12.5" height="226.2" fill="#3f3f3f" stroke="black" stroke-width="0.7"/>
<text x="397.6" y="135.8" font-size="7.5" text-anchor="start" transform="rotate(-90 397.6 135.8)">2403</text>
<rect x="403.0" y="350.7" width="12.5" height="15.3" fill="#e8e8e8" stroke="black" stroke-width="0.7"/>
<text x="411.7" y="346.7" font-size="7.5" text-anchor="start" transform="rotate(-90 411.7 346.7)">163</text>
<rect x="417.2" y="350.8" width="12.5" height="15.2" fill="#7f7f7f" stroke="black" stroke-width="0.7"/>
<text x="425.9" y="346.8" font-size="7.5" text-anchor="start" transform="rotate(-90 425.9 346.8)">161</text>
<text x="403.0" y="382" font-size="11" text-anchor="middle">ldar</text>
<rect x="451.3" y="140.2" width="12.5" height="225.8" fill="#ffffff" stroke="black" stroke-width="0.7"/>
<text x="460.0" y="136.2" font-size="7.5" text-anchor="start" transform="rotate(-90 460.0 136.2)">2398</text>
<rect x="465.5" y="139.8" width="12.5" height="226.2" fill="#3f3f3f" stroke="black" stroke-width="0.7"/>
<text x="474.2" y="135.8" font-size="7.5" text-anchor="start" transform="rotate(-90 474.2 135.8)">2403</text>
<rect x="479.7" y="350.7" width="12.5" height="15.3" fill="#e8e8e8" stroke="black" stroke-width="0.7"/>
<text x="488.4" y="346.7" font-size="7.5" text-anchor="start" transform="rotate(-90 488.4 346.7)">163</text>
<rect x="493.9" y="350.9" width="12.5" height="15.1" fill="#7f7f7f" stroke="black" stroke-width="0.7"/>
<text x="502.6" y="346.9" font-size="7.5" text-anchor="start" transform="rotate(-90 502.6 346.9)">161</text>
<text x="479.7" y="382" font-size="11" text-anchor="middle">ldapr</text>
<line x1="594" y1="60" x2="594" y2="366" stroke="black" stroke-width="1.4"/>
<line x1="594" y1="366" x2="1054" y2="366" stroke="black" stroke-width="1.4"/>
<text x="551" y="216" font-size="12" text-anchor="middle" transform="rotate(-90 551 216)">wall-time / iteration (ns)</text>
<text x="824" y="408" font-size="12" text-anchor="middle">memory-ordered instruction</text>
<rect x="604.0" y="140.2" width="12.5" height="225.8" fill="#ffffff" stroke="black" stroke-width="0.7"/>
<text x="612.7" y="136.2" font-size="7.5" text-anchor="start" transform="rotate(-90 612.7 136.2)">745</text>
<rect x="618.1" y="120.1" width="12.5" height="245.9" fill="#3f3f3f" stroke="black" stroke-width="0.7"/>
<text x="626.9" y="116.1" font-size="7.5" text-anchor="start" transform="rotate(-90 626.9 116.1)">812</text>
<rect x="632.3" y="350.7" width="12.5" height="15.3" fill="#e8e8e8" stroke="black" stroke-width="0.7"/>
<text x="641.1" y="346.7" font-size="7.5" text-anchor="start" transform="rotate(-90 641.1 346.7)">50.5</text>
<rect x="646.5" y="317.2" width="12.5" height="48.8" fill="#7f7f7f" stroke="black" stroke-width="0.7"/>
<text x="655.3" y="313.2" font-size="7.5" text-anchor="start" transform="rotate(-90 655.3 313.2)">161</text>
<text x="632.3" y="382" font-size="11" text-anchor="middle">dmb_ish</text>
<rect x="680.6" y="140.2" width="12.5" height="225.8" fill="#ffffff" stroke="black" stroke-width="0.7"/>
<text x="689.4" y="136.2" font-size="7.5" text-anchor="start" transform="rotate(-90 689.4 136.2)">745</text>
<rect x="694.8" y="120.1" width="12.5" height="245.9" fill="#3f3f3f" stroke="black" stroke-width="0.7"/>
<text x="703.6" y="116.1" font-size="7.5" text-anchor="start" transform="rotate(-90 703.6 116.1)">812</text>
<rect x="709.0" y="350.7" width="12.5" height="15.3" fill="#e8e8e8" stroke="black" stroke-width="0.7"/>
<text x="717.7" y="346.7" font-size="7.5" text-anchor="start" transform="rotate(-90 717.7 346.7)">50.5</text>
<rect x="723.2" y="316.9" width="12.5" height="49.1" fill="#7f7f7f" stroke="black" stroke-width="0.7"/>
<text x="731.9" y="312.9" font-size="7.5" text-anchor="start" transform="rotate(-90 731.9 312.9)">162</text>
<text x="709.0" y="382" font-size="11" text-anchor="middle">dmb_sy</text>
<rect x="757.3" y="140.2" width="12.5" height="225.8" fill="#ffffff" stroke="black" stroke-width="0.7"/>
<text x="766.0" y="136.2" font-size="7.5" text-anchor="start" transform="rotate(-90 766.0 136.2)">745</text>
<rect x="771.5" y="120.1" width="12.5" height="245.9" fill="#3f3f3f" stroke="black" stroke-width="0.7"/>
<text x="780.2" y="116.1" font-size="7.5" text-anchor="start" transform="rotate(-90 780.2 116.1)">812</text>
<rect x="785.7" y="350.7" width="12.5" height="15.3" fill="#e8e8e8" stroke="black" stroke-width="0.7"/>
<text x="794.4" y="346.7" font-size="7.5" text-anchor="start" transform="rotate(-90 794.4 346.7)">50.5</text>
<rect x="799.9" y="316.9" width="12.5" height="49.1" fill="#7f7f7f" stroke="black" stroke-width="0.7"/>
<text x="808.6" y="312.9" font-size="7.5" text-anchor="start" transform="rotate(-90 808.6 312.9)">162</text>
<text x="785.7" y="382" font-size="11" text-anchor="middle">dmb_ishld</text>
<rect x="834.0" y="140.2" width="12.5" height="225.8" fill="#ffffff" stroke="black" stroke-width="0.7"/>
<text x="842.7" y="136.2" font-size="7.5" text-anchor="start" transform="rotate(-90 842.7 136.2)">745</text>
<rect x="848.1" y="120.1" width="12.5" height="245.9" fill="#3f3f3f" stroke="black" stroke-width="0.7"/>
<text x="856.9" y="116.1" font-size="7.5" text-anchor="start" transform="rotate(-90 856.9 116.1)">812</text>
<rect x="862.3" y="350.7" width="12.5" height="15.3" fill="#e8e8e8" stroke="black" stroke-width="0.7"/>
<text x="871.1" y="346.7" font-size="7.5" text-anchor="start" transform="rotate(-90 871.1 346.7)">50.5</text>
<rect x="876.5" y="316.9" width="12.5" height="49.1" fill="#7f7f7f" stroke="black" stroke-width="0.7"/>
<text x="885.3" y="312.9" font-size="7.5" text-anchor="start" transform="rotate(-90 885.3 312.9)">162</text>
<text x="862.3" y="382" font-size="11" text-anchor="middle">dmb_ld</text>
<rect x="910.6" y="140.2" width="12.5" height="225.8" fill="#ffffff" stroke="black" stroke-width="0.7"/>
<text x="919.4" y="136.2" font-size="7.5" text-anchor="start" transform="rotate(-90 919.4 136.2)">745</text>
<rect x="924.8" y="139.8" width="12.5" height="226.2" fill="#3f3f3f" stroke="black" stroke-width="0.7"/>
<text x="933.6" y="135.8" font-size="7.5" text-anchor="start" transform="rotate(-90 933.6 135.8)">747</text>
<rect x="939.0" y="350.7" width="12.5" height="15.3" fill="#e8e8e8" stroke="black" stroke-width="0.7"/>
<text x="947.7" y="346.7" font-size="7.5" text-anchor="start" transform="rotate(-90 947.7 346.7)">50.5</text>
<rect x="953.2" y="350.8" width="12.5" height="15.2" fill="#7f7f7f" stroke="black" stroke-width="0.7"/>
<text x="961.9" y="346.8" font-size="7.5" text-anchor="start" transform="rotate(-90 961.9 346.8)">50.0</text>
<text x="939.0" y="382" font-size="11" text-anchor="middle">ldar</text>
<rect x="987.3" y="140.2" width="12.5" height="225.8" fill="#ffffff" stroke="black" stroke-width="0.7"/>
<text x="996.0" y="136.2" font-size="7.5" text-anchor="start" transform="rotate(-90 996.0 136.2)">745</text>
<rect x="1001.5" y="139.8" width="12.5" height="226.2" fill="#3f3f3f" stroke="black" stroke-width="0.7"/>
<text x="1010.2" y="135.8" font-size="7.5" text-anchor="start" transform="rotate(-90 1010.2 135.8)">747</text>
<rect x="1015.7" y="350.7" width="12.5" height="15.3" fill="#e8e8e8" stroke="black" stroke-width="0.7"/>
<text x="1024.4" y="346.7" font-size="7.5" text-anchor="start" transform="rotate(-90 1024.4 346.7)">50.5</text>
<rect x="1029.9" y="350.9" width="12.5" height="15.1" fill="#7f7f7f" stroke="black" stroke-width="0.7"/>
<text x="1038.6" y="346.9" font-size="7.5" text-anchor="start" transform="rotate(-90 1038.6 346.9)">49.9</text>
<text x="1015.7" y="382" font-size="11" text-anchor="middle">ldapr</text>
</svg>