<svg xmlns="http://www.w3.org/2000/svg" width="1072" height="420" viewBox="0 0 1072 420" font-family="sans-serif">
<rect width="1072" height="420" fill="white"/>
<text x="536" y="20" text-anchor="middle" font-size="15" font-weight="bold">ldapr  (hit)</text>
<rect x="371" y="32" width="12" height="12" fill="#ffffff" stroke="black" stroke-width="0.8"/>
<text x="387" y="42" font-size="11">Baseline</text>
<rect x="491" y="32" width="12" height="12" fill="#9e9e9e" stroke="black" stroke-width="0.8"/>
<text x="507" y="42" font-size="11">After group</text>
<rect x="611" y="32" width="12" height="12" fill="#3f3f3f" stroke="black" stroke-width="0.8"/>
<text x="627" y="42" font-size="11">After every</text>
<line x1="58" y1="60" x2="58" y2="366" stroke="black" stroke-width="1.4"/>
<line x1="58" y1="366" x2="518" y2="366" stroke="black" stroke-width="1.4"/>
<text x="15" y="216" font-size="12" text-anchor="middle" transform="rotate(-90 15 216)">Cycles</text>
<text x="288" y="408" font-size="12" text-anchor="middle">Number of Inst. (N)</text>
<rect x="66.5" y="361.0" width="14.3" height="5.0" fill="#ffffff" stroke="black" stroke-width="0.7"/>
<text x="76.2" y="357.0" font-size="7.5" text-anchor="start" transform="rotate(-90 76.2 357.0)">3.3</text>
<rect x="82.8" y="361.1" width="14.3" height="4.9" fill="#9e9e9e" stroke="black" stroke-width="0.7"/>
<text x="92.4" y="357.1" font-size="7.5" text-anchor="start" transform="rotate(-90 92.4 357.1)">3.3</text>
<rect x="99.0" y="361.2" width="14.3" height="4.8" fill="#3f3f3f" stroke="black" stroke-width="0.7"/>
<text x="108.6" y="357.2" font-size="7.5" text-anchor="start" transform="rotate(-90 108.6 357.2)">3.2</text>
<text x="90.9" y="382" font-size="11" text-anchor="middle">1</text>
<rect x="132.3" y="357.9" width="14.3" height="8.1" fill="#ffffff" stroke="black" stroke-width="0.7"/>
<text x="141.9" y="353.9" font-size="7.5" text-anchor="start" transform="rotate(-90 141.9 353.9)">5.4</text>
<rect x="148.5" y="357.9" width="14.3" height="8.1" fill="#9e9e9e" stroke="black" stroke-width="0.7"/>
<text x="158.1" y="353.9" font-size="7.5" text-anchor="start" transform="rotate(-90 158.1 353.9)">5.4</text>
<rect x="164.7" y="358.1" width="14.3" height="7.9" fill="#3f3f3f" stroke="black" stroke-width="0.7"/>
<text x="174.3" y="354.1" font-size="7.5" text-anchor="start" transform="rotate(-90 174.3 354.1)">5.3</text>
<text x="156.6" y="382" font-size="11" text-anchor="middle">2</text>
<rect x="198.0" y="351.1" width="14.3" height="14.9" fill="#ffffff" stroke="black" stroke-width="0.7"/>
<text x="207.6" y="347.1" font-size="7.5" text-anchor="start" transform="rotate(-90 207.6 347.1)">9.9</text>
<rect x="214.2" y="351.1" width="14.3" height="14.9" fill="#9e9e9e" stroke="black" stroke-width="0.7"/>
<text x="223.8" y="347.1" font-size="7.5" text-anchor="start" transform="rotate(-90 223.8 347.1)">9.8</text>
<rect x="230.4" y="351.2" width="14.3" height="14.8" fill="#3f3f3f" stroke="black" stroke-width="0.7"/>
<text x="240.0" y="347.2" font-size="7.5" text-anchor="start" transform="rotate(-90 240.0 347.2)">9.8</text>
<text x="222.3" y="382" font-size="11" text-anchor="middle">4</text>
<rect x="263.7" y="336.5" width="14.3" height="29.5" fill="#ffffff" stroke="black" stroke-width="0.7"/>
<text x="273.3" y="332.5" font-size="7.5" text-anchor="start" transform="rotate(-90 273.3 332.5)">19.5</text>
<rect x="279.9" y="337.6" width="14.3" height="28.4" fill="#9e9e9e" stroke="black" stroke-width="0.7"/>
<text x="289.5" y="333.6" font-size="7.5" text-anchor="start" transform="rotate(-90 289.5 333.6)">18.8</text>
<rect x="296.1" y="337.0" width="14.3" height="29.0" fill="#3f3f3f" stroke="black" stroke-width="0.7"/>
<text x="305.7" y="333.0" font-size="7.5" text-anchor="start" transform="rotate(-90 305.7 333.0)">19.2</text>
<text x="288.0" y="382" font-size="11" text-anchor="middle">8</text>
<rect x="329.4" y="306.4" width="14.3" height="59.6" fill="#ffffff" stroke="black" stroke-width="0.7"/>
<text x="339.0" y="302.4" font-size="7.5" text-anchor="start" transform="rotate(-90 339.0 302.4)">39.5</text>
<rect x="345.6" y="306.6" width="14.3" height="59.4" fill="#9e9e9e" stroke="black" stroke-width="0.7"/>
<text x="355.2" y="302.6" font-size="7.5" text-anchor="start" transform="rotate(-90 355.2 302.6)">39.4</text>
<rect x="361.8" y="306.0" width="14.3" height="60.0" fill="#3f3f3f" stroke="black" stroke-width="0.7"/>
<text x="371.5" y="302.0" font-size="7.5" text-anchor="start" transform="rotate(-90 371.5 302.0)">39.8</text>
<text x="353.7" y="382" font-size="11" text-anchor="middle">16</text>
<rect x="395.1" y="245.4" width="14.3" height="120.6" fill="#ffffff" stroke="black" stroke-width="0.7"/>
<text x="404.7" y="241.4" font-size="7.5" text-anchor="start" transform="rotate(-90 404.7 241.4)">79.9</text>
<rect x="411.3" y="246.5" width="14.3" height="119.5" fill="#9e9e9e" stroke="black" stroke-width="0.7"/>
<text x="421.0" y="242.5" font-size="7.5" text-anchor="start" transform="rotate(-90 421.0 242.5)">79.1</text>
<rect x="427.5" y="247.1" width="14.3" height="118.9" fill="#3f3f3f" stroke="black" stroke-width="0.7"/>
<text x="437.2" y="243.1" font-size="7.5" text-anchor="start" transform="rotate(-90 437.2 243.1)">78.8</text>
<text x="419.4" y="382" font-size="11" text-anchor="middle">32</text>
<rect x="460.8" y="120.1" width="14.3" height="245.9" fill="#ffffff" stroke="black" stroke-width="0.7"/>
<text x="470.5" y="116.1" font-size="7.5" text-anchor="start" transform="rotate(-90 470.5 116.1)">163</text>
<rect x="477.0" y="120.1" width="14.3" height="245.9" fill="#9e9e9e" stroke="black" stroke-width="0.7"/>
<text x="486.7" y="116.1" font-size="7.5" text-anchor="start" transform="rotate(-90 486.7 116.1)">163</text>
<rect x="493.2" y="123.2" width="14.3" height="242.8" fill="#3f3f3f" stroke="black" stroke-width="0.7"/>
<text x="502.9" y="119.2" font-size="7.5" text-anchor="start" transform="rotate(-90 502.9 119.2)">161</text>
<text x="485.1" y="382" font-size="11" text-anchor="middle">64</text>
<line x1="594" y1="60" x2="594" y2="366" stroke="black" stroke-width="1.4"/>
<line x1="594" y1="366" x2="1054" y2="366" stroke="black" stroke-width="1.4"/>
<text x="551" y="216" font-size="12" text-anchor="middle" transform="rotate(-90 551 216)">Wall-time (ns)</text>
<text x="824" y="408" font-size="12" text-anchor="middle">Number of Inst. (N)</text>
<rect x="602.5" y="361.0" width="14.3" height="5.0" fill="#ffffff" stroke="black" stroke-width="0.7"/>
<text x="612.2" y="357.0" font-size="7.5" text-anchor="start" transform="rotate(-90 612.2 357.0)">1.0</text>
<rect x="618.8" y="361.0" width="14.3" height="5.0" fill="#9e9e9e" stroke="black" stroke-width="0.7"/>
<text x="628.4" y="357.0" font-size="7.5" text-anchor="start" transform="rotate(-90 628.4 357.0)">1.0</text>
<rect x="635.0" y="361.1" width="14.3" height="4.9" fill="#3f3f3f" stroke="black" stroke-width="0.7"/>
<text x="644.6" y="357.1" font-size="7.5" text-anchor="start" transform="rotate(-90 644.6 357.1)">1.0</text>
<text x="626.9" y="382" font-size="11" text-anchor="middle">1</text>
<rect x="668.3" y="357.8" width="14.3" height="8.2" fill="#ffffff" stroke="black" stroke-width="0.7"/>
<text x="677.9" y="353.8" font-size="7.5" text-anchor="start" transform="rotate(-90 677.9 353.8)">1.7</text>
<rect x="684.5" y="357.8" width="14.3" height="8.2" fill="#9e9e9e" stroke="black" stroke-width="0.7"/>
<text x="694.1" y="353.8" font-size="7.5" text-anchor="start" transform="rotate(-90 694.1 353.8)">1.7</text>
<rect x="700.7" y="358.0" width="14.3" height="8.0" fill="#3f3f3f" stroke="black" stroke-width="0.7"/>
<text x="710.3" y="354.0" font-size="7.5" text-anchor="start" transform="rotate(-90 710.3 354.0)">1.6</text>
<text x="692.6" y="382" font-size="11" text-anchor="middle">2</text>
<rect x="734.0" y="351.0" width="14.3" height="15.0" fill="#ffffff" stroke="black" stroke-width="0.7"/>
<text x="743.6" y="347.0" font-size="7.5" text-anchor="start" transform="rotate(-90 743.6 347.0)">3.1</text>
<rect x="750.2" y="351.1" width="14.3" height="14.9" fill="#9e9e9e" stroke="black" stroke-width="0.7"/>
<text x="759.8" y="347.1" font-size="7.5" text-anchor="start" transform="rotate(-90 759.8 347.1)">3.1</text>
<rect x="766.4" y="351.1" width="14.3" height="14.9" fill="#3f3f3f" stroke="black" stroke-width="0.7"/>
<text x="776.0" y="347.1" font-size="7.5" text-anchor="start" transform="rotate(-90 776.0 347.1)">3.1</text>
<text x="758.3" y="382" font-size="11" text-anchor="middle">4</text>
<rect x="799.7" y="336.4" width="14.3" height="29.6" fill="#ffffff" stroke="black" stroke-width="0.7"/>
<text x="809.3" y="332.4" font-size="7.5" text-anchor="start" transform="rotate(-90 809.3 332.4)">6.1</text>
<rect x="815.9" y="337.5" width="14.3" height="28.5" fill="#9e9e9e" stroke="black" stroke-width="0.7"/>
<text x="825.5" y="333.5" font-size="7.5" text-anchor="start" transform="rotate(-90 825.5 333.5)">5.9</text>
<rect x="832.1" y="336.8" width="14.3" height="29.2" fill="#3f3f3f" stroke="black" stroke-width="0.7"/>
<text x="841.7" y="332.8" font-size="7.5" text-anchor="start" transform="rotate(-90 841.7 332.8)">6.0</text>
<text x="824.0" y="382" font-size="11" text-anchor="middle">8</text>
<rect x="865.4" y="306.3" width="14.3" height="59.7" fill="#ffffff" stroke="black" stroke-width="0.7"/>
<text x="875.0" y="302.3" font-size="7.5" text-anchor="start" transform="rotate(-90 875.0 302.3)">12.3</text>
<rect x="881.6" y="306.5" width="14.3" height="59.5" fill="#9e9e9e" stroke="black" stroke-width="0.7"/>
<text x="891.2" y="302.5" font-size="7.5" text-anchor="start" transform="rotate(-90 891.2 302.5)">12.2</text>
<rect x="897.8" y="305.9" width="14.3" height="60.1" fill="#3f3f3f" stroke="black" stroke-width="0.7"/>
<text x="907.5" y="301.9" font-size="7.5" text-anchor="start" transform="rotate(-90 907.5 301.9)">12.4</text>
<text x="889.7" y="382" font-size="11" text-anchor="middle">16</text>
<rect x="931.1" y="245.2" width="14.3" height="120.8" fill="#ffffff" stroke="black" stroke-width="0.7"/>
<text x="940.7" y="241.2" font-size="7.5" text-anchor="start" transform="rotate(-90 940.7 241.2)">24.8</text>
<rect x="947.3" y="246.4" width="14.3" height="119.6" fill="#9e9e9e" stroke="black" stroke-width="0.7"/>
<text x="957.0" y="242.4" font-size="7.5" text-anchor="start" transform="rotate(-90 957.0 242.4)">24.6</text>
<rect x="963.5" y="247.0" width="14.3" height="119.0" fill="#3f3f3f" stroke="black" stroke-width="0.7"/>
<text x="973.2" y="243.0" font-size="7.5" text-anchor="start" transform="rotate(-90 973.2 243.0)">24.4</text>
<text x="955.4" y="382" font-size="11" text-anchor="middle">32</text>
<rect x="996.8" y="120.2" width="14.3" height="245.8" fill="#ffffff" stroke="black" stroke-width="0.7"/>
<text x="1006.5" y="116.2" font-size="7.5" text-anchor="start" transform="rotate(-90 1006.5 116.2)">50.5</text>
<rect x="1013.0" y="120.1" width="14.3" height="245.9" fill="#9e9e9e" stroke="black" stroke-width="0.7"/>
<text x="1022.7" y="116.1" font-size="7.5" text-anchor="start" transform="rotate(-90 1022.7 116.1)">50.5</text>
<rect x="1029.2" y="123.3" width="14.3" height="242.7" fill="#3f3f3f" stroke="black" stroke-width="0.7"/>
<text x="1038.9" y="119.3" font-size="7.5" text-anchor="start" transform="rotate(-90 1038.9 119.3)">49.9</text>
<text x="1021.1" y="382" font-size="11" text-anchor="middle">64</text>
</svg>