<svg xmlns="http://www.w3.org/2000/svg" width="1072" height="420" viewBox="0 0 1072 420" font-family="sans-serif">
<rect width="1072" height="420" fill="white"/>
<text x="536" y="20" text-anchor="middle" font-size="15" font-weight="bold">ldar  (miss)</text>
<rect x="371" y="32" width="12" height="12" fill="#ffffff" stroke="black" stroke-width="0.8"/>
<text x="387" y="42" font-size="11">Baseline</text>
<rect x="491" y="32" width="12" height="12" fill="#9e9e9e" stroke="black" stroke-width="0.8"/>
<text x="507" y="42" font-size="11">After group</text>
<rect x="611" y="32" width="12" height="12" fill="#3f3f3f" stroke="black" stroke-width="0.8"/>
<text x="627" y="42" font-size="11">After every</text>
<line x1="58" y1="60" x2="58" y2="366" stroke="black" stroke-width="1.4"/>
<line x1="58" y1="366" x2="518" y2="366" stroke="black" stroke-width="1.4"/>
<text x="15" y="216" font-size="12" text-anchor="middle" transform="rotate(-90 15 216)">Cycles</text>
<text x="288" y="408" font-size="12" text-anchor="middle">Number of Inst. (N)</text>
<rect x="66.5" y="361.5" width="14.3" height="4.5" fill="#ffffff" stroke="black" stroke-width="0.7"/>
<text x="76.2" y="357.5" font-size="7.5" text-anchor="start" transform="rotate(-90 76.2 357.5)">44.1</text>
<rect x="82.8" y="361.6" width="14.3" height="4.4" fill="#9e9e9e" stroke="black" stroke-width="0.7"/>
<text x="92.4" y="357.6" font-size="7.5" text-anchor="start" transform="rotate(-90 92.4 357.6)">42.9</text>
<rect x="99.0" y="361.5" width="14.3" height="4.5" fill="#3f3f3f" stroke="black" stroke-width="0.7"/>
<text x="108.6" y="357.5" font-size="7.5" text-anchor="start" transform="rotate(-90 108.6 357.5)">44.0</text>
<text x="90.9" y="382" font-size="11" text-anchor="middle">1</text>
<rect x="132.3" y="357.6" width="14.3" height="8.4" fill="#ffffff" stroke="black" stroke-width="0.7"/>
<text x="141.9" y="353.6" font-size="7.5" text-anchor="start" transform="rotate(-90 141.9 353.6)">82.3</text>
<rect x="148.5" y="357.4" width="14.3" height="8.6" fill="#9e9e9e" stroke="black" stroke-width="0.7"/>
<text x="158.1" y="353.4" font-size="7.5" text-anchor="start" transform="rotate(-90 158.1 353.4)">84.1</text>
<rect x="164.7" y="357.5" width="14.3" height="8.5" fill="#3f3f3f" stroke="black" stroke-width="0.7"/>
<text x="174.3" y="353.5" font-size="7.5" text-anchor="start" transform="rotate(-90 174.3 353.5)">83.0</text>
<text x="156.6" y="382" font-size="11" text-anchor="middle">2</text>
<rect x="198.0" y="349.1" width="14.3" height="16.9" fill="#ffffff" stroke="black" stroke-width="0.7"/>
<text x="207.6" y="345.1" font-size="7.5" text-anchor="start" transform="rotate(-90 207.6 345.1)">165</text>
<rect x="214.2" y="349.1" width="14.3" height="16.9" fill="#9e9e9e" stroke="black" stroke-width="0.7"/>
<text x="223.8" y="345.1" font-size="7.5" text-anchor="start" transform="rotate(-90 223.8 345.1)">165</text>
<rect x="230.4" y="349.1" width="14.3" height="16.9" fill="#3f3f3f" stroke="black" stroke-width="0.7"/>
<text x="240.0" y="345.1" font-size="7.5" text-anchor="start" transform="rotate(-90 240.0 345.1)">165</text>
<text x="222.3" y="382" font-size="11" text-anchor="middle">4</text>
<rect x="263.7" y="334.2" width="14.3" height="31.8" fill="#ffffff" stroke="black" stroke-width="0.7"/>
<text x="273.3" y="330.2" font-size="7.5" text-anchor="start" transform="rotate(-90 273.3 330.2)">311</text>
<rect x="279.9" y="334.1" width="14.3" height="31.9" fill="#9e9e9e" stroke="black" stroke-width="0.7"/>
<text x="289.5" y="330.1" font-size="7.5" text-anchor="start" transform="rotate(-90 289.5 330.1)">312</text>
<rect x="296.1" y="334.2" width="14.3" height="31.8" fill="#3f3f3f" stroke="black" stroke-width="0.7"/>
<text x="305.7" y="330.2" font-size="7.5" text-anchor="start" transform="rotate(-90 305.7 330.2)">311</text>
<text x="288.0" y="382" font-size="11" text-anchor="middle">8</text>
<rect x="329.4" y="303.8" width="14.3" height="62.2" fill="#ffffff" stroke="black" stroke-width="0.7"/>
<text x="339.0" y="299.8" font-size="7.5" text-anchor="start" transform="rotate(-90 339.0 299.8)">607</text>
<rect x="345.6" y="303.8" width="14.3" height="62.2" fill="#9e9e9e" stroke="black" stroke-width="0.7"/>
<text x="355.2" y="299.8" font-size="7.5" text-anchor="start" transform="rotate(-90 355.2 299.8)">608</text>
<rect x="361.8" y="303.7" width="14.3" height="62.3" fill="#3f3f3f" stroke="black" stroke-width="0.7"/>
<text x="371.5" y="299.7" font-size="7.5" text-anchor="start" transform="rotate(-90 371.5 299.7)">608</text>
<text x="353.7" y="382" font-size="11" text-anchor="middle">16</text>
<rect x="395.1" y="242.9" width="14.3" height="123.1" fill="#ffffff" stroke="black" stroke-width="0.7"/>
<text x="404.7" y="238.9" font-size="7.5" text-anchor="start" transform="rotate(-90 404.7 238.9)">1203</text>
<rect x="411.3" y="242.9" width="14.3" height="123.1" fill="#9e9e9e" stroke="black" stroke-width="0.7"/>
<text x="421.0" y="238.9" font-size="7.5" text-anchor="start" transform="rotate(-90 421.0 238.9)">1203</text>
<rect x="427.5" y="242.6" width="14.3" height="123.4" fill="#3f3f3f" stroke="black" stroke-width="0.7"/>
<text x="437.2" y="238.6" font-size="7.5" text-anchor="start" transform="rotate(-90 437.2 238.6)">1206</text>
<text x="419.4" y="382" font-size="11" text-anchor="middle">32</text>
<rect x="460.8" y="120.5" width="14.3" height="245.5" fill="#ffffff" stroke="black" stroke-width="0.7"/>
<text x="470.5" y="116.5" font-size="7.5" text-anchor="start" transform="rotate(-90 470.5 116.5)">2398</text>
<rect x="477.0" y="120.5" width="14.3" height="245.5" fill="#9e9e9e" stroke="black" stroke-width="0.7"/>
<text x="486.7" y="116.5" font-size="7.5" text-anchor="start" transform="rotate(-90 486.7 116.5)">2399</text>
<rect x="493.2" y="120.1" width="14.3" height="245.9" fill="#3f3f3f" stroke="black" stroke-width="0.7"/>
<text x="502.9" y="116.1" font-size="7.5" text-anchor="start" transform="rotate(-90 502.9 116.1)">2403</text>
<text x="485.1" y="382" font-size="11" text-anchor="middle">64</text>
<line x1="594" y1="60" x2="594" y2="366" stroke="black" stroke-width="1.4"/>
<line x1="594" y1="366" x2="1054" y2="366" stroke="black" stroke-width="1.4"/>
<text x="551" y="216" font-size="12" text-anchor="middle" transform="rotate(-90 551 216)">Wall-time (ns)</text>
<text x="824" y="408" font-size="12" text-anchor="middle">Number of Inst. (N)</text>
<rect x="602.5" y="361.5" width="14.3" height="4.5" fill="#ffffff" stroke="black" stroke-width="0.7"/>
<text x="612.2" y="357.5" font-size="7.5" text-anchor="start" transform="rotate(-90 612.2 357.5)">13.7</text>
<rect x="618.8" y="361.6" width="14.3" height="4.4" fill="#9e9e9e" stroke="black" stroke-width="0.7"/>
<text x="628.4" y="357.6" font-size="7.5" text-anchor="start" transform="rotate(-90 628.4 357.6)">13.4</text>
<rect x="635.0" y="361.5" width="14.3" height="4.5" fill="#3f3f3f" stroke="black" stroke-width="0.7"/>
<text x="644.6" y="357.5" font-size="7.5" text-anchor="start" transform="rotate(-90 644.6 357.5)">13.7</text>
<text x="626.9" y="382" font-size="11" text-anchor="middle">1</text>
<rect x="668.3" y="357.6" width="14.3" height="8.4" fill="#ffffff" stroke="black" stroke-width="0.7"/>
<text x="677.9" y="353.6" font-size="7.5" text-anchor="start" transform="rotate(-90 677.9 353.6)">25.6</text>
<rect x="684.5" y="357.4" width="14.3" height="8.6" fill="#9e9e9e" stroke="black" stroke-width="0.7"/>
<text x="694.1" y="353.4" font-size="7.5" text-anchor="start" transform="rotate(-90 694.1 353.4)">26.2</text>
<rect x="700.7" y="357.5" width="14.3" height="8.5" fill="#3f3f3f" stroke="black" stroke-width="0.7"/>
<text x="710.3" y="353.5" font-size="7.5" text-anchor="start" transform="rotate(-90 710.3 353.5)">25.9</text>
<text x="692.6" y="382" font-size="11" text-anchor="middle">2</text>
<rect x="734.0" y="349.1" width="14.3" height="16.9" fill="#ffffff" stroke="black" stroke-width="0.7"/>
<text x="743.6" y="345.1" font-size="7.5" text-anchor="start" transform="rotate(-90 743.6 345.1)">51.4</text>
<rect x="750.2" y="349.0" width="14.3" height="17.0" fill="#9e9e9e" stroke="black" stroke-width="0.7"/>
<text x="759.8" y="345.0" font-size="7.5" text-anchor="start" transform="rotate(-90 759.8 345.0)">51.5</text>
<rect x="766.4" y="349.1" width="14.3" height="16.9" fill="#3f3f3f" stroke="black" stroke-width="0.7"/>
<text x="776.0" y="345.1" font-size="7.5" text-anchor="start" transform="rotate(-90 776.0 345.1)">51.4</text>
<text x="758.3" y="382" font-size="11" text-anchor="middle">4</text>
<rect x="799.7" y="334.2" width="14.3" height="31.8" fill="#ffffff" stroke="black" stroke-width="0.7"/>
<text x="809.3" y="330.2" font-size="7.5" text-anchor="start" transform="rotate(-90 809.3 330.2)">96.6</text>
<rect x="815.9" y="334.1" width="14.3" height="31.9" fill="#9e9e9e" stroke="black" stroke-width="0.7"/>
<text x="825.5" y="330.1" font-size="7.5" text-anchor="start" transform="rotate(-90 825.5 330.1)">97.0</text>
<rect x="832.1" y="334.2" width="14.3" height="31.8" fill="#3f3f3f" stroke="black" stroke-width="0.7"/>
<text x="841.7" y="330.2" font-size="7.5" text-anchor="start" transform="rotate(-90 841.7 330.2)">96.7</text>
<text x="824.0" y="382" font-size="11" text-anchor="middle">8</text>
<rect x="865.4" y="303.8" width="14.3" height="62.2" fill="#ffffff" stroke="black" stroke-width="0.7"/>
<text x="875.0" y="299.8" font-size="7.5" text-anchor="start" transform="rotate(-90 875.0 299.8)">189</text>
<rect x="881.6" y="303.8" width="14.3" height="62.2" fill="#9e9e9e" stroke="black" stroke-width="0.7"/>
<text x="891.2" y="299.8" font-size="7.5" text-anchor="start" transform="rotate(-90 891.2 299.8)">189</text>
<rect x="897.8" y="303.7" width="14.3" height="62.3" fill="#3f3f3f" stroke="black" stroke-width="0.7"/>
<text x="907.5" y="299.7" font-size="7.5" text-anchor="start" transform="rotate(-90 907.5 299.7)">189</text>
<text x="889.7" y="382" font-size="11" text-anchor="middle">16</text>
<rect x="931.1" y="242.8" width="14.3" height="123.2" fill="#ffffff" stroke="black" stroke-width="0.7"/>
<text x="940.7" y="238.8" font-size="7.5" text-anchor="start" transform="rotate(-90 940.7 238.8)">374</text>
<rect x="947.3" y="242.9" width="14.3" height="123.1" fill="#9e9e9e" stroke="black" stroke-width="0.7"/>
<text x="957.0" y="238.9" font-size="7.5" text-anchor="start" transform="rotate(-90 957.0 238.9)">374</text>
<rect x="963.5" y="242.6" width="14.3" height="123.4" fill="#3f3f3f" stroke="black" stroke-width="0.7"/>
<text x="973.2" y="238.6" font-size="7.5" text-anchor="start" transform="rotate(-90 973.2 238.6)">375</text>
<text x="955.4" y="382" font-size="11" text-anchor="middle">32</text>
<rect x="996.8" y="120.6" width="14.3" height="245.4" fill="#ffffff" stroke="black" stroke-width="0.7"/>
<text x="1006.5" y="116.6" font-size="7.5" text-anchor="start" transform="rotate(-90 1006.5 116.6)">745</text>
<rect x="1013.0" y="120.5" width="14.3" height="245.5" fill="#9e9e9e" stroke="black" stroke-width="0.7"/>
<text x="1022.7" y="116.5" font-size="7.5" text-anchor="start" transform="rotate(-90 1022.7 116.5)">746</text>
<rect x="1029.2" y="120.1" width="14.3" height="245.9" fill="#3f3f3f" stroke="black" stroke-width="0.7"/>
<text x="1038.9" y="116.1" font-size="7.5" text-anchor="start" transform="rotate(-90 1038.9 116.1)">747</text>
<text x="1021.1" y="382" font-size="11" text-anchor="middle">64</text>
</svg>