<svg xmlns="http://www.w3.org/2000/svg" width="1072" height="420" viewBox="0 0 1072 420" font-family="sans-serif">
<rect width="1072" height="420" fill="white"/>
<text x="536" y="20" text-anchor="middle" font-size="15" font-weight="bold">Var1 (Fig 4a) — str vs stlr, by N</text>
<rect x="371" y="32" width="12" height="12" fill="#ffffff" stroke="black" stroke-width="0.8"/>
<text x="387" y="42" font-size="11">str (baseline)</text>
<rect x="491" y="32" width="12" height="12" fill="#3f3f3f" stroke="black" stroke-width="0.8"/>
<text x="507" y="42" font-size="11">stlr (release)</text>
<line x1="58" y1="60" x2="58" y2="366" stroke="black" stroke-width="1.4"/>
<line x1="58" y1="366" x2="518" y2="366" stroke="black" stroke-width="1.4"/>
<text x="15" y="216" font-size="12" text-anchor="middle" transform="rotate(-90 15 216)">cycles / iteration</text>
<text x="288" y="408" font-size="12" text-anchor="middle">N  (stores per iteration; 1 MISS + rel + HIT×(N−2))</text>
<rect x="66.5" y="356.5" width="21.4" height="9.5" fill="#ffffff" stroke="black" stroke-width="0.7"/>
<text x="79.7" y="352.5" font-size="7.5" text-anchor="start" transform="rotate(-90 79.7 352.5)">12.8</text>
<rect x="90.9" y="356.5" width="21.4" height="9.5" fill="#3f3f3f" stroke="black" stroke-width="0.7"/>
<text x="104.1" y="352.5" font-size="7.5" text-anchor="start" transform="rotate(-90 104.1 352.5)">12.8</text>
<text x="90.9" y="382" font-size="11" text-anchor="middle">1</text>
<rect x="132.3" y="352.2" width="21.4" height="13.8" fill="#ffffff" stroke="black" stroke-width="0.7"/>
<text x="145.5" y="348.2" font-size="7.5" text-anchor="start" transform="rotate(-90 145.5 348.2)">18.5</text>
<rect x="156.6" y="337.7" width="21.4" height="28.3" fill="#3f3f3f" stroke="black" stroke-width="0.7"/>
<text x="169.8" y="333.7" font-size="7.5" text-anchor="start" transform="rotate(-90 169.8 333.7)">38.1</text>
<text x="156.6" y="382" font-size="11" text-anchor="middle">2</text>
<rect x="198.0" y="345.7" width="21.4" height="20.3" fill="#ffffff" stroke="black" stroke-width="0.7"/>
<text x="211.2" y="341.7" font-size="7.5" text-anchor="start" transform="rotate(-90 211.2 341.7)">27.3</text>
<rect x="222.3" y="322.1" width="21.4" height="43.9" fill="#3f3f3f" stroke="black" stroke-width="0.7"/>
<text x="235.5" y="318.1" font-size="7.5" text-anchor="start" transform="rotate(-90 235.5 318.1)">59.0</text>
<text x="222.3" y="382" font-size="11" text-anchor="middle">4</text>
<rect x="263.7" y="337.4" width="21.4" height="28.6" fill="#ffffff" stroke="black" stroke-width="0.7"/>
<text x="276.9" y="333.4" font-size="7.5" text-anchor="start" transform="rotate(-90 276.9 333.4)">38.4</text>
<rect x="288.0" y="276.4" width="21.4" height="89.6" fill="#3f3f3f" stroke="black" stroke-width="0.7"/>
<text x="301.2" y="272.4" font-size="7.5" text-anchor="start" transform="rotate(-90 301.2 272.4)">120</text>
<text x="288.0" y="382" font-size="11" text-anchor="middle">8</text>
<rect x="329.4" y="328.5" width="21.4" height="37.5" fill="#ffffff" stroke="black" stroke-width="0.7"/>
<text x="342.6" y="324.5" font-size="7.5" text-anchor="start" transform="rotate(-90 342.6 324.5)">50.4</text>
<rect x="353.7" y="180.7" width="21.4" height="185.3" fill="#3f3f3f" stroke="black" stroke-width="0.7"/>
<text x="366.9" y="176.7" font-size="7.5" text-anchor="start" transform="rotate(-90 366.9 176.7)">249</text>
<text x="353.7" y="382" font-size="11" text-anchor="middle">16</text>
<rect x="395.1" y="314.1" width="21.4" height="51.9" fill="#ffffff" stroke="black" stroke-width="0.7"/>
<text x="408.3" y="310.1" font-size="7.5" text-anchor="start" transform="rotate(-90 408.3 310.1)">69.7</text>
<rect x="419.4" y="186.9" width="21.4" height="179.1" fill="#3f3f3f" stroke="black" stroke-width="0.7"/>
<text x="432.6" y="182.9" font-size="7.5" text-anchor="start" transform="rotate(-90 432.6 182.9)">241</text>
<text x="419.4" y="382" font-size="11" text-anchor="middle">32</text>
<rect x="460.8" y="266.9" width="21.4" height="99.1" fill="#ffffff" stroke="black" stroke-width="0.7"/>
<text x="474.0" y="262.9" font-size="7.5" text-anchor="start" transform="rotate(-90 474.0 262.9)">133</text>
<rect x="485.1" y="120.1" width="21.4" height="245.9" fill="#3f3f3f" stroke="black" stroke-width="0.7"/>
<text x="498.3" y="116.1" font-size="7.5" text-anchor="start" transform="rotate(-90 498.3 116.1)">330</text>
<text x="485.1" y="382" font-size="11" text-anchor="middle">64</text>
<line x1="594" y1="60" x2="594" y2="366" stroke="black" stroke-width="1.4"/>
<line x1="594" y1="366" x2="1054" y2="366" stroke="black" stroke-width="1.4"/>
<text x="551" y="216" font-size="12" text-anchor="middle" transform="rotate(-90 551 216)">wall-time / iteration (ns)</text>
<text x="824" y="408" font-size="12" text-anchor="middle">N  (stores per iteration; 1 MISS + rel + HIT×(N−2))</text>
<rect x="602.5" y="356.4" width="21.4" height="9.6" fill="#ffffff" stroke="black" stroke-width="0.7"/>
<text x="615.7" y="352.4" font-size="7.5" text-anchor="start" transform="rotate(-90 615.7 352.4)">4.0</text>
<rect x="626.9" y="356.4" width="21.4" height="9.6" fill="#3f3f3f" stroke="black" stroke-width="0.7"/>
<text x="640.1" y="352.4" font-size="7.5" text-anchor="start" transform="rotate(-90 640.1 352.4)">4.0</text>
<text x="626.9" y="382" font-size="11" text-anchor="middle">1</text>
<rect x="668.3" y="352.1" width="21.4" height="13.9" fill="#ffffff" stroke="black" stroke-width="0.7"/>
<text x="681.5" y="348.1" font-size="7.5" text-anchor="start" transform="rotate(-90 681.5 348.1)">5.8</text>
<rect x="692.6" y="337.6" width="21.4" height="28.4" fill="#3f3f3f" stroke="black" stroke-width="0.7"/>
<text x="705.8" y="333.6" font-size="7.5" text-anchor="start" transform="rotate(-90 705.8 333.6)">11.8</text>
<text x="692.6" y="382" font-size="11" text-anchor="middle">2</text>
<rect x="734.0" y="345.6" width="21.4" height="20.4" fill="#ffffff" stroke="black" stroke-width="0.7"/>
<text x="747.2" y="341.6" font-size="7.5" text-anchor="start" transform="rotate(-90 747.2 341.6)">8.5</text>
<rect x="758.3" y="322.0" width="21.4" height="44.0" fill="#3f3f3f" stroke="black" stroke-width="0.7"/>
<text x="771.5" y="318.0" font-size="7.5" text-anchor="start" transform="rotate(-90 771.5 318.0)">18.3</text>
<text x="758.3" y="382" font-size="11" text-anchor="middle">4</text>
<rect x="799.7" y="337.3" width="21.4" height="28.7" fill="#ffffff" stroke="black" stroke-width="0.7"/>
<text x="812.9" y="333.3" font-size="7.5" text-anchor="start" transform="rotate(-90 812.9 333.3)">12.0</text>
<rect x="824.0" y="276.2" width="21.4" height="89.8" fill="#3f3f3f" stroke="black" stroke-width="0.7"/>
<text x="837.2" y="272.2" font-size="7.5" text-anchor="start" transform="rotate(-90 837.2 272.2)">37.4</text>
<text x="824.0" y="382" font-size="11" text-anchor="middle">8</text>
<rect x="865.4" y="328.4" width="21.4" height="37.6" fill="#ffffff" stroke="black" stroke-width="0.7"/>
<text x="878.6" y="324.4" font-size="7.5" text-anchor="start" transform="rotate(-90 878.6 324.4)">15.7</text>
<rect x="889.7" y="180.6" width="21.4" height="185.4" fill="#3f3f3f" stroke="black" stroke-width="0.7"/>
<text x="902.9" y="176.6" font-size="7.5" text-anchor="start" transform="rotate(-90 902.9 176.6)">77.3</text>
<text x="889.7" y="382" font-size="11" text-anchor="middle">16</text>
<rect x="931.1" y="314.0" width="21.4" height="52.0" fill="#ffffff" stroke="black" stroke-width="0.7"/>
<text x="944.3" y="310.0" font-size="7.5" text-anchor="start" transform="rotate(-90 944.3 310.0)">21.7</text>
<rect x="955.4" y="186.9" width="21.4" height="179.1" fill="#3f3f3f" stroke="black" stroke-width="0.7"/>
<text x="968.6" y="182.9" font-size="7.5" text-anchor="start" transform="rotate(-90 968.6 182.9)">74.7</text>
<text x="955.4" y="382" font-size="11" text-anchor="middle">32</text>
<rect x="996.8" y="266.8" width="21.4" height="99.2" fill="#ffffff" stroke="black" stroke-width="0.7"/>
<text x="1010.0" y="262.8" font-size="7.5" text-anchor="start" transform="rotate(-90 1010.0 262.8)">41.4</text>
<rect x="1021.1" y="120.1" width="21.4" height="245.9" fill="#3f3f3f" stroke="black" stroke-width="0.7"/>
<text x="1034.3" y="116.1" font-size="7.5" text-anchor="start" transform="rotate(-90 1034.3 116.1)">103</text>
<text x="1021.1" y="382" font-size="11" text-anchor="middle">64</text>
</svg>