<svg xmlns="http://www.w3.org/2000/svg" width="1204" height="426" viewBox="0 0 1204 426" font-family="sans-serif">
<rect width="1204" height="426" fill="white"/>
<text x="602" y="22" text-anchor="middle" font-size="15" font-weight="bold">Var2 (Fig 4a) — str vs stlr vs x  (N=64, all 62 points)</text>
<line x1="462" y1="42" x2="488" y2="42" stroke="#999999" stroke-width="2.6" stroke-dasharray="6,3"/>
<text x="493" y="46" font-size="12">str (baseline)</text>
<line x1="612" y1="42" x2="638" y2="42" stroke="#000000" stroke-width="2.6"/>
<text x="643" y="46" font-size="12">stlr (release)</text>
<line x1="66" y1="66" x2="66" y2="372" stroke="black" stroke-width="1.3"/>
<line x1="66" y1="372" x2="586" y2="372" stroke="black" stroke-width="1.3"/>
<line x1="63" y1="372.0" x2="66" y2="372.0" stroke="black" stroke-width="0.8"/>
<text x="60" y="375.0" font-size="9" text-anchor="end">81</text>
<line x1="63" y1="297.0" x2="66" y2="297.0" stroke="black" stroke-width="0.8"/>
<text x="60" y="300.0" font-size="9" text-anchor="end">269</text>
<line x1="63" y1="222.0" x2="66" y2="222.0" stroke="black" stroke-width="0.8"/>
<text x="60" y="225.0" font-size="9" text-anchor="end">456</text>
<line x1="63" y1="147.0" x2="66" y2="147.0" stroke="black" stroke-width="0.8"/>
<text x="60" y="150.0" font-size="9" text-anchor="end">643</text>
<line x1="63" y1="72.0" x2="66" y2="72.0" stroke="black" stroke-width="0.8"/>
<text x="60" y="75.0" font-size="9" text-anchor="end">830</text>
<line x1="66.0" y1="372" x2="66.0" y2="375" stroke="black" stroke-width="0.8"/>
<text x="66.0" y="388" font-size="10" text-anchor="middle">1</text>
<line x1="193.9" y1="372" x2="193.9" y2="375" stroke="black" stroke-width="0.8"/>
<text x="193.9" y="388" font-size="10" text-anchor="middle">16</text>
<line x1="330.3" y1="372" x2="330.3" y2="375" stroke="black" stroke-width="0.8"/>
<text x="330.3" y="388" font-size="10" text-anchor="middle">32</text>
<line x1="466.7" y1="372" x2="466.7" y2="375" stroke="black" stroke-width="0.8"/>
<text x="466.7" y="388" font-size="10" text-anchor="middle">48</text>
<line x1="586.0" y1="372" x2="586.0" y2="375" stroke="black" stroke-width="0.8"/>
<text x="586.0" y="388" font-size="10" text-anchor="middle">62</text>
<text x="16" y="222" font-size="12" text-anchor="middle" transform="rotate(-90 16 222)">cycles / iteration</text>
<text x="326" y="414" font-size="12" text-anchor="middle">x  (HIT stores in tail; trailing misses = 62−x)</text>
<polyline points="66.0,92.7 74.5,93.1 83.0,95.0 91.6,95.2 100.1,95.3 108.6,95.3 117.1,96.1 125.7,96.6 134.2,97.1 142.7,98.1 151.2,99.0 159.8,99.9 168.3,100.2 176.8,101.9 185.3,103.1 193.9,104.2 202.4,104.7 210.9,104.7 219.4,106.5 228.0,107.1 236.5,107.8 245.0,108.3 253.5,108.8 262.1,108.9 270.6,109.6 279.1,110.4 287.6,110.8 296.2,111.7 304.7,112.3 313.2,112.9 321.7,113.0 330.3,114.5 338.8,116.2 347.3,117.5 355.8,120.0 364.4,122.5 372.9,125.4 381.4,129.3 389.9,134.1 398.5,138.2 407.0,142.0 415.5,145.1 424.0,148.6 432.6,153.1 441.1,158.6 449.6,166.5 458.1,177.0 466.7,188.0 475.2,197.9 483.7,210.1 492.2,223.5 500.8,234.9 509.3,246.9 517.8,257.1 526.3,266.6 534.9,277.0 543.4,292.9 551.9,307.2 560.4,321.1 569.0,335.7 577.5,347.0 586.0,351.3" fill="none" stroke="#999999" stroke-width="2" stroke-dasharray="6,3"/>
<polyline points="66.0,94.8 74.5,95.9 83.0,98.0 91.6,98.0 100.1,97.9 108.6,97.2 117.1,97.3 125.7,97.0 134.2,96.6 142.7,96.7 151.2,96.7 159.8,96.7 168.3,96.4 176.8,97.1 185.3,97.6 193.9,98.2 202.4,98.8 210.9,98.5 219.4,100.0 228.0,100.6 236.5,101.0 245.0,101.7 253.5,102.1 262.1,102.3 270.6,102.9 279.1,103.7 287.6,103.9 296.2,104.8 304.7,105.3 313.2,105.7 321.7,106.0 330.3,106.8 338.8,108.1 347.3,109.4 355.8,111.1 364.4,113.0 372.9,115.4 381.4,118.4 389.9,122.1 398.5,126.1 407.0,130.4 415.5,134.0 424.0,138.0 432.6,141.8 441.1,145.6 449.6,150.3 458.1,156.5 466.7,165.0 475.2,175.1 483.7,186.1 492.2,196.6 500.8,205.8 509.3,213.7 517.8,220.1 526.3,228.5 534.9,236.0 543.4,245.1 551.9,250.1 560.4,252.7 569.0,256.0 577.5,260.8 586.0,272.7" fill="none" stroke="#000000" stroke-width="2"/>
<line x1="668" y1="66" x2="668" y2="372" stroke="black" stroke-width="1.3"/>
<line x1="668" y1="372" x2="1188" y2="372" stroke="black" stroke-width="1.3"/>
<line x1="668" y1="342.8" x2="1188" y2="342.8" stroke="#bbb" stroke-width="1" stroke-dasharray="4,3"/>
<line x1="665" y1="372.0" x2="668" y2="372.0" stroke="black" stroke-width="0.8"/>
<text x="662" y="375.0" font-size="9" text-anchor="end">-25</text>
<line x1="665" y1="297.0" x2="668" y2="297.0" stroke="black" stroke-width="0.8"/>
<text x="662" y="300.0" font-size="9" text-anchor="end">39</text>
<line x1="665" y1="222.0" x2="668" y2="222.0" stroke="black" stroke-width="0.8"/>
<text x="662" y="225.0" font-size="9" text-anchor="end">104</text>
<line x1="665" y1="147.0" x2="668" y2="147.0" stroke="black" stroke-width="0.8"/>
<text x="662" y="150.0" font-size="9" text-anchor="end">169</text>
<line x1="665" y1="72.0" x2="668" y2="72.0" stroke="black" stroke-width="0.8"/>
<text x="662" y="75.0" font-size="9" text-anchor="end">233</text>
<line x1="668.0" y1="372" x2="668.0" y2="375" stroke="black" stroke-width="0.8"/>
<text x="668.0" y="388" font-size="10" text-anchor="middle">1</text>
<line x1="795.9" y1="372" x2="795.9" y2="375" stroke="black" stroke-width="0.8"/>
<text x="795.9" y="388" font-size="10" text-anchor="middle">16</text>
<line x1="932.3" y1="372" x2="932.3" y2="375" stroke="black" stroke-width="0.8"/>
<text x="932.3" y="388" font-size="10" text-anchor="middle">32</text>
<line x1="1068.7" y1="372" x2="1068.7" y2="375" stroke="black" stroke-width="0.8"/>
<text x="1068.7" y="388" font-size="10" text-anchor="middle">48</text>
<line x1="1188.0" y1="372" x2="1188.0" y2="375" stroke="black" stroke-width="0.8"/>
<text x="1188.0" y="388" font-size="10" text-anchor="middle">62</text>
<text x="618" y="222" font-size="12" text-anchor="middle" transform="rotate(-90 618 222)">Δ = stlr − str (cyc/iter)</text>
<text x="928" y="414" font-size="12" text-anchor="middle">x  (HIT stores in tail; trailing misses = 62−x)</text>
<polyline points="668.0,349.0 676.5,350.9 685.0,351.3 693.6,351.0 702.1,350.2 710.6,348.2 719.1,346.1 727.7,343.7 736.2,341.3 744.7,338.7 753.2,336.2 761.8,333.7 770.3,332.0 778.8,329.0 787.3,327.1 795.9,325.7 804.4,325.7 812.9,325.0 821.4,324.2 830.0,323.9 838.5,323.1 847.0,323.7 855.5,323.6 864.1,323.6 872.6,323.4 881.1,323.4 889.6,322.9 898.2,322.9 906.7,322.4 915.2,321.8 923.7,322.6 932.3,320.5 940.8,319.5 949.3,319.5 957.8,317.1 966.4,315.3 974.9,313.9 983.4,311.1 991.9,308.1 1000.5,307.5 1009.0,309.2 1017.5,310.5 1026.0,312.2 1034.6,310.0 1043.1,305.1 1051.6,296.0 1060.1,283.4 1068.7,276.1 1077.2,276.6 1085.7,273.2 1094.2,264.6 1102.8,258.2 1111.3,246.6 1119.8,235.5 1128.3,232.5 1136.9,223.8 1145.4,204.3 1153.9,177.5 1162.4,144.7 1171.0,111.7 1179.5,92.7 1188.0,115.0" fill="none" stroke="#000000" stroke-width="2"/>
</svg>