<svg xmlns="http://www.w3.org/2000/svg" width="610" height="546" viewBox="0 0 610 546" font-family="sans-serif">
<rect width="610" height="546" fill="white"/>
<text x="305" y="24" text-anchor="middle" font-size="16" font-weight="bold">G1 store-side ordering cost vs N — cache-resident floor (hit)</text>
<text x="305" y="42" text-anchor="middle" font-size="11.5" fill="#444">incremental cyc/store · condition = hit · placement = after_every · 10 repeats (median)</text>
<line x1="30" y1="60" x2="56" y2="60" stroke="#000000" stroke-width="1.8"/>
<circle cx="43.0" cy="60.0" r="3.4" fill="#000000"/>
<text x="61" y="63.5" font-size="11">dmb ish (full)</text>
<line x1="170.39999999999998" y1="60" x2="196.39999999999998" y2="60" stroke="#000000" stroke-width="1.8" stroke-dasharray="7,4"/>
<rect x="180.0" y="56.6" width="6.8" height="6.8" fill="#000000"/>
<text x="201.39999999999998" y="63.5" font-size="11">dmb sy (full)</text>
<line x1="304.2" y1="60" x2="330.2" y2="60" stroke="#5a5a5a" stroke-width="1.8" stroke-dasharray="2,3"/>
<polygon points="317.2,56.1 313.8,63.4 320.6,63.4" fill="#5a5a5a"/>
<text x="335.2" y="63.5" font-size="11">dmb ishst (store)</text>
<line x1="464.4" y1="60" x2="490.4" y2="60" stroke="#5a5a5a" stroke-width="1.8" stroke-dasharray="9,3,2,3"/>
<polygon points="477.4,56.1 473.5,60.0 477.4,63.9 481.3,60.0" fill="#5a5a5a"/>
<text x="495.4" y="63.5" font-size="11">dmb st (store)</text>
<line x1="604.8" y1="60" x2="630.8" y2="60" stroke="#8c8c8c" stroke-width="1.8"/>
<line x1="613.9" y1="60.0" x2="621.7" y2="60.0" stroke="#8c8c8c" stroke-width="1.6"/><line x1="617.8" y1="56.1" x2="617.8" y2="63.9" stroke="#8c8c8c" stroke-width="1.6"/>
<text x="635.8" y="63.5" font-size="11">stlr (store-release)</text>
<line x1="84" y1="458.0" x2="574" y2="458.0" stroke="#e6e6e6" stroke-width="1"/>
<text x="78" y="461.0" font-size="10" text-anchor="end" fill="#333">0</text>
<line x1="84" y1="388.0" x2="574" y2="388.0" stroke="#e6e6e6" stroke-width="1"/>
<text x="78" y="391.0" font-size="10" text-anchor="end" fill="#333">3</text>
<line x1="84" y1="318.0" x2="574" y2="318.0" stroke="#e6e6e6" stroke-width="1"/>
<text x="78" y="321.0" font-size="10" text-anchor="end" fill="#333">6</text>
<line x1="84" y1="248.0" x2="574" y2="248.0" stroke="#e6e6e6" stroke-width="1"/>
<text x="78" y="251.0" font-size="10" text-anchor="end" fill="#333">9</text>
<line x1="84" y1="178.0" x2="574" y2="178.0" stroke="#e6e6e6" stroke-width="1"/>
<text x="78" y="181.0" font-size="10" text-anchor="end" fill="#333">12</text>
<line x1="84" y1="108.0" x2="574" y2="108.0" stroke="#e6e6e6" stroke-width="1"/>
<text x="78" y="111.0" font-size="10" text-anchor="end" fill="#333">15</text>
<line x1="84" y1="108" x2="84" y2="458" stroke="black" stroke-width="1.3"/>
<line x1="84" y1="458" x2="574" y2="458" stroke="black" stroke-width="1.3"/>
<text x="84.0" y="473.0" font-size="10.5" text-anchor="middle">1</text>
<text x="165.7" y="473.0" font-size="10.5" text-anchor="middle">2</text>
<text x="247.3" y="473.0" font-size="10.5" text-anchor="middle">4</text>
<text x="329.0" y="473.0" font-size="10.5" text-anchor="middle">8</text>
<text x="410.7" y="473.0" font-size="10.5" text-anchor="middle">16</text>
<text x="492.3" y="473.0" font-size="10.5" text-anchor="middle">32</text>
<text x="574.0" y="473.0" font-size="10.5" text-anchor="middle">64</text>
<text x="329.0" y="488.0" font-size="11.5" text-anchor="middle">N (stores before the ordering op)</text>
<text x="43" y="283.0" font-size="11.5" text-anchor="middle" transform="rotate(-90 43 283.0)">Δ cyc / store (treatment − baseline)</text>
<path d="M84.0 222.1 L165.7 221.2 L247.3 218.6 L329.0 222.0 L410.7 226.3 L492.3 226.2 L574.0 231.4" fill="none" stroke="#000000" stroke-width="1.7"/>
<circle cx="84.0" cy="222.1" r="3.4" fill="#000000"/>
<circle cx="165.7" cy="221.2" r="3.4" fill="#000000"/>
<circle cx="247.3" cy="218.6" r="3.4" fill="#000000"/>
<circle cx="329.0" cy="222.0" r="3.4" fill="#000000"/>
<circle cx="410.7" cy="226.3" r="3.4" fill="#000000"/>
<circle cx="492.3" cy="226.2" r="3.4" fill="#000000"/>
<circle cx="574.0" cy="231.4" r="3.4" fill="#000000"/>
<path d="M84.0 220.9 L165.7 221.0 L247.3 218.6 L329.0 218.0 L410.7 226.4 L492.3 229.8 L574.0 231.1" fill="none" stroke="#000000" stroke-width="1.7" stroke-dasharray="7,4"/>
<rect x="80.6" y="217.5" width="6.8" height="6.8" fill="#000000"/>
<rect x="162.3" y="217.6" width="6.8" height="6.8" fill="#000000"/>
<rect x="243.9" y="215.2" width="6.8" height="6.8" fill="#000000"/>
<rect x="325.6" y="214.6" width="6.8" height="6.8" fill="#000000"/>
<rect x="407.3" y="223.0" width="6.8" height="6.8" fill="#000000"/>
<rect x="488.9" y="226.4" width="6.8" height="6.8" fill="#000000"/>
<rect x="570.6" y="227.7" width="6.8" height="6.8" fill="#000000"/>
<path d="M84.0 405.8 L165.7 397.3 L247.3 388.8 L329.0 389.4 L410.7 392.4 L492.3 392.3 L574.0 393.2" fill="none" stroke="#5a5a5a" stroke-width="1.7" stroke-dasharray="2,3"/>
<polygon points="84.0,401.9 80.6,409.2 87.4,409.2" fill="#5a5a5a"/>
<polygon points="165.7,393.4 162.3,400.7 169.1,400.7" fill="#5a5a5a"/>
<polygon points="247.3,384.9 243.9,392.2 250.7,392.2" fill="#5a5a5a"/>
<polygon points="329.0,385.5 325.6,392.8 332.4,392.8" fill="#5a5a5a"/>
<polygon points="410.7,388.5 407.3,395.8 414.1,395.8" fill="#5a5a5a"/>
<polygon points="492.3,388.4 488.9,395.7 495.7,395.7" fill="#5a5a5a"/>
<polygon points="574.0,389.3 570.6,396.6 577.4,396.6" fill="#5a5a5a"/>
<path d="M84.0 405.1 L165.7 397.7 L247.3 388.9 L329.0 387.3 L410.7 390.2 L492.3 393.0 L574.0 392.0" fill="none" stroke="#5a5a5a" stroke-width="1.7" stroke-dasharray="9,3,2,3"/>
<polygon points="84.0,401.2 80.1,405.1 84.0,409.0 87.9,405.1" fill="#5a5a5a"/>
<polygon points="165.7,393.8 161.8,397.7 165.7,401.6 169.6,397.7" fill="#5a5a5a"/>
<polygon points="247.3,385.0 243.4,388.9 247.3,392.8 251.2,388.9" fill="#5a5a5a"/>
<polygon points="329.0,383.4 325.1,387.3 329.0,391.2 332.9,387.3" fill="#5a5a5a"/>
<polygon points="410.7,386.3 406.8,390.2 410.7,394.1 414.6,390.2" fill="#5a5a5a"/>
<polygon points="492.3,389.1 488.4,393.0 492.3,396.9 496.2,393.0" fill="#5a5a5a"/>
<polygon points="574.0,388.1 570.1,392.0 574.0,395.9 577.9,392.0" fill="#5a5a5a"/>
<path d="M84.0 456.5 L165.7 455.1 L247.3 456.7 L329.0 455.8 L410.7 456.1 L492.3 456.5 L574.0 456.1" fill="none" stroke="#8c8c8c" stroke-width="1.7"/>
<line x1="80.1" y1="456.5" x2="87.9" y2="456.5" stroke="#8c8c8c" stroke-width="1.6"/><line x1="84.0" y1="452.6" x2="84.0" y2="460.4" stroke="#8c8c8c" stroke-width="1.6"/>
<line x1="161.8" y1="455.1" x2="169.6" y2="455.1" stroke="#8c8c8c" stroke-width="1.6"/><line x1="165.7" y1="451.2" x2="165.7" y2="459.0" stroke="#8c8c8c" stroke-width="1.6"/>
<line x1="243.4" y1="456.7" x2="251.2" y2="456.7" stroke="#8c8c8c" stroke-width="1.6"/><line x1="247.3" y1="452.8" x2="247.3" y2="460.6" stroke="#8c8c8c" stroke-width="1.6"/>
<line x1="325.1" y1="455.8" x2="332.9" y2="455.8" stroke="#8c8c8c" stroke-width="1.6"/><line x1="329.0" y1="451.9" x2="329.0" y2="459.7" stroke="#8c8c8c" stroke-width="1.6"/>
<line x1="406.8" y1="456.1" x2="414.6" y2="456.1" stroke="#8c8c8c" stroke-width="1.6"/><line x1="410.7" y1="452.2" x2="410.7" y2="460.0" stroke="#8c8c8c" stroke-width="1.6"/>
<line x1="488.4" y1="456.5" x2="496.2" y2="456.5" stroke="#8c8c8c" stroke-width="1.6"/><line x1="492.3" y1="452.6" x2="492.3" y2="460.4" stroke="#8c8c8c" stroke-width="1.6"/>
<line x1="570.1" y1="456.1" x2="577.9" y2="456.1" stroke="#8c8c8c" stroke-width="1.6"/><line x1="574.0" y1="452.2" x2="574.0" y2="460.0" stroke="#8c8c8c" stroke-width="1.6"/>
<text x="30" y="538" font-size="9" fill="#666">GH200 ARM Neoverse-V2, 3.375 GHz fixed (1 cyc ≈ 0.296 ns), 1,000,000 iters/repeat; paired baseline+treatment; PMU via perf_event_open (user-mode); objdump-verified.</text>
</svg>