<svg xmlns="http://www.w3.org/2000/svg" width="610" height="546" viewBox="0 0 610 546" font-family="sans-serif">
<rect width="610" height="546" fill="white"/>
<text x="305" y="24" text-anchor="middle" font-size="16" font-weight="bold">G1 store-side ordering cost vs N (cache-missing store stream)</text>
<text x="305" y="42" text-anchor="middle" font-size="11.5" fill="#444">incremental cyc/store · condition = miss · placement = after_every · 10 repeats (median)</text>
<line x1="30" y1="60" x2="56" y2="60" stroke="#000000" stroke-width="1.8"/>
<circle cx="43.0" cy="60.0" r="3.4" fill="#000000"/>
<text x="61" y="63.5" font-size="11">dmb ish (full)</text>
<line x1="170.39999999999998" y1="60" x2="196.39999999999998" y2="60" stroke="#000000" stroke-width="1.8" stroke-dasharray="7,4"/>
<rect x="180.0" y="56.6" width="6.8" height="6.8" fill="#000000"/>
<text x="201.39999999999998" y="63.5" font-size="11">dmb sy (full)</text>
<line x1="304.2" y1="60" x2="330.2" y2="60" stroke="#5a5a5a" stroke-width="1.8" stroke-dasharray="2,3"/>
<polygon points="317.2,56.1 313.8,63.4 320.6,63.4" fill="#5a5a5a"/>
<text x="335.2" y="63.5" font-size="11">dmb ishst (store)</text>
<line x1="464.4" y1="60" x2="490.4" y2="60" stroke="#5a5a5a" stroke-width="1.8" stroke-dasharray="9,3,2,3"/>
<polygon points="477.4,56.1 473.5,60.0 477.4,63.9 481.3,60.0" fill="#5a5a5a"/>
<text x="495.4" y="63.5" font-size="11">dmb st (store)</text>
<line x1="604.8" y1="60" x2="630.8" y2="60" stroke="#8c8c8c" stroke-width="1.8"/>
<line x1="613.9" y1="60.0" x2="621.7" y2="60.0" stroke="#8c8c8c" stroke-width="1.6"/><line x1="617.8" y1="56.1" x2="617.8" y2="63.9" stroke="#8c8c8c" stroke-width="1.6"/>
<text x="635.8" y="63.5" font-size="11">stlr (store-release)</text>
<line x1="84" y1="458.0" x2="574" y2="458.0" stroke="#e6e6e6" stroke-width="1"/>
<text x="78" y="461.0" font-size="10" text-anchor="end" fill="#333">0</text>
<line x1="84" y1="388.0" x2="574" y2="388.0" stroke="#e6e6e6" stroke-width="1"/>
<text x="78" y="391.0" font-size="10" text-anchor="end" fill="#333">15</text>
<line x1="84" y1="318.0" x2="574" y2="318.0" stroke="#e6e6e6" stroke-width="1"/>
<text x="78" y="321.0" font-size="10" text-anchor="end" fill="#333">30</text>
<line x1="84" y1="248.0" x2="574" y2="248.0" stroke="#e6e6e6" stroke-width="1"/>
<text x="78" y="251.0" font-size="10" text-anchor="end" fill="#333">45</text>
<line x1="84" y1="178.0" x2="574" y2="178.0" stroke="#e6e6e6" stroke-width="1"/>
<text x="78" y="181.0" font-size="10" text-anchor="end" fill="#333">60</text>
<line x1="84" y1="108.0" x2="574" y2="108.0" stroke="#e6e6e6" stroke-width="1"/>
<text x="78" y="111.0" font-size="10" text-anchor="end" fill="#333">75</text>
<line x1="84" y1="108" x2="84" y2="458" stroke="black" stroke-width="1.3"/>
<line x1="84" y1="458" x2="574" y2="458" stroke="black" stroke-width="1.3"/>
<text x="84.0" y="473.0" font-size="10.5" text-anchor="middle">1</text>
<text x="165.7" y="473.0" font-size="10.5" text-anchor="middle">2</text>
<text x="247.3" y="473.0" font-size="10.5" text-anchor="middle">4</text>
<text x="329.0" y="473.0" font-size="10.5" text-anchor="middle">8</text>
<text x="410.7" y="473.0" font-size="10.5" text-anchor="middle">16</text>
<text x="492.3" y="473.0" font-size="10.5" text-anchor="middle">32</text>
<text x="574.0" y="473.0" font-size="10.5" text-anchor="middle">64</text>
<text x="329.0" y="488.0" font-size="11.5" text-anchor="middle">N (stores before the ordering op)</text>
<text x="43" y="283.0" font-size="11.5" text-anchor="middle" transform="rotate(-90 43 283.0)">Δ cyc / store (treatment − baseline)</text>
<path d="M84.0 279.0 L165.7 233.4 L247.3 212.9 L329.0 180.9 L410.7 193.1 L492.3 203.2 L574.0 210.0" fill="none" stroke="#000000" stroke-width="1.7"/>
<circle cx="84.0" cy="279.0" r="3.4" fill="#000000"/>
<circle cx="165.7" cy="233.4" r="3.4" fill="#000000"/>
<circle cx="247.3" cy="212.9" r="3.4" fill="#000000"/>
<circle cx="329.0" cy="180.9" r="3.4" fill="#000000"/>
<circle cx="410.7" cy="193.1" r="3.4" fill="#000000"/>
<circle cx="492.3" cy="203.2" r="3.4" fill="#000000"/>
<circle cx="574.0" cy="210.0" r="3.4" fill="#000000"/>
<path d="M84.0 269.2 L165.7 253.4 L247.3 213.6 L329.0 218.2 L410.7 192.4 L492.3 171.4 L574.0 176.7" fill="none" stroke="#000000" stroke-width="1.7" stroke-dasharray="7,4"/>
<rect x="80.6" y="265.8" width="6.8" height="6.8" fill="#000000"/>
<rect x="162.3" y="250.0" width="6.8" height="6.8" fill="#000000"/>
<rect x="243.9" y="210.2" width="6.8" height="6.8" fill="#000000"/>
<rect x="325.6" y="214.8" width="6.8" height="6.8" fill="#000000"/>
<rect x="407.3" y="189.0" width="6.8" height="6.8" fill="#000000"/>
<rect x="488.9" y="168.0" width="6.8" height="6.8" fill="#000000"/>
<rect x="570.6" y="173.3" width="6.8" height="6.8" fill="#000000"/>
<path d="M84.0 366.9 L165.7 341.0 L247.3 286.6 L329.0 286.8 L410.7 287.8 L492.3 286.4 L574.0 284.4" fill="none" stroke="#5a5a5a" stroke-width="1.7" stroke-dasharray="2,3"/>
<polygon points="84.0,363.0 80.6,370.3 87.4,370.3" fill="#5a5a5a"/>
<polygon points="165.7,337.1 162.3,344.4 169.1,344.4" fill="#5a5a5a"/>
<polygon points="247.3,282.7 243.9,290.0 250.7,290.0" fill="#5a5a5a"/>
<polygon points="329.0,282.9 325.6,290.2 332.4,290.2" fill="#5a5a5a"/>
<polygon points="410.7,283.9 407.3,291.2 414.1,291.2" fill="#5a5a5a"/>
<polygon points="492.3,282.5 488.9,289.8 495.7,289.8" fill="#5a5a5a"/>
<polygon points="574.0,280.5 570.6,287.8 577.4,287.8" fill="#5a5a5a"/>
<path d="M84.0 370.3 L165.7 340.4 L247.3 290.8 L329.0 281.0 L410.7 282.2 L492.3 283.3 L574.0 283.0" fill="none" stroke="#5a5a5a" stroke-width="1.7" stroke-dasharray="9,3,2,3"/>
<polygon points="84.0,366.4 80.1,370.3 84.0,374.2 87.9,370.3" fill="#5a5a5a"/>
<polygon points="165.7,336.5 161.8,340.4 165.7,344.3 169.6,340.4" fill="#5a5a5a"/>
<polygon points="247.3,286.9 243.4,290.8 247.3,294.7 251.2,290.8" fill="#5a5a5a"/>
<polygon points="329.0,277.1 325.1,281.0 329.0,284.9 332.9,281.0" fill="#5a5a5a"/>
<polygon points="410.7,278.3 406.8,282.2 410.7,286.1 414.6,282.2" fill="#5a5a5a"/>
<polygon points="492.3,279.4 488.4,283.3 492.3,287.2 496.2,283.3" fill="#5a5a5a"/>
<polygon points="574.0,279.1 570.1,283.0 574.0,286.9 577.9,283.0" fill="#5a5a5a"/>
<path d="M84.0 368.7 L165.7 333.5 L247.3 296.7 L329.0 295.4 L410.7 298.0 L492.3 298.0 L574.0 298.0" fill="none" stroke="#8c8c8c" stroke-width="1.7"/>
<line x1="80.1" y1="368.7" x2="87.9" y2="368.7" stroke="#8c8c8c" stroke-width="1.6"/><line x1="84.0" y1="364.8" x2="84.0" y2="372.6" stroke="#8c8c8c" stroke-width="1.6"/>
<line x1="161.8" y1="333.5" x2="169.6" y2="333.5" stroke="#8c8c8c" stroke-width="1.6"/><line x1="165.7" y1="329.6" x2="165.7" y2="337.4" stroke="#8c8c8c" stroke-width="1.6"/>
<line x1="243.4" y1="296.7" x2="251.2" y2="296.7" stroke="#8c8c8c" stroke-width="1.6"/><line x1="247.3" y1="292.8" x2="247.3" y2="300.6" stroke="#8c8c8c" stroke-width="1.6"/>
<line x1="325.1" y1="295.4" x2="332.9" y2="295.4" stroke="#8c8c8c" stroke-width="1.6"/><line x1="329.0" y1="291.5" x2="329.0" y2="299.3" stroke="#8c8c8c" stroke-width="1.6"/>
<line x1="406.8" y1="298.0" x2="414.6" y2="298.0" stroke="#8c8c8c" stroke-width="1.6"/><line x1="410.7" y1="294.1" x2="410.7" y2="301.9" stroke="#8c8c8c" stroke-width="1.6"/>
<line x1="488.4" y1="298.0" x2="496.2" y2="298.0" stroke="#8c8c8c" stroke-width="1.6"/><line x1="492.3" y1="294.1" x2="492.3" y2="301.9" stroke="#8c8c8c" stroke-width="1.6"/>
<line x1="570.1" y1="298.0" x2="577.9" y2="298.0" stroke="#8c8c8c" stroke-width="1.6"/><line x1="574.0" y1="294.1" x2="574.0" y2="301.9" stroke="#8c8c8c" stroke-width="1.6"/>
<text x="30" y="538" font-size="9" fill="#666">GH200 ARM Neoverse-V2, 3.375 GHz fixed (1 cyc ≈ 0.296 ns), 1,000,000 iters/repeat; paired baseline+treatment; PMU via perf_event_open (user-mode); objdump-verified.</text>
</svg>