<svg xmlns="http://www.w3.org/2000/svg" width="610" height="546" viewBox="0 0 610 546" font-family="sans-serif">
<rect width="610" height="546" fill="white"/>
<text x="305" y="24" text-anchor="middle" font-size="16" font-weight="bold">G2 load-side ordering cost vs N — cache-resident floor (hit)</text>
<text x="305" y="42" text-anchor="middle" font-size="11.5" fill="#444">incremental cyc/load · condition = hit · placement = after_every · 10 repeats (median)</text>
<line x1="30" y1="60" x2="56" y2="60" stroke="#000000" stroke-width="1.8"/>
<circle cx="43.0" cy="60.0" r="3.4" fill="#000000"/>
<text x="61" y="63.5" font-size="11">dmb ish (full)</text>
<line x1="170.39999999999998" y1="60" x2="196.39999999999998" y2="60" stroke="#000000" stroke-width="1.8" stroke-dasharray="7,4"/>
<rect x="180.0" y="56.6" width="6.8" height="6.8" fill="#000000"/>
<text x="201.39999999999998" y="63.5" font-size="11">dmb sy (full)</text>
<line x1="304.2" y1="60" x2="330.2" y2="60" stroke="#5a5a5a" stroke-width="1.8" stroke-dasharray="2,3"/>
<polygon points="317.2,56.1 313.8,63.4 320.6,63.4" fill="#5a5a5a"/>
<text x="335.2" y="63.5" font-size="11">dmb ishld (load)</text>
<line x1="457.79999999999995" y1="60" x2="483.79999999999995" y2="60" stroke="#5a5a5a" stroke-width="1.8" stroke-dasharray="9,3,2,3"/>
<polygon points="470.8,56.1 466.9,60.0 470.8,63.9 474.7,60.0" fill="#5a5a5a"/>
<text x="488.79999999999995" y="63.5" font-size="11">dmb ld (load)</text>
<line x1="591.5999999999999" y1="60" x2="617.5999999999999" y2="60" stroke="#8c8c8c" stroke-width="1.8"/>
<line x1="600.7" y1="60.0" x2="608.5" y2="60.0" stroke="#8c8c8c" stroke-width="1.6"/><line x1="604.6" y1="56.1" x2="604.6" y2="63.9" stroke="#8c8c8c" stroke-width="1.6"/>
<text x="622.5999999999999" y="63.5" font-size="11">ldar (RCsc)</text>
<line x1="712.1999999999999" y1="60" x2="738.1999999999999" y2="60" stroke="#8c8c8c" stroke-width="1.8" stroke-dasharray="6,4"/>
<circle cx="725.2" cy="60.0" r="3.4" fill="white" stroke="#8c8c8c" stroke-width="1.2"/>
<text x="743.1999999999999" y="63.5" font-size="11">ldapr (RCpc)</text>
<line x1="84" y1="458.0" x2="574" y2="458.0" stroke="#e6e6e6" stroke-width="1"/>
<text x="78" y="461.0" font-size="10" text-anchor="end" fill="#333">-0.1</text>
<line x1="84" y1="388.0" x2="574" y2="388.0" stroke="#e6e6e6" stroke-width="1"/>
<text x="78" y="391.0" font-size="10" text-anchor="end" fill="#333">1.42</text>
<line x1="84" y1="318.0" x2="574" y2="318.0" stroke="#e6e6e6" stroke-width="1"/>
<text x="78" y="321.0" font-size="10" text-anchor="end" fill="#333">2.94</text>
<line x1="84" y1="248.0" x2="574" y2="248.0" stroke="#e6e6e6" stroke-width="1"/>
<text x="78" y="251.0" font-size="10" text-anchor="end" fill="#333">4.46</text>
<line x1="84" y1="178.0" x2="574" y2="178.0" stroke="#e6e6e6" stroke-width="1"/>
<text x="78" y="181.0" font-size="10" text-anchor="end" fill="#333">5.98</text>
<line x1="84" y1="108.0" x2="574" y2="108.0" stroke="#e6e6e6" stroke-width="1"/>
<text x="78" y="111.0" font-size="10" text-anchor="end" fill="#333">7.5</text>
<line x1="84" y1="453.4" x2="574" y2="453.4" stroke="#999" stroke-width="1"/>
<line x1="84" y1="108" x2="84" y2="458" stroke="black" stroke-width="1.3"/>
<line x1="84" y1="458" x2="574" y2="458" stroke="black" stroke-width="1.3"/>
<text x="84.0" y="473.0" font-size="10.5" text-anchor="middle">1</text>
<text x="165.7" y="473.0" font-size="10.5" text-anchor="middle">2</text>
<text x="247.3" y="473.0" font-size="10.5" text-anchor="middle">4</text>
<text x="329.0" y="473.0" font-size="10.5" text-anchor="middle">8</text>
<text x="410.7" y="473.0" font-size="10.5" text-anchor="middle">16</text>
<text x="492.3" y="473.0" font-size="10.5" text-anchor="middle">32</text>
<text x="574.0" y="473.0" font-size="10.5" text-anchor="middle">64</text>
<text x="329.0" y="488.0" font-size="11.5" text-anchor="middle">N (loads before the ordering op)</text>
<text x="43" y="283.0" font-size="11.5" text-anchor="middle" transform="rotate(-90 43 283.0)">Δ cyc / load (treatment − baseline)</text>
<path d="M84.0 207.6 L165.7 186.3 L247.3 186.6 L329.0 189.0 L410.7 191.9 L492.3 193.7 L574.0 196.7" fill="none" stroke="#000000" stroke-width="1.7"/>
<circle cx="84.0" cy="207.6" r="3.4" fill="#000000"/>
<circle cx="165.7" cy="186.3" r="3.4" fill="#000000"/>
<circle cx="247.3" cy="186.6" r="3.4" fill="#000000"/>
<circle cx="329.0" cy="189.0" r="3.4" fill="#000000"/>
<circle cx="410.7" cy="191.9" r="3.4" fill="#000000"/>
<circle cx="492.3" cy="193.7" r="3.4" fill="#000000"/>
<circle cx="574.0" cy="196.7" r="3.4" fill="#000000"/>
<path d="M84.0 207.1 L165.7 186.1 L247.3 187.1 L329.0 193.0 L410.7 192.0 L492.3 193.7 L574.0 194.5" fill="none" stroke="#000000" stroke-width="1.7" stroke-dasharray="7,4"/>
<rect x="80.6" y="203.7" width="6.8" height="6.8" fill="#000000"/>
<rect x="162.3" y="182.7" width="6.8" height="6.8" fill="#000000"/>
<rect x="243.9" y="183.7" width="6.8" height="6.8" fill="#000000"/>
<rect x="325.6" y="189.6" width="6.8" height="6.8" fill="#000000"/>
<rect x="407.3" y="188.6" width="6.8" height="6.8" fill="#000000"/>
<rect x="488.9" y="190.3" width="6.8" height="6.8" fill="#000000"/>
<rect x="570.6" y="191.1" width="6.8" height="6.8" fill="#000000"/>
<path d="M84.0 207.7 L165.7 185.2 L247.3 187.0 L329.0 189.1 L410.7 191.8 L492.3 195.9 L574.0 194.6" fill="none" stroke="#5a5a5a" stroke-width="1.7" stroke-dasharray="2,3"/>
<polygon points="84.0,203.8 80.6,211.1 87.4,211.1" fill="#5a5a5a"/>
<polygon points="165.7,181.3 162.3,188.6 169.1,188.6" fill="#5a5a5a"/>
<polygon points="247.3,183.1 243.9,190.4 250.7,190.4" fill="#5a5a5a"/>
<polygon points="329.0,185.2 325.6,192.5 332.4,192.5" fill="#5a5a5a"/>
<polygon points="410.7,187.9 407.3,195.2 414.1,195.2" fill="#5a5a5a"/>
<polygon points="492.3,192.0 488.9,199.3 495.7,199.3" fill="#5a5a5a"/>
<polygon points="574.0,190.7 570.6,198.0 577.4,198.0" fill="#5a5a5a"/>
<path d="M84.0 207.2 L165.7 187.4 L247.3 186.7 L329.0 188.6 L410.7 191.8 L492.3 193.9 L574.0 194.5" fill="none" stroke="#5a5a5a" stroke-width="1.7" stroke-dasharray="9,3,2,3"/>
<polygon points="84.0,203.3 80.1,207.2 84.0,211.1 87.9,207.2" fill="#5a5a5a"/>
<polygon points="165.7,183.5 161.8,187.4 165.7,191.3 169.6,187.4" fill="#5a5a5a"/>
<polygon points="247.3,182.8 243.4,186.7 247.3,190.6 251.2,186.7" fill="#5a5a5a"/>
<polygon points="329.0,184.7 325.1,188.6 329.0,192.5 332.9,188.6" fill="#5a5a5a"/>
<polygon points="410.7,187.9 406.8,191.8 410.7,195.7 414.6,191.8" fill="#5a5a5a"/>
<polygon points="492.3,190.0 488.4,193.9 492.3,197.8 496.2,193.9" fill="#5a5a5a"/>
<polygon points="574.0,190.6 570.1,194.5 574.0,198.4 577.9,194.5" fill="#5a5a5a"/>
<path d="M84.0 455.6 L165.7 456.2 L247.3 453.3 L329.0 454.0 L410.7 454.2 L492.3 454.6 L574.0 454.5" fill="none" stroke="#8c8c8c" stroke-width="1.7"/>
<line x1="80.1" y1="455.6" x2="87.9" y2="455.6" stroke="#8c8c8c" stroke-width="1.6"/><line x1="84.0" y1="451.7" x2="84.0" y2="459.5" stroke="#8c8c8c" stroke-width="1.6"/>
<line x1="161.8" y1="456.2" x2="169.6" y2="456.2" stroke="#8c8c8c" stroke-width="1.6"/><line x1="165.7" y1="452.3" x2="165.7" y2="460.1" stroke="#8c8c8c" stroke-width="1.6"/>
<line x1="243.4" y1="453.3" x2="251.2" y2="453.3" stroke="#8c8c8c" stroke-width="1.6"/><line x1="247.3" y1="449.4" x2="247.3" y2="457.2" stroke="#8c8c8c" stroke-width="1.6"/>
<line x1="325.1" y1="454.0" x2="332.9" y2="454.0" stroke="#8c8c8c" stroke-width="1.6"/><line x1="329.0" y1="450.1" x2="329.0" y2="457.9" stroke="#8c8c8c" stroke-width="1.6"/>
<line x1="406.8" y1="454.2" x2="414.6" y2="454.2" stroke="#8c8c8c" stroke-width="1.6"/><line x1="410.7" y1="450.3" x2="410.7" y2="458.1" stroke="#8c8c8c" stroke-width="1.6"/>
<line x1="488.4" y1="454.6" x2="496.2" y2="454.6" stroke="#8c8c8c" stroke-width="1.6"/><line x1="492.3" y1="450.7" x2="492.3" y2="458.5" stroke="#8c8c8c" stroke-width="1.6"/>
<line x1="570.1" y1="454.5" x2="577.9" y2="454.5" stroke="#8c8c8c" stroke-width="1.6"/><line x1="574.0" y1="450.6" x2="574.0" y2="458.4" stroke="#8c8c8c" stroke-width="1.6"/>
<path d="M84.0 456.9 L165.7 456.2 L247.3 454.4 L329.0 455.1 L410.7 452.6 L492.3 455.0 L574.0 454.9" fill="none" stroke="#8c8c8c" stroke-width="1.7" stroke-dasharray="6,4"/>
<circle cx="84.0" cy="456.9" r="3.4" fill="white" stroke="#8c8c8c" stroke-width="1.2"/>
<circle cx="165.7" cy="456.2" r="3.4" fill="white" stroke="#8c8c8c" stroke-width="1.2"/>
<circle cx="247.3" cy="454.4" r="3.4" fill="white" stroke="#8c8c8c" stroke-width="1.2"/>
<circle cx="329.0" cy="455.1" r="3.4" fill="white" stroke="#8c8c8c" stroke-width="1.2"/>
<circle cx="410.7" cy="452.6" r="3.4" fill="white" stroke="#8c8c8c" stroke-width="1.2"/>
<circle cx="492.3" cy="455.0" r="3.4" fill="white" stroke="#8c8c8c" stroke-width="1.2"/>
<circle cx="574.0" cy="454.9" r="3.4" fill="white" stroke="#8c8c8c" stroke-width="1.2"/>
<text x="30" y="538" font-size="9" fill="#666">GH200 ARM Neoverse-V2, 3.375 GHz fixed (1 cyc ≈ 0.296 ns), 1,000,000 iters/repeat; paired baseline+treatment; PMU via perf_event_open (user-mode); objdump-verified.</text>
</svg>