<svg xmlns="http://www.w3.org/2000/svg" width="610" height="546" viewBox="0 0 610 546" font-family="sans-serif">
<rect width="610" height="546" fill="white"/>
<text x="305" y="24" text-anchor="middle" font-size="16" font-weight="bold">G2 load-side ordering cost vs N (random load stream)</text>
<text x="305" y="42" text-anchor="middle" font-size="11.5" fill="#444">incremental cyc/load · condition = miss · placement = after_every · 10 repeats (median)</text>
<line x1="30" y1="60" x2="56" y2="60" stroke="#000000" stroke-width="1.8"/>
<circle cx="43.0" cy="60.0" r="3.4" fill="#000000"/>
<text x="61" y="63.5" font-size="11">dmb ish (full)</text>
<line x1="170.39999999999998" y1="60" x2="196.39999999999998" y2="60" stroke="#000000" stroke-width="1.8" stroke-dasharray="7,4"/>
<rect x="180.0" y="56.6" width="6.8" height="6.8" fill="#000000"/>
<text x="201.39999999999998" y="63.5" font-size="11">dmb sy (full)</text>
<line x1="304.2" y1="60" x2="330.2" y2="60" stroke="#5a5a5a" stroke-width="1.8" stroke-dasharray="2,3"/>
<polygon points="317.2,56.1 313.8,63.4 320.6,63.4" fill="#5a5a5a"/>
<text x="335.2" y="63.5" font-size="11">dmb ishld (load)</text>
<line x1="457.79999999999995" y1="60" x2="483.79999999999995" y2="60" stroke="#5a5a5a" stroke-width="1.8" stroke-dasharray="9,3,2,3"/>
<polygon points="470.8,56.1 466.9,60.0 470.8,63.9 474.7,60.0" fill="#5a5a5a"/>
<text x="488.79999999999995" y="63.5" font-size="11">dmb ld (load)</text>
<line x1="591.5999999999999" y1="60" x2="617.5999999999999" y2="60" stroke="#8c8c8c" stroke-width="1.8"/>
<line x1="600.7" y1="60.0" x2="608.5" y2="60.0" stroke="#8c8c8c" stroke-width="1.6"/><line x1="604.6" y1="56.1" x2="604.6" y2="63.9" stroke="#8c8c8c" stroke-width="1.6"/>
<text x="622.5999999999999" y="63.5" font-size="11">ldar (RCsc)</text>
<line x1="712.1999999999999" y1="60" x2="738.1999999999999" y2="60" stroke="#8c8c8c" stroke-width="1.8" stroke-dasharray="6,4"/>
<circle cx="725.2" cy="60.0" r="3.4" fill="white" stroke="#8c8c8c" stroke-width="1.2"/>
<text x="743.1999999999999" y="63.5" font-size="11">ldapr (RCpc)</text>
<line x1="84" y1="458.0" x2="574" y2="458.0" stroke="#e6e6e6" stroke-width="1"/>
<text x="78" y="461.0" font-size="10" text-anchor="end" fill="#333">-0.75</text>
<line x1="84" y1="388.0" x2="574" y2="388.0" stroke="#e6e6e6" stroke-width="1"/>
<text x="78" y="391.0" font-size="10" text-anchor="end" fill="#333">0.2</text>
<line x1="84" y1="318.0" x2="574" y2="318.0" stroke="#e6e6e6" stroke-width="1"/>
<text x="78" y="321.0" font-size="10" text-anchor="end" fill="#333">1.15</text>
<line x1="84" y1="248.0" x2="574" y2="248.0" stroke="#e6e6e6" stroke-width="1"/>
<text x="78" y="251.0" font-size="10" text-anchor="end" fill="#333">2.1</text>
<line x1="84" y1="178.0" x2="574" y2="178.0" stroke="#e6e6e6" stroke-width="1"/>
<text x="78" y="181.0" font-size="10" text-anchor="end" fill="#333">3.05</text>
<line x1="84" y1="108.0" x2="574" y2="108.0" stroke="#e6e6e6" stroke-width="1"/>
<text x="78" y="111.0" font-size="10" text-anchor="end" fill="#333">4</text>
<line x1="84" y1="402.7" x2="574" y2="402.7" stroke="#999" stroke-width="1"/>
<line x1="84" y1="108" x2="84" y2="458" stroke="black" stroke-width="1.3"/>
<line x1="84" y1="458" x2="574" y2="458" stroke="black" stroke-width="1.3"/>
<text x="84.0" y="473.0" font-size="10.5" text-anchor="middle">1</text>
<text x="165.7" y="473.0" font-size="10.5" text-anchor="middle">2</text>
<text x="247.3" y="473.0" font-size="10.5" text-anchor="middle">4</text>
<text x="329.0" y="473.0" font-size="10.5" text-anchor="middle">8</text>
<text x="410.7" y="473.0" font-size="10.5" text-anchor="middle">16</text>
<text x="492.3" y="473.0" font-size="10.5" text-anchor="middle">32</text>
<text x="574.0" y="473.0" font-size="10.5" text-anchor="middle">64</text>
<text x="329.0" y="488.0" font-size="11.5" text-anchor="middle">N (loads before the ordering op)</text>
<text x="43" y="283.0" font-size="11.5" text-anchor="middle" transform="rotate(-90 43 283.0)">Δ cyc / load (treatment − baseline)</text>
<path d="M84.0 449.0 L165.7 214.2 L247.3 188.0 L329.0 149.2 L410.7 187.8 L492.3 164.8 L574.0 156.9" fill="none" stroke="#000000" stroke-width="1.7"/>
<circle cx="84.0" cy="449.0" r="3.4" fill="#000000"/>
<circle cx="165.7" cy="214.2" r="3.4" fill="#000000"/>
<circle cx="247.3" cy="188.0" r="3.4" fill="#000000"/>
<circle cx="329.0" cy="149.2" r="3.4" fill="#000000"/>
<circle cx="410.7" cy="187.8" r="3.4" fill="#000000"/>
<circle cx="492.3" cy="164.8" r="3.4" fill="#000000"/>
<circle cx="574.0" cy="156.9" r="3.4" fill="#000000"/>
<path d="M84.0 448.5 L165.7 218.8 L247.3 188.1 L329.0 147.3 L410.7 187.7 L492.3 164.8 L574.0 157.2" fill="none" stroke="#000000" stroke-width="1.7" stroke-dasharray="7,4"/>
<rect x="80.6" y="445.1" width="6.8" height="6.8" fill="#000000"/>
<rect x="162.3" y="215.4" width="6.8" height="6.8" fill="#000000"/>
<rect x="243.9" y="184.7" width="6.8" height="6.8" fill="#000000"/>
<rect x="325.6" y="143.9" width="6.8" height="6.8" fill="#000000"/>
<rect x="407.3" y="184.3" width="6.8" height="6.8" fill="#000000"/>
<rect x="488.9" y="161.4" width="6.8" height="6.8" fill="#000000"/>
<rect x="570.6" y="153.8" width="6.8" height="6.8" fill="#000000"/>
<path d="M84.0 448.8 L165.7 218.9 L247.3 193.8 L329.0 149.6 L410.7 187.6 L492.3 164.7 L574.0 157.0" fill="none" stroke="#5a5a5a" stroke-width="1.7" stroke-dasharray="2,3"/>
<polygon points="84.0,444.9 80.6,452.2 87.4,452.2" fill="#5a5a5a"/>
<polygon points="165.7,215.0 162.3,222.3 169.1,222.3" fill="#5a5a5a"/>
<polygon points="247.3,189.9 243.9,197.2 250.7,197.2" fill="#5a5a5a"/>
<polygon points="329.0,145.7 325.6,153.0 332.4,153.0" fill="#5a5a5a"/>
<polygon points="410.7,183.7 407.3,191.0 414.1,191.0" fill="#5a5a5a"/>
<polygon points="492.3,160.8 488.9,168.1 495.7,168.1" fill="#5a5a5a"/>
<polygon points="574.0,153.1 570.6,160.4 577.4,160.4" fill="#5a5a5a"/>
<path d="M84.0 445.5 L165.7 218.2 L247.3 188.2 L329.0 149.6 L410.7 188.1 L492.3 164.5 L574.0 157.2" fill="none" stroke="#5a5a5a" stroke-width="1.7" stroke-dasharray="9,3,2,3"/>
<polygon points="84.0,441.6 80.1,445.5 84.0,449.4 87.9,445.5" fill="#5a5a5a"/>
<polygon points="165.7,214.3 161.8,218.2 165.7,222.1 169.6,218.2" fill="#5a5a5a"/>
<polygon points="247.3,184.3 243.4,188.2 247.3,192.1 251.2,188.2" fill="#5a5a5a"/>
<polygon points="329.0,145.7 325.1,149.6 329.0,153.5 332.9,149.6" fill="#5a5a5a"/>
<polygon points="410.7,184.2 406.8,188.1 410.7,192.0 414.6,188.1" fill="#5a5a5a"/>
<polygon points="492.3,160.6 488.4,164.5 492.3,168.4 496.2,164.5" fill="#5a5a5a"/>
<polygon points="574.0,153.3 570.1,157.2 574.0,161.1 577.9,157.2" fill="#5a5a5a"/>
<path d="M84.0 410.5 L165.7 376.6 L247.3 398.8 L329.0 400.8 L410.7 398.1 L492.3 396.7 L574.0 397.8" fill="none" stroke="#8c8c8c" stroke-width="1.7"/>
<line x1="80.1" y1="410.5" x2="87.9" y2="410.5" stroke="#8c8c8c" stroke-width="1.6"/><line x1="84.0" y1="406.6" x2="84.0" y2="414.4" stroke="#8c8c8c" stroke-width="1.6"/>
<line x1="161.8" y1="376.6" x2="169.6" y2="376.6" stroke="#8c8c8c" stroke-width="1.6"/><line x1="165.7" y1="372.7" x2="165.7" y2="380.5" stroke="#8c8c8c" stroke-width="1.6"/>
<line x1="243.4" y1="398.8" x2="251.2" y2="398.8" stroke="#8c8c8c" stroke-width="1.6"/><line x1="247.3" y1="394.9" x2="247.3" y2="402.7" stroke="#8c8c8c" stroke-width="1.6"/>
<line x1="325.1" y1="400.8" x2="332.9" y2="400.8" stroke="#8c8c8c" stroke-width="1.6"/><line x1="329.0" y1="396.9" x2="329.0" y2="404.7" stroke="#8c8c8c" stroke-width="1.6"/>
<line x1="406.8" y1="398.1" x2="414.6" y2="398.1" stroke="#8c8c8c" stroke-width="1.6"/><line x1="410.7" y1="394.2" x2="410.7" y2="402.0" stroke="#8c8c8c" stroke-width="1.6"/>
<line x1="488.4" y1="396.7" x2="496.2" y2="396.7" stroke="#8c8c8c" stroke-width="1.6"/><line x1="492.3" y1="392.8" x2="492.3" y2="400.6" stroke="#8c8c8c" stroke-width="1.6"/>
<line x1="570.1" y1="397.8" x2="577.9" y2="397.8" stroke="#8c8c8c" stroke-width="1.6"/><line x1="574.0" y1="393.9" x2="574.0" y2="401.7" stroke="#8c8c8c" stroke-width="1.6"/>
<path d="M84.0 411.8 L165.7 377.2 L247.3 397.4 L329.0 398.2 L410.7 397.8 L492.3 397.4 L574.0 397.7" fill="none" stroke="#8c8c8c" stroke-width="1.7" stroke-dasharray="6,4"/>
<circle cx="84.0" cy="411.8" r="3.4" fill="white" stroke="#8c8c8c" stroke-width="1.2"/>
<circle cx="165.7" cy="377.2" r="3.4" fill="white" stroke="#8c8c8c" stroke-width="1.2"/>
<circle cx="247.3" cy="397.4" r="3.4" fill="white" stroke="#8c8c8c" stroke-width="1.2"/>
<circle cx="329.0" cy="398.2" r="3.4" fill="white" stroke="#8c8c8c" stroke-width="1.2"/>
<circle cx="410.7" cy="397.8" r="3.4" fill="white" stroke="#8c8c8c" stroke-width="1.2"/>
<circle cx="492.3" cy="397.4" r="3.4" fill="white" stroke="#8c8c8c" stroke-width="1.2"/>
<circle cx="574.0" cy="397.7" r="3.4" fill="white" stroke="#8c8c8c" stroke-width="1.2"/>
<text x="30" y="538" font-size="9" fill="#666">GH200 ARM Neoverse-V2, 3.375 GHz fixed (1 cyc ≈ 0.296 ns), 1,000,000 iters/repeat; paired baseline+treatment; PMU via perf_event_open (user-mode); objdump-verified.</text>
</svg>