<svg xmlns="http://www.w3.org/2000/svg" width="1194" height="546" viewBox="0 0 1194 546" font-family="sans-serif">
<rect width="1194" height="546" fill="white"/>
<text x="597" y="24" text-anchor="middle" font-size="16" font-weight="bold">G4 contended atomic: the cost is the RMW instruction, not the memory order</text>
<text x="597" y="42" text-anchor="middle" font-size="11.5" fill="#444">single shared line · base = relaxed RMW · surcharge = ordered − relaxed (mean of 4 orders) · 15 repeats (median)</text>
<line x1="30" y1="60" x2="56" y2="60" stroke="#000000" stroke-width="1.8"/>
<circle cx="43.0" cy="60.0" r="3.4" fill="#000000"/>
<text x="61" y="63.5" font-size="11">ldadd</text>
<line x1="111.0" y1="60" x2="137.0" y2="60" stroke="#5a5a5a" stroke-width="1.8" stroke-dasharray="2,3"/>
<polygon points="124.0,56.1 120.6,63.4 127.4,63.4" fill="#5a5a5a"/>
<text x="142.0" y="63.5" font-size="11">swp</text>
<line x1="178.8" y1="60" x2="204.8" y2="60" stroke="#000000" stroke-width="1.8" stroke-dasharray="7,4"/>
<rect x="188.4" y="56.6" width="6.8" height="6.8" fill="#000000"/>
<text x="209.8" y="63.5" font-size="11">cas</text>
<line x1="84" y1="458.0" x2="574" y2="458.0" stroke="#e6e6e6" stroke-width="1"/>
<text x="78" y="461.0" font-size="10" text-anchor="end" fill="#333">0</text>
<line x1="84" y1="388.0" x2="574" y2="388.0" stroke="#e6e6e6" stroke-width="1"/>
<text x="78" y="391.0" font-size="10" text-anchor="end" fill="#333">100</text>
<line x1="84" y1="318.0" x2="574" y2="318.0" stroke="#e6e6e6" stroke-width="1"/>
<text x="78" y="321.0" font-size="10" text-anchor="end" fill="#333">200</text>
<line x1="84" y1="248.0" x2="574" y2="248.0" stroke="#e6e6e6" stroke-width="1"/>
<text x="78" y="251.0" font-size="10" text-anchor="end" fill="#333">300</text>
<line x1="84" y1="178.0" x2="574" y2="178.0" stroke="#e6e6e6" stroke-width="1"/>
<text x="78" y="181.0" font-size="10" text-anchor="end" fill="#333">400</text>
<line x1="84" y1="108.0" x2="574" y2="108.0" stroke="#e6e6e6" stroke-width="1"/>
<text x="78" y="111.0" font-size="10" text-anchor="end" fill="#333">500</text>
<line x1="84" y1="108" x2="84" y2="458" stroke="black" stroke-width="1.3"/>
<line x1="84" y1="458" x2="574" y2="458" stroke="black" stroke-width="1.3"/>
<text x="84.0" y="473.0" font-size="10.5" text-anchor="middle">1</text>
<text x="247.3" y="473.0" font-size="10.5" text-anchor="middle">2</text>
<text x="410.7" y="473.0" font-size="10.5" text-anchor="middle">4</text>
<text x="574.0" y="473.0" font-size="10.5" text-anchor="middle">8</text>
<text x="329.0" y="488.0" font-size="11.5" text-anchor="middle">T (threads)</text>
<text x="43" y="283.0" font-size="11.5" text-anchor="middle" transform="rotate(-90 43 283.0)">cyc / op — relaxed RMW (base)</text>
<path d="M84.0 448.6 L247.3 432.8 L410.7 408.9 L574.0 353.2" fill="none" stroke="#000000" stroke-width="1.7"/>
<circle cx="84.0" cy="448.6" r="3.4" fill="#000000"/>
<circle cx="247.3" cy="432.8" r="3.4" fill="#000000"/>
<circle cx="410.7" cy="408.9" r="3.4" fill="#000000"/>
<circle cx="574.0" cy="353.2" r="3.4" fill="#000000"/>
<path d="M84.0 448.7 L247.3 432.2 L410.7 405.3 L574.0 365.7" fill="none" stroke="#5a5a5a" stroke-width="1.7" stroke-dasharray="2,3"/>
<polygon points="84.0,444.8 80.6,452.1 87.4,452.1" fill="#5a5a5a"/>
<polygon points="247.3,428.3 243.9,435.6 250.7,435.6" fill="#5a5a5a"/>
<polygon points="410.7,401.4 407.3,408.7 414.1,408.7" fill="#5a5a5a"/>
<polygon points="574.0,361.8 570.6,369.1 577.4,369.1" fill="#5a5a5a"/>
<path d="M84.0 444.0 L247.3 377.5 L410.7 307.8 L574.0 116.3" fill="none" stroke="#000000" stroke-width="1.7" stroke-dasharray="7,4"/>
<rect x="80.6" y="440.6" width="6.8" height="6.8" fill="#000000"/>
<rect x="243.9" y="374.1" width="6.8" height="6.8" fill="#000000"/>
<rect x="407.3" y="304.4" width="6.8" height="6.8" fill="#000000"/>
<rect x="570.6" y="112.9" width="6.8" height="6.8" fill="#000000"/>
<line x1="668" y1="458.0" x2="1158" y2="458.0" stroke="#e6e6e6" stroke-width="1"/>
<text x="662" y="461.0" font-size="10" text-anchor="end" fill="#333">-0.3</text>
<line x1="668" y1="388.0" x2="1158" y2="388.0" stroke="#e6e6e6" stroke-width="1"/>
<text x="662" y="391.0" font-size="10" text-anchor="end" fill="#333">0.16</text>
<line x1="668" y1="318.0" x2="1158" y2="318.0" stroke="#e6e6e6" stroke-width="1"/>
<text x="662" y="321.0" font-size="10" text-anchor="end" fill="#333">0.62</text>
<line x1="668" y1="248.0" x2="1158" y2="248.0" stroke="#e6e6e6" stroke-width="1"/>
<text x="662" y="251.0" font-size="10" text-anchor="end" fill="#333">1.08</text>
<line x1="668" y1="178.0" x2="1158" y2="178.0" stroke="#e6e6e6" stroke-width="1"/>
<text x="662" y="181.0" font-size="10" text-anchor="end" fill="#333">1.54</text>
<line x1="668" y1="108.0" x2="1158" y2="108.0" stroke="#e6e6e6" stroke-width="1"/>
<text x="662" y="111.0" font-size="10" text-anchor="end" fill="#333">2</text>
<line x1="668" y1="412.3" x2="1158" y2="412.3" stroke="#999" stroke-width="1"/>
<line x1="668" y1="108" x2="668" y2="458" stroke="black" stroke-width="1.3"/>
<line x1="668" y1="458" x2="1158" y2="458" stroke="black" stroke-width="1.3"/>
<text x="668.0" y="473.0" font-size="10.5" text-anchor="middle">1</text>
<text x="831.3" y="473.0" font-size="10.5" text-anchor="middle">2</text>
<text x="994.7" y="473.0" font-size="10.5" text-anchor="middle">4</text>
<text x="1158.0" y="473.0" font-size="10.5" text-anchor="middle">8</text>
<text x="913.0" y="488.0" font-size="11.5" text-anchor="middle">T (threads)</text>
<text x="627" y="283.0" font-size="11.5" text-anchor="middle" transform="rotate(-90 627 283.0)">Δ cyc / op — ordering surcharge (≈ 0)</text>
<path d="M668.0 411.4 L831.3 409.6 L994.7 402.9 L1158.0 420.8" fill="none" stroke="#000000" stroke-width="1.7"/>
<circle cx="668.0" cy="411.4" r="3.4" fill="#000000"/>
<circle cx="831.3" cy="409.6" r="3.4" fill="#000000"/>
<circle cx="994.7" cy="402.9" r="3.4" fill="#000000"/>
<circle cx="1158.0" cy="420.8" r="3.4" fill="#000000"/>
<path d="M668.0 394.2 L831.3 391.5 L994.7 443.0 L1158.0 131.0" fill="none" stroke="#5a5a5a" stroke-width="1.7" stroke-dasharray="2,3"/>
<polygon points="668.0,390.3 664.6,397.6 671.4,397.6" fill="#5a5a5a"/>
<polygon points="831.3,387.6 827.9,394.9 834.7,394.9" fill="#5a5a5a"/>
<polygon points="994.7,439.1 991.3,446.4 998.1,446.4" fill="#5a5a5a"/>
<polygon points="1158.0,127.1 1154.6,134.4 1161.4,134.4" fill="#5a5a5a"/>
<path d="M668.0 412.3 L831.3 411.2 L994.7 421.2 L1158.0 413.7" fill="none" stroke="#000000" stroke-width="1.7" stroke-dasharray="7,4"/>
<rect x="664.6" y="408.9" width="6.8" height="6.8" fill="#000000"/>
<rect x="827.9" y="407.8" width="6.8" height="6.8" fill="#000000"/>
<rect x="991.3" y="417.8" width="6.8" height="6.8" fill="#000000"/>
<rect x="1154.6" y="410.3" width="6.8" height="6.8" fill="#000000"/>
<text x="30" y="538" font-size="9" fill="#666">GH200 ARM Neoverse-V2, 3.375 GHz fixed (1 cyc ≈ 0.296 ns), 1,000,000 iters/repeat; paired baseline+treatment; PMU via perf_event_open (user-mode); objdump-verified.</text>
</svg>