<svg xmlns="http://www.w3.org/2000/svg" width="1072" height="420" viewBox="0 0 1072 420" font-family="sans-serif">
<rect width="1072" height="420" fill="white"/>
<text x="536" y="20" text-anchor="middle" font-size="15" font-weight="bold">At a glance — baseline vs memory-ordered at after_every · N=64</text>
<rect x="371" y="32" width="12" height="12" fill="#ffffff" stroke="black" stroke-width="0.8"/>
<text x="387" y="42" font-size="11">baseline miss</text>
<rect x="491" y="32" width="12" height="12" fill="#3f3f3f" stroke="black" stroke-width="0.8"/>
<text x="507" y="42" font-size="11">memory-ordered miss</text>
<rect x="611" y="32" width="12" height="12" fill="#e8e8e8" stroke="black" stroke-width="0.8"/>
<text x="627" y="42" font-size="11">baseline hit</text>
<rect x="731" y="32" width="12" height="12" fill="#7f7f7f" stroke="black" stroke-width="0.8"/>
<text x="747" y="42" font-size="11">memory-ordered hit</text>
<line x1="58" y1="60" x2="58" y2="366" stroke="black" stroke-width="1.4"/>
<line x1="58" y1="366" x2="518" y2="366" stroke="black" stroke-width="1.4"/>
<text x="15" y="216" font-size="12" text-anchor="middle" transform="rotate(-90 15 216)">cycles / iteration</text>
<text x="288" y="408" font-size="12" text-anchor="middle">memory-ordered instruction</text>
<rect x="70.0" y="328.0" width="15.0" height="38.0" fill="#ffffff" stroke="black" stroke-width="0.7"/>
<text x="79.9" y="324.0" font-size="7.5" text-anchor="start" transform="rotate(-90 79.9 324.0)">706</text>
<rect x="87.0" y="144.7" width="15.0" height="221.3" fill="#3f3f3f" stroke="black" stroke-width="0.7"/>
<text x="97.0" y="140.7" font-size="7.5" text-anchor="start" transform="rotate(-90 97.0 140.7)">4107</text>
<rect x="104.0" y="354.4" width="15.0" height="11.6" fill="#e8e8e8" stroke="black" stroke-width="0.7"/>
<text x="114.0" y="350.4" font-size="7.5" text-anchor="start" transform="rotate(-90 114.0 350.4)">215</text>
<rect x="121.0" y="320.9" width="15.0" height="45.1" fill="#7f7f7f" stroke="black" stroke-width="0.7"/>
<text x="131.0" y="316.9" font-size="7.5" text-anchor="start" transform="rotate(-90 131.0 316.9)">836</text>
<text x="104.0" y="382" font-size="11" text-anchor="middle">dmb_ish</text>
<rect x="162.0" y="328.0" width="15.0" height="38.0" fill="#ffffff" stroke="black" stroke-width="0.7"/>
<text x="171.9" y="324.0" font-size="7.5" text-anchor="start" transform="rotate(-90 171.9 324.0)">706</text>
<rect x="179.0" y="120.1" width="15.0" height="245.9" fill="#3f3f3f" stroke="black" stroke-width="0.7"/>
<text x="189.0" y="116.1" font-size="7.5" text-anchor="start" transform="rotate(-90 189.0 116.1)">4563</text>
<rect x="196.0" y="354.4" width="15.0" height="11.6" fill="#e8e8e8" stroke="black" stroke-width="0.7"/>
<text x="206.0" y="350.4" font-size="7.5" text-anchor="start" transform="rotate(-90 206.0 350.4)">215</text>
<rect x="213.0" y="320.9" width="15.0" height="45.1" fill="#7f7f7f" stroke="black" stroke-width="0.7"/>
<text x="223.0" y="316.9" font-size="7.5" text-anchor="start" transform="rotate(-90 223.0 316.9)">837</text>
<text x="196.0" y="382" font-size="11" text-anchor="middle">dmb_sy</text>
<rect x="254.0" y="328.0" width="15.0" height="38.0" fill="#ffffff" stroke="black" stroke-width="0.7"/>
<text x="263.9" y="324.0" font-size="7.5" text-anchor="start" transform="rotate(-90 263.9 324.0)">706</text>
<rect x="271.0" y="199.7" width="15.0" height="166.3" fill="#3f3f3f" stroke="black" stroke-width="0.7"/>
<text x="281.0" y="195.7" font-size="7.5" text-anchor="start" transform="rotate(-90 281.0 195.7)">3087</text>
<rect x="288.0" y="354.4" width="15.0" height="11.6" fill="#e8e8e8" stroke="black" stroke-width="0.7"/>
<text x="298.0" y="350.4" font-size="7.5" text-anchor="start" transform="rotate(-90 298.0 350.4)">215</text>
<rect x="305.0" y="344.8" width="15.0" height="21.2" fill="#7f7f7f" stroke="black" stroke-width="0.7"/>
<text x="315.0" y="340.8" font-size="7.5" text-anchor="start" transform="rotate(-90 315.0 340.8)">393</text>
<text x="288.0" y="382" font-size="11" text-anchor="middle">dmb_ishst</text>
<rect x="346.0" y="328.0" width="15.0" height="38.0" fill="#ffffff" stroke="black" stroke-width="0.7"/>
<text x="355.9" y="324.0" font-size="7.5" text-anchor="start" transform="rotate(-90 355.9 324.0)">706</text>
<rect x="363.0" y="198.6" width="15.0" height="167.4" fill="#3f3f3f" stroke="black" stroke-width="0.7"/>
<text x="373.0" y="194.6" font-size="7.5" text-anchor="start" transform="rotate(-90 373.0 194.6)">3106</text>
<rect x="380.0" y="354.4" width="15.0" height="11.6" fill="#e8e8e8" stroke="black" stroke-width="0.7"/>
<text x="390.0" y="350.4" font-size="7.5" text-anchor="start" transform="rotate(-90 390.0 350.4)">215</text>
<rect x="397.0" y="344.7" width="15.0" height="21.3" fill="#7f7f7f" stroke="black" stroke-width="0.7"/>
<text x="407.0" y="340.7" font-size="7.5" text-anchor="start" transform="rotate(-90 407.0 340.7)">396</text>
<text x="380.0" y="382" font-size="11" text-anchor="middle">dmb_st</text>
<rect x="438.0" y="328.0" width="15.0" height="38.0" fill="#ffffff" stroke="black" stroke-width="0.7"/>
<text x="447.9" y="324.0" font-size="7.5" text-anchor="start" transform="rotate(-90 447.9 324.0)">706</text>
<rect x="455.0" y="209.8" width="15.0" height="156.2" fill="#3f3f3f" stroke="black" stroke-width="0.7"/>
<text x="465.0" y="205.8" font-size="7.5" text-anchor="start" transform="rotate(-90 465.0 205.8)">2900</text>
<rect x="472.0" y="354.4" width="15.0" height="11.6" fill="#e8e8e8" stroke="black" stroke-width="0.7"/>
<text x="482.0" y="350.4" font-size="7.5" text-anchor="start" transform="rotate(-90 482.0 350.4)">215</text>
<rect x="489.0" y="354.1" width="15.0" height="11.9" fill="#7f7f7f" stroke="black" stroke-width="0.7"/>
<text x="499.0" y="350.1" font-size="7.5" text-anchor="start" transform="rotate(-90 499.0 350.1)">220</text>
<text x="472.0" y="382" font-size="11" text-anchor="middle">stlr</text>
<line x1="594" y1="60" x2="594" y2="366" stroke="black" stroke-width="1.4"/>
<line x1="594" y1="366" x2="1054" y2="366" stroke="black" stroke-width="1.4"/>
<text x="551" y="216" font-size="12" text-anchor="middle" transform="rotate(-90 551 216)">wall-time / iteration (ns)</text>
<text x="824" y="408" font-size="12" text-anchor="middle">memory-ordered instruction</text>
<rect x="606.0" y="327.9" width="15.0" height="38.1" fill="#ffffff" stroke="black" stroke-width="0.7"/>
<text x="615.9" y="323.9" font-size="7.5" text-anchor="start" transform="rotate(-90 615.9 323.9)">220</text>
<rect x="623.0" y="144.6" width="15.0" height="221.4" fill="#3f3f3f" stroke="black" stroke-width="0.7"/>
<text x="633.0" y="140.6" font-size="7.5" text-anchor="start" transform="rotate(-90 633.0 140.6)">1276</text>
<rect x="640.0" y="354.4" width="15.0" height="11.6" fill="#e8e8e8" stroke="black" stroke-width="0.7"/>
<text x="650.0" y="350.4" font-size="7.5" text-anchor="start" transform="rotate(-90 650.0 350.4)">66.7</text>
<rect x="657.0" y="321.0" width="15.0" height="45.0" fill="#7f7f7f" stroke="black" stroke-width="0.7"/>
<text x="667.0" y="317.0" font-size="7.5" text-anchor="start" transform="rotate(-90 667.0 317.0)">259</text>
<text x="640.0" y="382" font-size="11" text-anchor="middle">dmb_ish</text>
<rect x="698.0" y="327.9" width="15.0" height="38.1" fill="#ffffff" stroke="black" stroke-width="0.7"/>
<text x="707.9" y="323.9" font-size="7.5" text-anchor="start" transform="rotate(-90 707.9 323.9)">220</text>
<rect x="715.0" y="120.1" width="15.0" height="245.9" fill="#3f3f3f" stroke="black" stroke-width="0.7"/>
<text x="725.0" y="116.1" font-size="7.5" text-anchor="start" transform="rotate(-90 725.0 116.1)">1417</text>
<rect x="732.0" y="354.4" width="15.0" height="11.6" fill="#e8e8e8" stroke="black" stroke-width="0.7"/>
<text x="742.0" y="350.4" font-size="7.5" text-anchor="start" transform="rotate(-90 742.0 350.4)">66.7</text>
<rect x="749.0" y="320.9" width="15.0" height="45.1" fill="#7f7f7f" stroke="black" stroke-width="0.7"/>
<text x="759.0" y="316.9" font-size="7.5" text-anchor="start" transform="rotate(-90 759.0 316.9)">260</text>
<text x="732.0" y="382" font-size="11" text-anchor="middle">dmb_sy</text>
<rect x="790.0" y="327.9" width="15.0" height="38.1" fill="#ffffff" stroke="black" stroke-width="0.7"/>
<text x="799.9" y="323.9" font-size="7.5" text-anchor="start" transform="rotate(-90 799.9 323.9)">220</text>
<rect x="807.0" y="199.6" width="15.0" height="166.4" fill="#3f3f3f" stroke="black" stroke-width="0.7"/>
<text x="817.0" y="195.6" font-size="7.5" text-anchor="start" transform="rotate(-90 817.0 195.6)">959</text>
<rect x="824.0" y="354.4" width="15.0" height="11.6" fill="#e8e8e8" stroke="black" stroke-width="0.7"/>
<text x="834.0" y="350.4" font-size="7.5" text-anchor="start" transform="rotate(-90 834.0 350.4)">66.7</text>
<rect x="841.0" y="344.9" width="15.0" height="21.1" fill="#7f7f7f" stroke="black" stroke-width="0.7"/>
<text x="851.0" y="340.9" font-size="7.5" text-anchor="start" transform="rotate(-90 851.0 340.9)">122</text>
<text x="824.0" y="382" font-size="11" text-anchor="middle">dmb_ishst</text>
<rect x="882.0" y="327.9" width="15.0" height="38.1" fill="#ffffff" stroke="black" stroke-width="0.7"/>
<text x="891.9" y="323.9" font-size="7.5" text-anchor="start" transform="rotate(-90 891.9 323.9)">220</text>
<rect x="899.0" y="198.6" width="15.0" height="167.4" fill="#3f3f3f" stroke="black" stroke-width="0.7"/>
<text x="909.0" y="194.6" font-size="7.5" text-anchor="start" transform="rotate(-90 909.0 194.6)">965</text>
<rect x="916.0" y="354.4" width="15.0" height="11.6" fill="#e8e8e8" stroke="black" stroke-width="0.7"/>
<text x="926.0" y="350.4" font-size="7.5" text-anchor="start" transform="rotate(-90 926.0 350.4)">66.7</text>
<rect x="933.0" y="344.7" width="15.0" height="21.3" fill="#7f7f7f" stroke="black" stroke-width="0.7"/>
<text x="943.0" y="340.7" font-size="7.5" text-anchor="start" transform="rotate(-90 943.0 340.7)">123</text>
<text x="916.0" y="382" font-size="11" text-anchor="middle">dmb_st</text>
<rect x="974.0" y="327.9" width="15.0" height="38.1" fill="#ffffff" stroke="black" stroke-width="0.7"/>
<text x="983.9" y="323.9" font-size="7.5" text-anchor="start" transform="rotate(-90 983.9 323.9)">220</text>
<rect x="991.0" y="209.7" width="15.0" height="156.3" fill="#3f3f3f" stroke="black" stroke-width="0.7"/>
<text x="1001.0" y="205.7" font-size="7.5" text-anchor="start" transform="rotate(-90 1001.0 205.7)">901</text>
<rect x="1008.0" y="354.4" width="15.0" height="11.6" fill="#e8e8e8" stroke="black" stroke-width="0.7"/>
<text x="1018.0" y="350.4" font-size="7.5" text-anchor="start" transform="rotate(-90 1018.0 350.4)">66.7</text>
<rect x="1025.0" y="354.1" width="15.0" height="11.9" fill="#7f7f7f" stroke="black" stroke-width="0.7"/>
<text x="1035.0" y="350.1" font-size="7.5" text-anchor="start" transform="rotate(-90 1035.0 350.1)">68.3</text>
<text x="1008.0" y="382" font-size="11" text-anchor="middle">stlr</text>
</svg>