<svg xmlns="http://www.w3.org/2000/svg" width="1072" height="420" viewBox="0 0 1072 420" font-family="sans-serif">
<rect width="1072" height="420" fill="white"/>
<text x="536" y="20" text-anchor="middle" font-size="15" font-weight="bold">At a glance — baseline vs memory-ordered at after_every · N=64, by residency</text>
<rect x="371" y="32" width="12" height="12" fill="#cfcfcf" stroke="black" stroke-width="0.8"/>
<text x="387" y="42" font-size="11">l1</text>
<rect x="491" y="32" width="12" height="12" fill="#9e9e9e" stroke="black" stroke-width="0.8"/>
<text x="507" y="42" font-size="11">l2</text>
<rect x="611" y="32" width="12" height="12" fill="#6e6e6e" stroke="black" stroke-width="0.8"/>
<text x="627" y="42" font-size="11">l3</text>
<rect x="731" y="32" width="12" height="12" fill="#3f3f3f" stroke="black" stroke-width="0.8"/>
<text x="747" y="42" font-size="11">dram</text>
<line x1="58" y1="60" x2="58" y2="366" stroke="black" stroke-width="1.4"/>
<line x1="58" y1="366" x2="518" y2="366" stroke="black" stroke-width="1.4"/>
<text x="15" y="216" font-size="12" text-anchor="middle" transform="rotate(-90 15 216)">cycles / iteration</text>
<text x="288" y="408" font-size="12" text-anchor="middle">(baseline) / memory-ordered instruction</text>
<rect x="68.0" y="353.5" width="12.5" height="12.5" fill="#cfcfcf" stroke="black" stroke-width="0.7"/>
<text x="76.7" y="349.5" font-size="7.5" text-anchor="start" transform="rotate(-90 76.7 349.5)">220</text>
<rect x="82.2" y="352.7" width="12.5" height="13.3" fill="#9e9e9e" stroke="black" stroke-width="0.7"/>
<text x="90.9" y="348.7" font-size="7.5" text-anchor="start" transform="rotate(-90 90.9 348.7)">234</text>
<rect x="96.3" y="345.6" width="12.5" height="20.4" fill="#6e6e6e" stroke="black" stroke-width="0.7"/>
<text x="105.1" y="341.6" font-size="7.5" text-anchor="start" transform="rotate(-90 105.1 341.6)">357</text>
<rect x="110.5" y="304.2" width="12.5" height="61.8" fill="#3f3f3f" stroke="black" stroke-width="0.7"/>
<text x="119.3" y="300.2" font-size="7.5" text-anchor="start" transform="rotate(-90 119.3 300.2)">1085</text>
<text x="96.3" y="382" font-size="11" text-anchor="middle">baseline</text>
<rect x="144.6" y="318.0" width="12.5" height="48.0" fill="#cfcfcf" stroke="black" stroke-width="0.7"/>
<text x="153.4" y="314.0" font-size="7.5" text-anchor="start" transform="rotate(-90 153.4 314.0)">842</text>
<rect x="158.8" y="316.7" width="12.5" height="49.3" fill="#9e9e9e" stroke="black" stroke-width="0.7"/>
<text x="167.6" y="312.7" font-size="7.5" text-anchor="start" transform="rotate(-90 167.6 312.7)">864</text>
<rect x="173.0" y="290.4" width="12.5" height="75.6" fill="#6e6e6e" stroke="black" stroke-width="0.7"/>
<text x="181.7" y="286.4" font-size="7.5" text-anchor="start" transform="rotate(-90 181.7 286.4)">1326</text>
<rect x="187.2" y="120.1" width="12.5" height="245.9" fill="#3f3f3f" stroke="black" stroke-width="0.7"/>
<text x="195.9" y="116.1" font-size="7.5" text-anchor="start" transform="rotate(-90 195.9 116.1)">4315</text>
<text x="173.0" y="382" font-size="11" text-anchor="middle">dmb_ish</text>
<rect x="221.3" y="317.9" width="12.5" height="48.1" fill="#cfcfcf" stroke="black" stroke-width="0.7"/>
<text x="230.0" y="313.9" font-size="7.5" text-anchor="start" transform="rotate(-90 230.0 313.9)">844</text>
<rect x="235.5" y="317.2" width="12.5" height="48.8" fill="#9e9e9e" stroke="black" stroke-width="0.7"/>
<text x="244.2" y="313.2" font-size="7.5" text-anchor="start" transform="rotate(-90 244.2 313.2)">857</text>
<rect x="249.7" y="291.1" width="12.5" height="74.9" fill="#6e6e6e" stroke="black" stroke-width="0.7"/>
<text x="258.4" y="287.1" font-size="7.5" text-anchor="start" transform="rotate(-90 258.4 287.1)">1314</text>
<rect x="263.9" y="120.4" width="12.5" height="245.6" fill="#3f3f3f" stroke="black" stroke-width="0.7"/>
<text x="272.6" y="116.4" font-size="7.5" text-anchor="start" transform="rotate(-90 272.6 116.4)">4310</text>
<text x="249.7" y="382" font-size="11" text-anchor="middle">dmb_sy</text>
<rect x="298.0" y="344.3" width="12.5" height="21.7" fill="#cfcfcf" stroke="black" stroke-width="0.7"/>
<text x="306.7" y="340.3" font-size="7.5" text-anchor="start" transform="rotate(-90 306.7 340.3)">381</text>
<rect x="312.1" y="342.4" width="12.5" height="23.6" fill="#9e9e9e" stroke="black" stroke-width="0.7"/>
<text x="320.9" y="338.4" font-size="7.5" text-anchor="start" transform="rotate(-90 320.9 338.4)">413</text>
<rect x="326.3" y="322.7" width="12.5" height="43.3" fill="#6e6e6e" stroke="black" stroke-width="0.7"/>
<text x="335.1" y="318.7" font-size="7.5" text-anchor="start" transform="rotate(-90 335.1 318.7)">761</text>
<rect x="340.5" y="196.6" width="12.5" height="169.4" fill="#3f3f3f" stroke="black" stroke-width="0.7"/>
<text x="349.3" y="192.6" font-size="7.5" text-anchor="start" transform="rotate(-90 349.3 192.6)">2973</text>
<text x="326.3" y="382" font-size="11" text-anchor="middle">dmb_ishst</text>
<rect x="374.6" y="344.3" width="12.5" height="21.7" fill="#cfcfcf" stroke="black" stroke-width="0.7"/>
<text x="383.4" y="340.3" font-size="7.5" text-anchor="start" transform="rotate(-90 383.4 340.3)">381</text>
<rect x="388.8" y="341.6" width="12.5" height="24.4" fill="#9e9e9e" stroke="black" stroke-width="0.7"/>
<text x="397.6" y="337.6" font-size="7.5" text-anchor="start" transform="rotate(-90 397.6 337.6)">428</text>
<rect x="403.0" y="322.3" width="12.5" height="43.7" fill="#6e6e6e" stroke="black" stroke-width="0.7"/>
<text x="411.7" y="318.3" font-size="7.5" text-anchor="start" transform="rotate(-90 411.7 318.3)">767</text>
<rect x="417.2" y="197.0" width="12.5" height="169.0" fill="#3f3f3f" stroke="black" stroke-width="0.7"/>
<text x="425.9" y="193.0" font-size="7.5" text-anchor="start" transform="rotate(-90 425.9 193.0)">2966</text>
<text x="403.0" y="382" font-size="11" text-anchor="middle">dmb_st</text>
<rect x="451.3" y="353.5" width="12.5" height="12.5" fill="#cfcfcf" stroke="black" stroke-width="0.7"/>
<text x="460.0" y="349.5" font-size="7.5" text-anchor="start" transform="rotate(-90 460.0 349.5)">219</text>
<rect x="465.5" y="352.7" width="12.5" height="13.3" fill="#9e9e9e" stroke="black" stroke-width="0.7"/>
<text x="474.2" y="348.7" font-size="7.5" text-anchor="start" transform="rotate(-90 474.2 348.7)">234</text>
<rect x="479.7" y="326.1" width="12.5" height="39.9" fill="#6e6e6e" stroke="black" stroke-width="0.7"/>
<text x="488.4" y="322.1" font-size="7.5" text-anchor="start" transform="rotate(-90 488.4 322.1)">700</text>
<rect x="493.9" y="224.2" width="12.5" height="141.8" fill="#3f3f3f" stroke="black" stroke-width="0.7"/>
<text x="502.6" y="220.2" font-size="7.5" text-anchor="start" transform="rotate(-90 502.6 220.2)">2489</text>
<text x="479.7" y="382" font-size="11" text-anchor="middle">stlr</text>
<line x1="594" y1="60" x2="594" y2="366" stroke="black" stroke-width="1.4"/>
<line x1="594" y1="366" x2="1054" y2="366" stroke="black" stroke-width="1.4"/>
<text x="551" y="216" font-size="12" text-anchor="middle" transform="rotate(-90 551 216)">wall-time / iteration (ns)</text>
<text x="824" y="408" font-size="12" text-anchor="middle">(baseline) / memory-ordered instruction</text>
<rect x="604.0" y="353.5" width="12.5" height="12.5" fill="#cfcfcf" stroke="black" stroke-width="0.7"/>
<text x="612.7" y="349.5" font-size="7.5" text-anchor="start" transform="rotate(-90 612.7 349.5)">68.1</text>
<rect x="618.1" y="352.6" width="12.5" height="13.4" fill="#9e9e9e" stroke="black" stroke-width="0.7"/>
<text x="626.9" y="348.6" font-size="7.5" text-anchor="start" transform="rotate(-90 626.9 348.6)">72.9</text>
<rect x="632.3" y="345.6" width="12.5" height="20.4" fill="#6e6e6e" stroke="black" stroke-width="0.7"/>
<text x="641.1" y="341.6" font-size="7.5" text-anchor="start" transform="rotate(-90 641.1 341.6)">111</text>
<rect x="646.5" y="304.1" width="12.5" height="61.9" fill="#3f3f3f" stroke="black" stroke-width="0.7"/>
<text x="655.3" y="300.1" font-size="7.5" text-anchor="start" transform="rotate(-90 655.3 300.1)">337</text>
<text x="632.3" y="382" font-size="11" text-anchor="middle">baseline</text>
<rect x="680.6" y="318.1" width="12.5" height="47.9" fill="#cfcfcf" stroke="black" stroke-width="0.7"/>
<text x="689.4" y="314.1" font-size="7.5" text-anchor="start" transform="rotate(-90 689.4 314.1)">261</text>
<rect x="694.8" y="316.7" width="12.5" height="49.3" fill="#9e9e9e" stroke="black" stroke-width="0.7"/>
<text x="703.6" y="312.7" font-size="7.5" text-anchor="start" transform="rotate(-90 703.6 312.7)">268</text>
<rect x="709.0" y="290.5" width="12.5" height="75.5" fill="#6e6e6e" stroke="black" stroke-width="0.7"/>
<text x="717.7" y="286.5" font-size="7.5" text-anchor="start" transform="rotate(-90 717.7 286.5)">412</text>
<rect x="723.2" y="120.1" width="12.5" height="245.9" fill="#3f3f3f" stroke="black" stroke-width="0.7"/>
<text x="731.9" y="116.1" font-size="7.5" text-anchor="start" transform="rotate(-90 731.9 116.1)">1340</text>
<text x="709.0" y="382" font-size="11" text-anchor="middle">dmb_ish</text>
<rect x="757.3" y="317.9" width="12.5" height="48.1" fill="#cfcfcf" stroke="black" stroke-width="0.7"/>
<text x="766.0" y="313.9" font-size="7.5" text-anchor="start" transform="rotate(-90 766.0 313.9)">262</text>
<rect x="771.5" y="317.2" width="12.5" height="48.8" fill="#9e9e9e" stroke="black" stroke-width="0.7"/>
<text x="780.2" y="313.2" font-size="7.5" text-anchor="start" transform="rotate(-90 780.2 313.2)">266</text>
<rect x="785.7" y="291.1" width="12.5" height="74.9" fill="#6e6e6e" stroke="black" stroke-width="0.7"/>
<text x="794.4" y="287.1" font-size="7.5" text-anchor="start" transform="rotate(-90 794.4 287.1)">408</text>
<rect x="799.9" y="120.4" width="12.5" height="245.6" fill="#3f3f3f" stroke="black" stroke-width="0.7"/>
<text x="808.6" y="116.4" font-size="7.5" text-anchor="start" transform="rotate(-90 808.6 116.4)">1338</text>
<text x="785.7" y="382" font-size="11" text-anchor="middle">dmb_sy</text>
<rect x="834.0" y="344.3" width="12.5" height="21.7" fill="#cfcfcf" stroke="black" stroke-width="0.7"/>
<text x="842.7" y="340.3" font-size="7.5" text-anchor="start" transform="rotate(-90 842.7 340.3)">118</text>
<rect x="848.1" y="342.4" width="12.5" height="23.6" fill="#9e9e9e" stroke="black" stroke-width="0.7"/>
<text x="856.9" y="338.4" font-size="7.5" text-anchor="start" transform="rotate(-90 856.9 338.4)">128</text>
<rect x="862.3" y="322.7" width="12.5" height="43.3" fill="#6e6e6e" stroke="black" stroke-width="0.7"/>
<text x="871.1" y="318.7" font-size="7.5" text-anchor="start" transform="rotate(-90 871.1 318.7)">236</text>
<rect x="876.5" y="196.5" width="12.5" height="169.5" fill="#3f3f3f" stroke="black" stroke-width="0.7"/>
<text x="885.3" y="192.5" font-size="7.5" text-anchor="start" transform="rotate(-90 885.3 192.5)">923</text>
<text x="862.3" y="382" font-size="11" text-anchor="middle">dmb_ishst</text>
<rect x="910.6" y="344.3" width="12.5" height="21.7" fill="#cfcfcf" stroke="black" stroke-width="0.7"/>
<text x="919.4" y="340.3" font-size="7.5" text-anchor="start" transform="rotate(-90 919.4 340.3)">118</text>
<rect x="924.8" y="341.6" width="12.5" height="24.4" fill="#9e9e9e" stroke="black" stroke-width="0.7"/>
<text x="933.6" y="337.6" font-size="7.5" text-anchor="start" transform="rotate(-90 933.6 337.6)">133</text>
<rect x="939.0" y="322.3" width="12.5" height="43.7" fill="#6e6e6e" stroke="black" stroke-width="0.7"/>
<text x="947.7" y="318.3" font-size="7.5" text-anchor="start" transform="rotate(-90 947.7 318.3)">238</text>
<rect x="953.2" y="196.9" width="12.5" height="169.1" fill="#3f3f3f" stroke="black" stroke-width="0.7"/>
<text x="961.9" y="192.9" font-size="7.5" text-anchor="start" transform="rotate(-90 961.9 192.9)">921</text>
<text x="939.0" y="382" font-size="11" text-anchor="middle">dmb_st</text>
<rect x="987.3" y="353.5" width="12.5" height="12.5" fill="#cfcfcf" stroke="black" stroke-width="0.7"/>
<text x="996.0" y="349.5" font-size="7.5" text-anchor="start" transform="rotate(-90 996.0 349.5)">68.0</text>
<rect x="1001.5" y="352.6" width="12.5" height="13.4" fill="#9e9e9e" stroke="black" stroke-width="0.7"/>
<text x="1010.2" y="348.6" font-size="7.5" text-anchor="start" transform="rotate(-90 1010.2 348.6)">72.8</text>
<rect x="1015.7" y="326.1" width="12.5" height="39.9" fill="#6e6e6e" stroke="black" stroke-width="0.7"/>
<text x="1024.4" y="322.1" font-size="7.5" text-anchor="start" transform="rotate(-90 1024.4 322.1)">217</text>
<rect x="1029.9" y="224.1" width="12.5" height="141.9" fill="#3f3f3f" stroke="black" stroke-width="0.7"/>
<text x="1038.6" y="220.1" font-size="7.5" text-anchor="start" transform="rotate(-90 1038.6 220.1)">773</text>
<text x="1015.7" y="382" font-size="11" text-anchor="middle">stlr</text>
</svg>