<svg xmlns="http://www.w3.org/2000/svg" width="1072" height="420" viewBox="0 0 1072 420" font-family="sans-serif">
<rect width="1072" height="420" fill="white"/>
<text x="536" y="20" text-anchor="middle" font-size="15" font-weight="bold">dmb_sy  (miss)</text>
<rect x="371" y="32" width="12" height="12" fill="#ffffff" stroke="black" stroke-width="0.8"/>
<text x="387" y="42" font-size="11">Baseline</text>
<rect x="491" y="32" width="12" height="12" fill="#9e9e9e" stroke="black" stroke-width="0.8"/>
<text x="507" y="42" font-size="11">After group</text>
<rect x="611" y="32" width="12" height="12" fill="#3f3f3f" stroke="black" stroke-width="0.8"/>
<text x="627" y="42" font-size="11">After every</text>
<line x1="58" y1="60" x2="58" y2="366" stroke="black" stroke-width="1.4"/>
<line x1="58" y1="366" x2="518" y2="366" stroke="black" stroke-width="1.4"/>
<text x="15" y="216" font-size="12" text-anchor="middle" transform="rotate(-90 15 216)">Cycles</text>
<text x="288" y="408" font-size="12" text-anchor="middle">Number of Inst. (N)</text>
<rect x="66.5" y="365.6" width="14.3" height="0.4" fill="#ffffff" stroke="black" stroke-width="0.7"/>
<text x="76.2" y="361.6" font-size="7.5" text-anchor="start" transform="rotate(-90 76.2 361.6)">8.3</text>
<rect x="82.8" y="363.6" width="14.3" height="2.4" fill="#9e9e9e" stroke="black" stroke-width="0.7"/>
<text x="92.4" y="359.6" font-size="7.5" text-anchor="start" transform="rotate(-90 92.4 359.6)">44.5</text>
<rect x="99.0" y="363.4" width="14.3" height="2.6" fill="#3f3f3f" stroke="black" stroke-width="0.7"/>
<text x="108.6" y="359.4" font-size="7.5" text-anchor="start" transform="rotate(-90 108.6 359.4)">48.8</text>
<text x="90.9" y="382" font-size="11" text-anchor="middle">1</text>
<rect x="132.3" y="365.0" width="14.3" height="1.0" fill="#ffffff" stroke="black" stroke-width="0.7"/>
<text x="141.9" y="361.0" font-size="7.5" text-anchor="start" transform="rotate(-90 141.9 361.0)">19.1</text>
<rect x="148.5" y="360.8" width="14.3" height="5.2" fill="#9e9e9e" stroke="black" stroke-width="0.7"/>
<text x="158.1" y="356.8" font-size="7.5" text-anchor="start" transform="rotate(-90 158.1 356.8)">97.3</text>
<rect x="164.7" y="360.2" width="14.3" height="5.8" fill="#3f3f3f" stroke="black" stroke-width="0.7"/>
<text x="174.3" y="356.2" font-size="7.5" text-anchor="start" transform="rotate(-90 174.3 356.2)">107</text>
<text x="156.6" y="382" font-size="11" text-anchor="middle">2</text>
<rect x="198.0" y="363.6" width="14.3" height="2.4" fill="#ffffff" stroke="black" stroke-width="0.7"/>
<text x="207.6" y="359.6" font-size="7.5" text-anchor="start" transform="rotate(-90 207.6 359.6)">44.3</text>
<rect x="214.2" y="355.3" width="14.3" height="10.7" fill="#9e9e9e" stroke="black" stroke-width="0.7"/>
<text x="223.8" y="351.3" font-size="7.5" text-anchor="start" transform="rotate(-90 223.8 351.3)">198</text>
<rect x="230.4" y="352.3" width="14.3" height="13.7" fill="#3f3f3f" stroke="black" stroke-width="0.7"/>
<text x="240.0" y="348.3" font-size="7.5" text-anchor="start" transform="rotate(-90 240.0 348.3)">254</text>
<text x="222.3" y="382" font-size="11" text-anchor="middle">4</text>
<rect x="263.7" y="361.2" width="14.3" height="4.8" fill="#ffffff" stroke="black" stroke-width="0.7"/>
<text x="273.3" y="357.2" font-size="7.5" text-anchor="start" transform="rotate(-90 273.3 357.2)">88.9</text>
<rect x="279.9" y="346.0" width="14.3" height="20.0" fill="#9e9e9e" stroke="black" stroke-width="0.7"/>
<text x="289.5" y="342.0" font-size="7.5" text-anchor="start" transform="rotate(-90 289.5 342.0)">371</text>
<rect x="296.1" y="339.1" width="14.3" height="26.9" fill="#3f3f3f" stroke="black" stroke-width="0.7"/>
<text x="305.7" y="335.1" font-size="7.5" text-anchor="start" transform="rotate(-90 305.7 335.1)">500</text>
<text x="288.0" y="382" font-size="11" text-anchor="middle">8</text>
<rect x="329.4" y="356.5" width="14.3" height="9.5" fill="#ffffff" stroke="black" stroke-width="0.7"/>
<text x="339.0" y="352.5" font-size="7.5" text-anchor="start" transform="rotate(-90 339.0 352.5)">177</text>
<rect x="345.6" y="329.2" width="14.3" height="36.8" fill="#9e9e9e" stroke="black" stroke-width="0.7"/>
<text x="355.2" y="325.2" font-size="7.5" text-anchor="start" transform="rotate(-90 355.2 325.2)">682</text>
<rect x="361.8" y="307.4" width="14.3" height="58.6" fill="#3f3f3f" stroke="black" stroke-width="0.7"/>
<text x="371.5" y="303.4" font-size="7.5" text-anchor="start" transform="rotate(-90 371.5 303.4)">1087</text>
<text x="353.7" y="382" font-size="11" text-anchor="middle">16</text>
<rect x="395.1" y="347.0" width="14.3" height="19.0" fill="#ffffff" stroke="black" stroke-width="0.7"/>
<text x="404.7" y="343.0" font-size="7.5" text-anchor="start" transform="rotate(-90 404.7 343.0)">353</text>
<rect x="411.3" y="303.5" width="14.3" height="62.5" fill="#9e9e9e" stroke="black" stroke-width="0.7"/>
<text x="421.0" y="299.5" font-size="7.5" text-anchor="start" transform="rotate(-90 421.0 299.5)">1159</text>
<rect x="427.5" y="241.1" width="14.3" height="124.9" fill="#3f3f3f" stroke="black" stroke-width="0.7"/>
<text x="437.2" y="237.1" font-size="7.5" text-anchor="start" transform="rotate(-90 437.2 237.1)">2318</text>
<text x="419.4" y="382" font-size="11" text-anchor="middle">32</text>
<rect x="460.8" y="328.0" width="14.3" height="38.0" fill="#ffffff" stroke="black" stroke-width="0.7"/>
<text x="470.5" y="324.0" font-size="7.5" text-anchor="start" transform="rotate(-90 470.5 324.0)">706</text>
<rect x="477.0" y="284.1" width="14.3" height="81.9" fill="#9e9e9e" stroke="black" stroke-width="0.7"/>
<text x="486.7" y="280.1" font-size="7.5" text-anchor="start" transform="rotate(-90 486.7 280.1)">1521</text>
<rect x="493.2" y="120.1" width="14.3" height="245.9" fill="#3f3f3f" stroke="black" stroke-width="0.7"/>
<text x="502.9" y="116.1" font-size="7.5" text-anchor="start" transform="rotate(-90 502.9 116.1)">4563</text>
<text x="485.1" y="382" font-size="11" text-anchor="middle">64</text>
<line x1="594" y1="60" x2="594" y2="366" stroke="black" stroke-width="1.4"/>
<line x1="594" y1="366" x2="1054" y2="366" stroke="black" stroke-width="1.4"/>
<text x="551" y="216" font-size="12" text-anchor="middle" transform="rotate(-90 551 216)">Wall-time (ns)</text>
<text x="824" y="408" font-size="12" text-anchor="middle">Number of Inst. (N)</text>
<rect x="602.5" y="365.5" width="14.3" height="0.5" fill="#ffffff" stroke="black" stroke-width="0.7"/>
<text x="612.2" y="361.5" font-size="7.5" text-anchor="start" transform="rotate(-90 612.2 361.5)">2.6</text>
<rect x="618.8" y="363.6" width="14.3" height="2.4" fill="#9e9e9e" stroke="black" stroke-width="0.7"/>
<text x="628.4" y="359.6" font-size="7.5" text-anchor="start" transform="rotate(-90 628.4 359.6)">13.9</text>
<rect x="635.0" y="363.4" width="14.3" height="2.6" fill="#3f3f3f" stroke="black" stroke-width="0.7"/>
<text x="644.6" y="359.4" font-size="7.5" text-anchor="start" transform="rotate(-90 644.6 359.4)">15.2</text>
<text x="626.9" y="382" font-size="11" text-anchor="middle">1</text>
<rect x="668.3" y="365.0" width="14.3" height="1.0" fill="#ffffff" stroke="black" stroke-width="0.7"/>
<text x="677.9" y="361.0" font-size="7.5" text-anchor="start" transform="rotate(-90 677.9 361.0)">5.9</text>
<rect x="684.5" y="360.8" width="14.3" height="5.2" fill="#9e9e9e" stroke="black" stroke-width="0.7"/>
<text x="694.1" y="356.8" font-size="7.5" text-anchor="start" transform="rotate(-90 694.1 356.8)">30.2</text>
<rect x="700.7" y="360.2" width="14.3" height="5.8" fill="#3f3f3f" stroke="black" stroke-width="0.7"/>
<text x="710.3" y="356.2" font-size="7.5" text-anchor="start" transform="rotate(-90 710.3 356.2)">33.2</text>
<text x="692.6" y="382" font-size="11" text-anchor="middle">2</text>
<rect x="734.0" y="363.6" width="14.3" height="2.4" fill="#ffffff" stroke="black" stroke-width="0.7"/>
<text x="743.6" y="359.6" font-size="7.5" text-anchor="start" transform="rotate(-90 743.6 359.6)">13.8</text>
<rect x="750.2" y="355.3" width="14.3" height="10.7" fill="#9e9e9e" stroke="black" stroke-width="0.7"/>
<text x="759.8" y="351.3" font-size="7.5" text-anchor="start" transform="rotate(-90 759.8 351.3)">61.4</text>
<rect x="766.4" y="352.3" width="14.3" height="13.7" fill="#3f3f3f" stroke="black" stroke-width="0.7"/>
<text x="776.0" y="348.3" font-size="7.5" text-anchor="start" transform="rotate(-90 776.0 348.3)">78.8</text>
<text x="758.3" y="382" font-size="11" text-anchor="middle">4</text>
<rect x="799.7" y="361.2" width="14.3" height="4.8" fill="#ffffff" stroke="black" stroke-width="0.7"/>
<text x="809.3" y="357.2" font-size="7.5" text-anchor="start" transform="rotate(-90 809.3 357.2)">27.7</text>
<rect x="815.9" y="346.0" width="14.3" height="20.0" fill="#9e9e9e" stroke="black" stroke-width="0.7"/>
<text x="825.5" y="342.0" font-size="7.5" text-anchor="start" transform="rotate(-90 825.5 342.0)">115</text>
<rect x="832.1" y="339.0" width="14.3" height="27.0" fill="#3f3f3f" stroke="black" stroke-width="0.7"/>
<text x="841.7" y="335.0" font-size="7.5" text-anchor="start" transform="rotate(-90 841.7 335.0)">155</text>
<text x="824.0" y="382" font-size="11" text-anchor="middle">8</text>
<rect x="865.4" y="356.5" width="14.3" height="9.5" fill="#ffffff" stroke="black" stroke-width="0.7"/>
<text x="875.0" y="352.5" font-size="7.5" text-anchor="start" transform="rotate(-90 875.0 352.5)">55.0</text>
<rect x="881.6" y="329.2" width="14.3" height="36.8" fill="#9e9e9e" stroke="black" stroke-width="0.7"/>
<text x="891.2" y="325.2" font-size="7.5" text-anchor="start" transform="rotate(-90 891.2 325.2)">212</text>
<rect x="897.8" y="307.4" width="14.3" height="58.6" fill="#3f3f3f" stroke="black" stroke-width="0.7"/>
<text x="907.5" y="303.4" font-size="7.5" text-anchor="start" transform="rotate(-90 907.5 303.4)">338</text>
<text x="889.7" y="382" font-size="11" text-anchor="middle">16</text>
<rect x="931.1" y="346.9" width="14.3" height="19.1" fill="#ffffff" stroke="black" stroke-width="0.7"/>
<text x="940.7" y="342.9" font-size="7.5" text-anchor="start" transform="rotate(-90 940.7 342.9)">110</text>
<rect x="947.3" y="303.5" width="14.3" height="62.5" fill="#9e9e9e" stroke="black" stroke-width="0.7"/>
<text x="957.0" y="299.5" font-size="7.5" text-anchor="start" transform="rotate(-90 957.0 299.5)">360</text>
<rect x="963.5" y="241.1" width="14.3" height="124.9" fill="#3f3f3f" stroke="black" stroke-width="0.7"/>
<text x="973.2" y="237.1" font-size="7.5" text-anchor="start" transform="rotate(-90 973.2 237.1)">720</text>
<text x="955.4" y="382" font-size="11" text-anchor="middle">32</text>
<rect x="996.8" y="327.9" width="14.3" height="38.1" fill="#ffffff" stroke="black" stroke-width="0.7"/>
<text x="1006.5" y="323.9" font-size="7.5" text-anchor="start" transform="rotate(-90 1006.5 323.9)">220</text>
<rect x="1013.0" y="284.0" width="14.3" height="82.0" fill="#9e9e9e" stroke="black" stroke-width="0.7"/>
<text x="1022.7" y="280.0" font-size="7.5" text-anchor="start" transform="rotate(-90 1022.7 280.0)">473</text>
<rect x="1029.2" y="120.1" width="14.3" height="245.9" fill="#3f3f3f" stroke="black" stroke-width="0.7"/>
<text x="1038.9" y="116.1" font-size="7.5" text-anchor="start" transform="rotate(-90 1038.9 116.1)">1417</text>
<text x="1021.1" y="382" font-size="11" text-anchor="middle">64</text>
</svg>