<svg xmlns="http://www.w3.org/2000/svg" width="1072" height="420" viewBox="0 0 1072 420" font-family="sans-serif">
<rect width="1072" height="420" fill="white"/>
<text x="536" y="20" text-anchor="middle" font-size="15" font-weight="bold">dmb_ish  (miss)</text>
<rect x="371" y="32" width="12" height="12" fill="#ffffff" stroke="black" stroke-width="0.8"/>
<text x="387" y="42" font-size="11">Baseline</text>
<rect x="491" y="32" width="12" height="12" fill="#9e9e9e" stroke="black" stroke-width="0.8"/>
<text x="507" y="42" font-size="11">After group</text>
<rect x="611" y="32" width="12" height="12" fill="#3f3f3f" stroke="black" stroke-width="0.8"/>
<text x="627" y="42" font-size="11">After every</text>
<line x1="58" y1="60" x2="58" y2="366" stroke="black" stroke-width="1.4"/>
<line x1="58" y1="366" x2="518" y2="366" stroke="black" stroke-width="1.4"/>
<text x="15" y="216" font-size="12" text-anchor="middle" transform="rotate(-90 15 216)">Cycles</text>
<text x="288" y="408" font-size="12" text-anchor="middle">Number of Inst. (N)</text>
<rect x="66.5" y="365.5" width="14.3" height="0.5" fill="#ffffff" stroke="black" stroke-width="0.7"/>
<text x="76.2" y="361.5" font-size="7.5" text-anchor="start" transform="rotate(-90 76.2 361.5)">8.3</text>
<rect x="82.8" y="362.5" width="14.3" height="3.5" fill="#9e9e9e" stroke="black" stroke-width="0.7"/>
<text x="92.4" y="358.5" font-size="7.5" text-anchor="start" transform="rotate(-90 92.4 358.5)">57.7</text>
<rect x="99.0" y="363.2" width="14.3" height="2.8" fill="#3f3f3f" stroke="black" stroke-width="0.7"/>
<text x="108.6" y="359.2" font-size="7.5" text-anchor="start" transform="rotate(-90 108.6 359.2)">46.7</text>
<text x="90.9" y="382" font-size="11" text-anchor="middle">1</text>
<rect x="132.3" y="364.9" width="14.3" height="1.1" fill="#ffffff" stroke="black" stroke-width="0.7"/>
<text x="141.9" y="360.9" font-size="7.5" text-anchor="start" transform="rotate(-90 141.9 360.9)">19.1</text>
<rect x="148.5" y="360.1" width="14.3" height="5.9" fill="#9e9e9e" stroke="black" stroke-width="0.7"/>
<text x="158.1" y="356.1" font-size="7.5" text-anchor="start" transform="rotate(-90 158.1 356.1)">98.2</text>
<rect x="164.7" y="359.1" width="14.3" height="6.9" fill="#3f3f3f" stroke="black" stroke-width="0.7"/>
<text x="174.3" y="355.1" font-size="7.5" text-anchor="start" transform="rotate(-90 174.3 355.1)">115</text>
<text x="156.6" y="382" font-size="11" text-anchor="middle">2</text>
<rect x="198.0" y="363.3" width="14.3" height="2.7" fill="#ffffff" stroke="black" stroke-width="0.7"/>
<text x="207.6" y="359.3" font-size="7.5" text-anchor="start" transform="rotate(-90 207.6 359.3)">44.3</text>
<rect x="214.2" y="354.2" width="14.3" height="11.8" fill="#9e9e9e" stroke="black" stroke-width="0.7"/>
<text x="223.8" y="350.2" font-size="7.5" text-anchor="start" transform="rotate(-90 223.8 350.2)">198</text>
<rect x="230.4" y="350.8" width="14.3" height="15.2" fill="#3f3f3f" stroke="black" stroke-width="0.7"/>
<text x="240.0" y="346.8" font-size="7.5" text-anchor="start" transform="rotate(-90 240.0 346.8)">254</text>
<text x="222.3" y="382" font-size="11" text-anchor="middle">4</text>
<rect x="263.7" y="360.7" width="14.3" height="5.3" fill="#ffffff" stroke="black" stroke-width="0.7"/>
<text x="273.3" y="356.7" font-size="7.5" text-anchor="start" transform="rotate(-90 273.3 356.7)">88.9</text>
<rect x="279.9" y="343.1" width="14.3" height="22.9" fill="#9e9e9e" stroke="black" stroke-width="0.7"/>
<text x="289.5" y="339.1" font-size="7.5" text-anchor="start" transform="rotate(-90 289.5 339.1)">383</text>
<rect x="296.1" y="332.2" width="14.3" height="33.8" fill="#3f3f3f" stroke="black" stroke-width="0.7"/>
<text x="305.7" y="328.2" font-size="7.5" text-anchor="start" transform="rotate(-90 305.7 328.2)">564</text>
<text x="288.0" y="382" font-size="11" text-anchor="middle">8</text>
<rect x="329.4" y="355.4" width="14.3" height="10.6" fill="#ffffff" stroke="black" stroke-width="0.7"/>
<text x="339.0" y="351.4" font-size="7.5" text-anchor="start" transform="rotate(-90 339.0 351.4)">177</text>
<rect x="345.6" y="325.2" width="14.3" height="40.8" fill="#9e9e9e" stroke="black" stroke-width="0.7"/>
<text x="355.2" y="321.2" font-size="7.5" text-anchor="start" transform="rotate(-90 355.2 321.2)">681</text>
<rect x="361.8" y="301.0" width="14.3" height="65.0" fill="#3f3f3f" stroke="black" stroke-width="0.7"/>
<text x="371.5" y="297.0" font-size="7.5" text-anchor="start" transform="rotate(-90 371.5 297.0)">1085</text>
<text x="353.7" y="382" font-size="11" text-anchor="middle">16</text>
<rect x="395.1" y="344.9" width="14.3" height="21.1" fill="#ffffff" stroke="black" stroke-width="0.7"/>
<text x="404.7" y="340.9" font-size="7.5" text-anchor="start" transform="rotate(-90 404.7 340.9)">353</text>
<rect x="411.3" y="297.3" width="14.3" height="68.7" fill="#9e9e9e" stroke="black" stroke-width="0.7"/>
<text x="421.0" y="293.3" font-size="7.5" text-anchor="start" transform="rotate(-90 421.0 293.3)">1148</text>
<rect x="427.5" y="240.2" width="14.3" height="125.8" fill="#3f3f3f" stroke="black" stroke-width="0.7"/>
<text x="437.2" y="236.2" font-size="7.5" text-anchor="start" transform="rotate(-90 437.2 236.2)">2100</text>
<text x="419.4" y="382" font-size="11" text-anchor="middle">32</text>
<rect x="460.8" y="323.7" width="14.3" height="42.3" fill="#ffffff" stroke="black" stroke-width="0.7"/>
<text x="470.5" y="319.7" font-size="7.5" text-anchor="start" transform="rotate(-90 470.5 319.7)">706</text>
<rect x="477.0" y="280.3" width="14.3" height="85.7" fill="#9e9e9e" stroke="black" stroke-width="0.7"/>
<text x="486.7" y="276.3" font-size="7.5" text-anchor="start" transform="rotate(-90 486.7 276.3)">1431</text>
<rect x="493.2" y="120.1" width="14.3" height="245.9" fill="#3f3f3f" stroke="black" stroke-width="0.7"/>
<text x="502.9" y="116.1" font-size="7.5" text-anchor="start" transform="rotate(-90 502.9 116.1)">4107</text>
<text x="485.1" y="382" font-size="11" text-anchor="middle">64</text>
<line x1="594" y1="60" x2="594" y2="366" stroke="black" stroke-width="1.4"/>
<line x1="594" y1="366" x2="1054" y2="366" stroke="black" stroke-width="1.4"/>
<text x="551" y="216" font-size="12" text-anchor="middle" transform="rotate(-90 551 216)">Wall-time (ns)</text>
<text x="824" y="408" font-size="12" text-anchor="middle">Number of Inst. (N)</text>
<rect x="602.5" y="365.5" width="14.3" height="0.5" fill="#ffffff" stroke="black" stroke-width="0.7"/>
<text x="612.2" y="361.5" font-size="7.5" text-anchor="start" transform="rotate(-90 612.2 361.5)">2.6</text>
<rect x="618.8" y="362.5" width="14.3" height="3.5" fill="#9e9e9e" stroke="black" stroke-width="0.7"/>
<text x="628.4" y="358.5" font-size="7.5" text-anchor="start" transform="rotate(-90 628.4 358.5)">18.0</text>
<rect x="635.0" y="363.2" width="14.3" height="2.8" fill="#3f3f3f" stroke="black" stroke-width="0.7"/>
<text x="644.6" y="359.2" font-size="7.5" text-anchor="start" transform="rotate(-90 644.6 359.2)">14.5</text>
<text x="626.9" y="382" font-size="11" text-anchor="middle">1</text>
<rect x="668.3" y="364.9" width="14.3" height="1.1" fill="#ffffff" stroke="black" stroke-width="0.7"/>
<text x="677.9" y="360.9" font-size="7.5" text-anchor="start" transform="rotate(-90 677.9 360.9)">5.9</text>
<rect x="684.5" y="360.1" width="14.3" height="5.9" fill="#9e9e9e" stroke="black" stroke-width="0.7"/>
<text x="694.1" y="356.1" font-size="7.5" text-anchor="start" transform="rotate(-90 694.1 356.1)">30.5</text>
<rect x="700.7" y="359.1" width="14.3" height="6.9" fill="#3f3f3f" stroke="black" stroke-width="0.7"/>
<text x="710.3" y="355.1" font-size="7.5" text-anchor="start" transform="rotate(-90 710.3 355.1)">35.8</text>
<text x="692.6" y="382" font-size="11" text-anchor="middle">2</text>
<rect x="734.0" y="363.3" width="14.3" height="2.7" fill="#ffffff" stroke="black" stroke-width="0.7"/>
<text x="743.6" y="359.3" font-size="7.5" text-anchor="start" transform="rotate(-90 743.6 359.3)">13.8</text>
<rect x="750.2" y="354.2" width="14.3" height="11.8" fill="#9e9e9e" stroke="black" stroke-width="0.7"/>
<text x="759.8" y="350.2" font-size="7.5" text-anchor="start" transform="rotate(-90 759.8 350.2)">61.5</text>
<rect x="766.4" y="350.8" width="14.3" height="15.2" fill="#3f3f3f" stroke="black" stroke-width="0.7"/>
<text x="776.0" y="346.8" font-size="7.5" text-anchor="start" transform="rotate(-90 776.0 346.8)">79.1</text>
<text x="758.3" y="382" font-size="11" text-anchor="middle">4</text>
<rect x="799.7" y="360.7" width="14.3" height="5.3" fill="#ffffff" stroke="black" stroke-width="0.7"/>
<text x="809.3" y="356.7" font-size="7.5" text-anchor="start" transform="rotate(-90 809.3 356.7)">27.7</text>
<rect x="815.9" y="343.1" width="14.3" height="22.9" fill="#9e9e9e" stroke="black" stroke-width="0.7"/>
<text x="825.5" y="339.1" font-size="7.5" text-anchor="start" transform="rotate(-90 825.5 339.1)">119</text>
<rect x="832.1" y="332.2" width="14.3" height="33.8" fill="#3f3f3f" stroke="black" stroke-width="0.7"/>
<text x="841.7" y="328.2" font-size="7.5" text-anchor="start" transform="rotate(-90 841.7 328.2)">175</text>
<text x="824.0" y="382" font-size="11" text-anchor="middle">8</text>
<rect x="865.4" y="355.4" width="14.3" height="10.6" fill="#ffffff" stroke="black" stroke-width="0.7"/>
<text x="875.0" y="351.4" font-size="7.5" text-anchor="start" transform="rotate(-90 875.0 351.4)">55.0</text>
<rect x="881.6" y="325.2" width="14.3" height="40.8" fill="#9e9e9e" stroke="black" stroke-width="0.7"/>
<text x="891.2" y="321.2" font-size="7.5" text-anchor="start" transform="rotate(-90 891.2 321.2)">212</text>
<rect x="897.8" y="301.1" width="14.3" height="64.9" fill="#3f3f3f" stroke="black" stroke-width="0.7"/>
<text x="907.5" y="297.1" font-size="7.5" text-anchor="start" transform="rotate(-90 907.5 297.1)">337</text>
<text x="889.7" y="382" font-size="11" text-anchor="middle">16</text>
<rect x="931.1" y="344.8" width="14.3" height="21.2" fill="#ffffff" stroke="black" stroke-width="0.7"/>
<text x="940.7" y="340.8" font-size="7.5" text-anchor="start" transform="rotate(-90 940.7 340.8)">110</text>
<rect x="947.3" y="297.2" width="14.3" height="68.8" fill="#9e9e9e" stroke="black" stroke-width="0.7"/>
<text x="957.0" y="293.2" font-size="7.5" text-anchor="start" transform="rotate(-90 957.0 293.2)">357</text>
<rect x="963.5" y="240.2" width="14.3" height="125.8" fill="#3f3f3f" stroke="black" stroke-width="0.7"/>
<text x="973.2" y="236.2" font-size="7.5" text-anchor="start" transform="rotate(-90 973.2 236.2)">652</text>
<text x="955.4" y="382" font-size="11" text-anchor="middle">32</text>
<rect x="996.8" y="323.7" width="14.3" height="42.3" fill="#ffffff" stroke="black" stroke-width="0.7"/>
<text x="1006.5" y="319.7" font-size="7.5" text-anchor="start" transform="rotate(-90 1006.5 319.7)">220</text>
<rect x="1013.0" y="280.3" width="14.3" height="85.7" fill="#9e9e9e" stroke="black" stroke-width="0.7"/>
<text x="1022.7" y="276.3" font-size="7.5" text-anchor="start" transform="rotate(-90 1022.7 276.3)">445</text>
<rect x="1029.2" y="120.1" width="14.3" height="245.9" fill="#3f3f3f" stroke="black" stroke-width="0.7"/>
<text x="1038.9" y="116.1" font-size="7.5" text-anchor="start" transform="rotate(-90 1038.9 116.1)">1276</text>
<text x="1021.1" y="382" font-size="11" text-anchor="middle">64</text>
</svg>