<svg xmlns="http://www.w3.org/2000/svg" width="1072" height="420" viewBox="0 0 1072 420" font-family="sans-serif">
<rect width="1072" height="420" fill="white"/>
<text x="536" y="20" text-anchor="middle" font-size="15" font-weight="bold">dmb_ish  (l3)</text>
<rect x="371" y="32" width="12" height="12" fill="#ffffff" stroke="black" stroke-width="0.8"/>
<text x="387" y="42" font-size="11">Baseline</text>
<rect x="491" y="32" width="12" height="12" fill="#9e9e9e" stroke="black" stroke-width="0.8"/>
<text x="507" y="42" font-size="11">After group</text>
<rect x="611" y="32" width="12" height="12" fill="#3f3f3f" stroke="black" stroke-width="0.8"/>
<text x="627" y="42" font-size="11">After every</text>
<line x1="58" y1="60" x2="58" y2="366" stroke="black" stroke-width="1.4"/>
<line x1="58" y1="366" x2="518" y2="366" stroke="black" stroke-width="1.4"/>
<text x="15" y="216" font-size="12" text-anchor="middle" transform="rotate(-90 15 216)">Cycles</text>
<text x="288" y="408" font-size="12" text-anchor="middle">Number of Inst. (N)</text>
<rect x="66.5" y="361.6" width="14.3" height="4.4" fill="#ffffff" stroke="black" stroke-width="0.7"/>
<text x="76.2" y="357.6" font-size="7.5" text-anchor="start" transform="rotate(-90 76.2 357.6)">23.8</text>
<rect x="82.8" y="359.0" width="14.3" height="7.0" fill="#9e9e9e" stroke="black" stroke-width="0.7"/>
<text x="92.4" y="355.0" font-size="7.5" text-anchor="start" transform="rotate(-90 92.4 355.0)">37.7</text>
<rect x="99.0" y="359.6" width="14.3" height="6.4" fill="#3f3f3f" stroke="black" stroke-width="0.7"/>
<text x="108.6" y="355.6" font-size="7.5" text-anchor="start" transform="rotate(-90 108.6 355.6)">34.6</text>
<text x="90.9" y="382" font-size="11" text-anchor="middle">1</text>
<rect x="132.3" y="361.0" width="14.3" height="5.0" fill="#ffffff" stroke="black" stroke-width="0.7"/>
<text x="141.9" y="357.0" font-size="7.5" text-anchor="start" transform="rotate(-90 141.9 357.0)">26.7</text>
<rect x="148.5" y="357.0" width="14.3" height="9.0" fill="#9e9e9e" stroke="black" stroke-width="0.7"/>
<text x="158.1" y="353.0" font-size="7.5" text-anchor="start" transform="rotate(-90 158.1 353.0)">48.4</text>
<rect x="164.7" y="356.1" width="14.3" height="9.9" fill="#3f3f3f" stroke="black" stroke-width="0.7"/>
<text x="174.3" y="352.1" font-size="7.5" text-anchor="start" transform="rotate(-90 174.3 352.1)">53.1</text>
<text x="156.6" y="382" font-size="11" text-anchor="middle">2</text>
<rect x="198.0" y="359.9" width="14.3" height="6.1" fill="#ffffff" stroke="black" stroke-width="0.7"/>
<text x="207.6" y="355.9" font-size="7.5" text-anchor="start" transform="rotate(-90 207.6 355.9)">32.7</text>
<rect x="214.2" y="353.1" width="14.3" height="12.9" fill="#9e9e9e" stroke="black" stroke-width="0.7"/>
<text x="223.8" y="349.1" font-size="7.5" text-anchor="start" transform="rotate(-90 223.8 349.1)">69.5</text>
<rect x="230.4" y="349.3" width="14.3" height="16.7" fill="#3f3f3f" stroke="black" stroke-width="0.7"/>
<text x="240.0" y="345.3" font-size="7.5" text-anchor="start" transform="rotate(-90 240.0 345.3)">90.3</text>
<text x="222.3" y="382" font-size="11" text-anchor="middle">4</text>
<rect x="263.7" y="355.0" width="14.3" height="11.0" fill="#ffffff" stroke="black" stroke-width="0.7"/>
<text x="273.3" y="351.0" font-size="7.5" text-anchor="start" transform="rotate(-90 273.3 351.0)">59.1</text>
<rect x="279.9" y="344.1" width="14.3" height="21.9" fill="#9e9e9e" stroke="black" stroke-width="0.7"/>
<text x="289.5" y="340.1" font-size="7.5" text-anchor="start" transform="rotate(-90 289.5 340.1)">118</text>
<rect x="296.1" y="331.6" width="14.3" height="34.4" fill="#3f3f3f" stroke="black" stroke-width="0.7"/>
<text x="305.7" y="327.6" font-size="7.5" text-anchor="start" transform="rotate(-90 305.7 327.6)">186</text>
<text x="288.0" y="382" font-size="11" text-anchor="middle">8</text>
<rect x="329.4" y="343.9" width="14.3" height="22.1" fill="#ffffff" stroke="black" stroke-width="0.7"/>
<text x="339.0" y="339.9" font-size="7.5" text-anchor="start" transform="rotate(-90 339.0 339.9)">119</text>
<rect x="345.6" y="325.9" width="14.3" height="40.1" fill="#9e9e9e" stroke="black" stroke-width="0.7"/>
<text x="355.2" y="321.9" font-size="7.5" text-anchor="start" transform="rotate(-90 355.2 321.9)">216</text>
<rect x="361.8" y="303.0" width="14.3" height="63.0" fill="#3f3f3f" stroke="black" stroke-width="0.7"/>
<text x="371.5" y="299.0" font-size="7.5" text-anchor="start" transform="rotate(-90 371.5 299.0)">340</text>
<text x="353.7" y="382" font-size="11" text-anchor="middle">16</text>
<rect x="395.1" y="325.6" width="14.3" height="40.4" fill="#ffffff" stroke="black" stroke-width="0.7"/>
<text x="404.7" y="321.6" font-size="7.5" text-anchor="start" transform="rotate(-90 404.7 321.6)">218</text>
<rect x="411.3" y="305.0" width="14.3" height="61.0" fill="#9e9e9e" stroke="black" stroke-width="0.7"/>
<text x="421.0" y="301.0" font-size="7.5" text-anchor="start" transform="rotate(-90 421.0 301.0)">329</text>
<rect x="427.5" y="233.7" width="14.3" height="132.3" fill="#3f3f3f" stroke="black" stroke-width="0.7"/>
<text x="437.2" y="229.7" font-size="7.5" text-anchor="start" transform="rotate(-90 437.2 229.7)">713</text>
<text x="419.4" y="382" font-size="11" text-anchor="middle">32</text>
<rect x="460.8" y="299.7" width="14.3" height="66.3" fill="#ffffff" stroke="black" stroke-width="0.7"/>
<text x="470.5" y="295.7" font-size="7.5" text-anchor="start" transform="rotate(-90 470.5 295.7)">357</text>
<rect x="477.0" y="271.5" width="14.3" height="94.5" fill="#9e9e9e" stroke="black" stroke-width="0.7"/>
<text x="486.7" y="267.5" font-size="7.5" text-anchor="start" transform="rotate(-90 486.7 267.5)">510</text>
<rect x="493.2" y="120.1" width="14.3" height="245.9" fill="#3f3f3f" stroke="black" stroke-width="0.7"/>
<text x="502.9" y="116.1" font-size="7.5" text-anchor="start" transform="rotate(-90 502.9 116.1)">1326</text>
<text x="485.1" y="382" font-size="11" text-anchor="middle">64</text>
<line x1="594" y1="60" x2="594" y2="366" stroke="black" stroke-width="1.4"/>
<line x1="594" y1="366" x2="1054" y2="366" stroke="black" stroke-width="1.4"/>
<text x="551" y="216" font-size="12" text-anchor="middle" transform="rotate(-90 551 216)">Wall-time (ns)</text>
<text x="824" y="408" font-size="12" text-anchor="middle">Number of Inst. (N)</text>
<rect x="602.5" y="361.6" width="14.3" height="4.4" fill="#ffffff" stroke="black" stroke-width="0.7"/>
<text x="612.2" y="357.6" font-size="7.5" text-anchor="start" transform="rotate(-90 612.2 357.6)">7.4</text>
<rect x="618.8" y="359.0" width="14.3" height="7.0" fill="#9e9e9e" stroke="black" stroke-width="0.7"/>
<text x="628.4" y="355.0" font-size="7.5" text-anchor="start" transform="rotate(-90 628.4 355.0)">11.7</text>
<rect x="635.0" y="359.6" width="14.3" height="6.4" fill="#3f3f3f" stroke="black" stroke-width="0.7"/>
<text x="644.6" y="355.6" font-size="7.5" text-anchor="start" transform="rotate(-90 644.6 355.6)">10.8</text>
<text x="626.9" y="382" font-size="11" text-anchor="middle">1</text>
<rect x="668.3" y="361.0" width="14.3" height="5.0" fill="#ffffff" stroke="black" stroke-width="0.7"/>
<text x="677.9" y="357.0" font-size="7.5" text-anchor="start" transform="rotate(-90 677.9 357.0)">8.3</text>
<rect x="684.5" y="357.0" width="14.3" height="9.0" fill="#9e9e9e" stroke="black" stroke-width="0.7"/>
<text x="694.1" y="353.0" font-size="7.5" text-anchor="start" transform="rotate(-90 694.1 353.0)">15.0</text>
<rect x="700.7" y="356.1" width="14.3" height="9.9" fill="#3f3f3f" stroke="black" stroke-width="0.7"/>
<text x="710.3" y="352.1" font-size="7.5" text-anchor="start" transform="rotate(-90 710.3 352.1)">16.5</text>
<text x="692.6" y="382" font-size="11" text-anchor="middle">2</text>
<rect x="734.0" y="359.9" width="14.3" height="6.1" fill="#ffffff" stroke="black" stroke-width="0.7"/>
<text x="743.6" y="355.9" font-size="7.5" text-anchor="start" transform="rotate(-90 743.6 355.9)">10.2</text>
<rect x="750.2" y="353.1" width="14.3" height="12.9" fill="#9e9e9e" stroke="black" stroke-width="0.7"/>
<text x="759.8" y="349.1" font-size="7.5" text-anchor="start" transform="rotate(-90 759.8 349.1)">21.6</text>
<rect x="766.4" y="349.2" width="14.3" height="16.8" fill="#3f3f3f" stroke="black" stroke-width="0.7"/>
<text x="776.0" y="345.2" font-size="7.5" text-anchor="start" transform="rotate(-90 776.0 345.2)">28.0</text>
<text x="758.3" y="382" font-size="11" text-anchor="middle">4</text>
<rect x="799.7" y="355.0" width="14.3" height="11.0" fill="#ffffff" stroke="black" stroke-width="0.7"/>
<text x="809.3" y="351.0" font-size="7.5" text-anchor="start" transform="rotate(-90 809.3 351.0)">18.4</text>
<rect x="815.9" y="344.1" width="14.3" height="21.9" fill="#9e9e9e" stroke="black" stroke-width="0.7"/>
<text x="825.5" y="340.1" font-size="7.5" text-anchor="start" transform="rotate(-90 825.5 340.1)">36.7</text>
<rect x="832.1" y="331.6" width="14.3" height="34.4" fill="#3f3f3f" stroke="black" stroke-width="0.7"/>
<text x="841.7" y="327.6" font-size="7.5" text-anchor="start" transform="rotate(-90 841.7 327.6)">57.7</text>
<text x="824.0" y="382" font-size="11" text-anchor="middle">8</text>
<rect x="865.4" y="343.9" width="14.3" height="22.1" fill="#ffffff" stroke="black" stroke-width="0.7"/>
<text x="875.0" y="339.9" font-size="7.5" text-anchor="start" transform="rotate(-90 875.0 339.9)">37.0</text>
<rect x="881.6" y="325.9" width="14.3" height="40.1" fill="#9e9e9e" stroke="black" stroke-width="0.7"/>
<text x="891.2" y="321.9" font-size="7.5" text-anchor="start" transform="rotate(-90 891.2 321.9)">67.2</text>
<rect x="897.8" y="303.0" width="14.3" height="63.0" fill="#3f3f3f" stroke="black" stroke-width="0.7"/>
<text x="907.5" y="299.0" font-size="7.5" text-anchor="start" transform="rotate(-90 907.5 299.0)">105</text>
<text x="889.7" y="382" font-size="11" text-anchor="middle">16</text>
<rect x="931.1" y="325.6" width="14.3" height="40.4" fill="#ffffff" stroke="black" stroke-width="0.7"/>
<text x="940.7" y="321.6" font-size="7.5" text-anchor="start" transform="rotate(-90 940.7 321.6)">67.6</text>
<rect x="947.3" y="305.0" width="14.3" height="61.0" fill="#9e9e9e" stroke="black" stroke-width="0.7"/>
<text x="957.0" y="301.0" font-size="7.5" text-anchor="start" transform="rotate(-90 957.0 301.0)">102</text>
<rect x="963.5" y="233.8" width="14.3" height="132.2" fill="#3f3f3f" stroke="black" stroke-width="0.7"/>
<text x="973.2" y="229.8" font-size="7.5" text-anchor="start" transform="rotate(-90 973.2 229.8)">221</text>
<text x="955.4" y="382" font-size="11" text-anchor="middle">32</text>
<rect x="996.8" y="299.7" width="14.3" height="66.3" fill="#ffffff" stroke="black" stroke-width="0.7"/>
<text x="1006.5" y="295.7" font-size="7.5" text-anchor="start" transform="rotate(-90 1006.5 295.7)">111</text>
<rect x="1013.0" y="271.5" width="14.3" height="94.5" fill="#9e9e9e" stroke="black" stroke-width="0.7"/>
<text x="1022.7" y="267.5" font-size="7.5" text-anchor="start" transform="rotate(-90 1022.7 267.5)">158</text>
<rect x="1029.2" y="120.1" width="14.3" height="245.9" fill="#3f3f3f" stroke="black" stroke-width="0.7"/>
<text x="1038.9" y="116.1" font-size="7.5" text-anchor="start" transform="rotate(-90 1038.9 116.1)">412</text>
<text x="1021.1" y="382" font-size="11" text-anchor="middle">64</text>
</svg>