<svg xmlns="http://www.w3.org/2000/svg" width="1072" height="420" viewBox="0 0 1072 420" font-family="sans-serif">
<rect width="1072" height="420" fill="white"/>
<text x="536" y="20" text-anchor="middle" font-size="15" font-weight="bold">dmb_st  (l3)</text>
<rect x="371" y="32" width="12" height="12" fill="#ffffff" stroke="black" stroke-width="0.8"/>
<text x="387" y="42" font-size="11">Baseline</text>
<rect x="491" y="32" width="12" height="12" fill="#9e9e9e" stroke="black" stroke-width="0.8"/>
<text x="507" y="42" font-size="11">After group</text>
<rect x="611" y="32" width="12" height="12" fill="#3f3f3f" stroke="black" stroke-width="0.8"/>
<text x="627" y="42" font-size="11">After every</text>
<line x1="58" y1="60" x2="58" y2="366" stroke="black" stroke-width="1.4"/>
<line x1="58" y1="366" x2="518" y2="366" stroke="black" stroke-width="1.4"/>
<text x="15" y="216" font-size="12" text-anchor="middle" transform="rotate(-90 15 216)">Cycles</text>
<text x="288" y="408" font-size="12" text-anchor="middle">Number of Inst. (N)</text>
<rect x="66.5" y="358.4" width="14.3" height="7.6" fill="#ffffff" stroke="black" stroke-width="0.7"/>
<text x="76.2" y="354.4" font-size="7.5" text-anchor="start" transform="rotate(-90 76.2 354.4)">23.8</text>
<rect x="82.8" y="358.1" width="14.3" height="7.9" fill="#9e9e9e" stroke="black" stroke-width="0.7"/>
<text x="92.4" y="354.1" font-size="7.5" text-anchor="start" transform="rotate(-90 92.4 354.1)">24.7</text>
<rect x="99.0" y="358.0" width="14.3" height="8.0" fill="#3f3f3f" stroke="black" stroke-width="0.7"/>
<text x="108.6" y="354.0" font-size="7.5" text-anchor="start" transform="rotate(-90 108.6 354.0)">24.8</text>
<text x="90.9" y="382" font-size="11" text-anchor="middle">1</text>
<rect x="132.3" y="357.4" width="14.3" height="8.6" fill="#ffffff" stroke="black" stroke-width="0.7"/>
<text x="141.9" y="353.4" font-size="7.5" text-anchor="start" transform="rotate(-90 141.9 353.4)">26.7</text>
<rect x="148.5" y="356.4" width="14.3" height="9.6" fill="#9e9e9e" stroke="black" stroke-width="0.7"/>
<text x="158.1" y="352.4" font-size="7.5" text-anchor="start" transform="rotate(-90 158.1 352.4)">30.0</text>
<rect x="164.7" y="355.5" width="14.3" height="10.5" fill="#3f3f3f" stroke="black" stroke-width="0.7"/>
<text x="174.3" y="351.5" font-size="7.5" text-anchor="start" transform="rotate(-90 174.3 351.5)">32.6</text>
<text x="156.6" y="382" font-size="11" text-anchor="middle">2</text>
<rect x="198.0" y="355.5" width="14.3" height="10.5" fill="#ffffff" stroke="black" stroke-width="0.7"/>
<text x="207.6" y="351.5" font-size="7.5" text-anchor="start" transform="rotate(-90 207.6 351.5)">32.7</text>
<rect x="214.2" y="350.4" width="14.3" height="15.6" fill="#9e9e9e" stroke="black" stroke-width="0.7"/>
<text x="223.8" y="346.4" font-size="7.5" text-anchor="start" transform="rotate(-90 223.8 346.4)">48.7</text>
<rect x="230.4" y="348.6" width="14.3" height="17.4" fill="#3f3f3f" stroke="black" stroke-width="0.7"/>
<text x="240.0" y="344.6" font-size="7.5" text-anchor="start" transform="rotate(-90 240.0 344.6)">54.2</text>
<text x="222.3" y="382" font-size="11" text-anchor="middle">4</text>
<rect x="263.7" y="347.0" width="14.3" height="19.0" fill="#ffffff" stroke="black" stroke-width="0.7"/>
<text x="273.3" y="343.0" font-size="7.5" text-anchor="start" transform="rotate(-90 273.3 343.0)">59.1</text>
<rect x="279.9" y="338.7" width="14.3" height="27.3" fill="#9e9e9e" stroke="black" stroke-width="0.7"/>
<text x="289.5" y="334.7" font-size="7.5" text-anchor="start" transform="rotate(-90 289.5 334.7)">85.1</text>
<rect x="296.1" y="332.3" width="14.3" height="33.7" fill="#3f3f3f" stroke="black" stroke-width="0.7"/>
<text x="305.7" y="328.3" font-size="7.5" text-anchor="start" transform="rotate(-90 305.7 328.3)">105</text>
<text x="288.0" y="382" font-size="11" text-anchor="middle">8</text>
<rect x="329.4" y="327.8" width="14.3" height="38.2" fill="#ffffff" stroke="black" stroke-width="0.7"/>
<text x="339.0" y="323.8" font-size="7.5" text-anchor="start" transform="rotate(-90 339.0 323.8)">119</text>
<rect x="345.6" y="314.9" width="14.3" height="51.1" fill="#9e9e9e" stroke="black" stroke-width="0.7"/>
<text x="355.2" y="310.9" font-size="7.5" text-anchor="start" transform="rotate(-90 355.2 310.9)">159</text>
<rect x="361.8" y="299.7" width="14.3" height="66.3" fill="#3f3f3f" stroke="black" stroke-width="0.7"/>
<text x="371.5" y="295.7" font-size="7.5" text-anchor="start" transform="rotate(-90 371.5 295.7)">207</text>
<text x="353.7" y="382" font-size="11" text-anchor="middle">16</text>
<rect x="395.1" y="296.2" width="14.3" height="69.8" fill="#ffffff" stroke="black" stroke-width="0.7"/>
<text x="404.7" y="292.2" font-size="7.5" text-anchor="start" transform="rotate(-90 404.7 292.2)">218</text>
<rect x="411.3" y="291.0" width="14.3" height="75.0" fill="#9e9e9e" stroke="black" stroke-width="0.7"/>
<text x="421.0" y="287.0" font-size="7.5" text-anchor="start" transform="rotate(-90 421.0 287.0)">234</text>
<rect x="427.5" y="242.2" width="14.3" height="123.8" fill="#3f3f3f" stroke="black" stroke-width="0.7"/>
<text x="437.2" y="238.2" font-size="7.5" text-anchor="start" transform="rotate(-90 437.2 238.2)">386</text>
<text x="419.4" y="382" font-size="11" text-anchor="middle">32</text>
<rect x="460.8" y="251.4" width="14.3" height="114.6" fill="#ffffff" stroke="black" stroke-width="0.7"/>
<text x="470.5" y="247.4" font-size="7.5" text-anchor="start" transform="rotate(-90 470.5 247.4)">357</text>
<rect x="477.0" y="241.4" width="14.3" height="124.6" fill="#9e9e9e" stroke="black" stroke-width="0.7"/>
<text x="486.7" y="237.4" font-size="7.5" text-anchor="start" transform="rotate(-90 486.7 237.4)">389</text>
<rect x="493.2" y="120.1" width="14.3" height="245.9" fill="#3f3f3f" stroke="black" stroke-width="0.7"/>
<text x="502.9" y="116.1" font-size="7.5" text-anchor="start" transform="rotate(-90 502.9 116.1)">767</text>
<text x="485.1" y="382" font-size="11" text-anchor="middle">64</text>
<line x1="594" y1="60" x2="594" y2="366" stroke="black" stroke-width="1.4"/>
<line x1="594" y1="366" x2="1054" y2="366" stroke="black" stroke-width="1.4"/>
<text x="551" y="216" font-size="12" text-anchor="middle" transform="rotate(-90 551 216)">Wall-time (ns)</text>
<text x="824" y="408" font-size="12" text-anchor="middle">Number of Inst. (N)</text>
<rect x="602.5" y="358.4" width="14.3" height="7.6" fill="#ffffff" stroke="black" stroke-width="0.7"/>
<text x="612.2" y="354.4" font-size="7.5" text-anchor="start" transform="rotate(-90 612.2 354.4)">7.4</text>
<rect x="618.8" y="358.1" width="14.3" height="7.9" fill="#9e9e9e" stroke="black" stroke-width="0.7"/>
<text x="628.4" y="354.1" font-size="7.5" text-anchor="start" transform="rotate(-90 628.4 354.1)">7.7</text>
<rect x="635.0" y="358.0" width="14.3" height="8.0" fill="#3f3f3f" stroke="black" stroke-width="0.7"/>
<text x="644.6" y="354.0" font-size="7.5" text-anchor="start" transform="rotate(-90 644.6 354.0)">7.7</text>
<text x="626.9" y="382" font-size="11" text-anchor="middle">1</text>
<rect x="668.3" y="357.4" width="14.3" height="8.6" fill="#ffffff" stroke="black" stroke-width="0.7"/>
<text x="677.9" y="353.4" font-size="7.5" text-anchor="start" transform="rotate(-90 677.9 353.4)">8.3</text>
<rect x="684.5" y="356.4" width="14.3" height="9.6" fill="#9e9e9e" stroke="black" stroke-width="0.7"/>
<text x="694.1" y="352.4" font-size="7.5" text-anchor="start" transform="rotate(-90 694.1 352.4)">9.3</text>
<rect x="700.7" y="355.5" width="14.3" height="10.5" fill="#3f3f3f" stroke="black" stroke-width="0.7"/>
<text x="710.3" y="351.5" font-size="7.5" text-anchor="start" transform="rotate(-90 710.3 351.5)">10.2</text>
<text x="692.6" y="382" font-size="11" text-anchor="middle">2</text>
<rect x="734.0" y="355.5" width="14.3" height="10.5" fill="#ffffff" stroke="black" stroke-width="0.7"/>
<text x="743.6" y="351.5" font-size="7.5" text-anchor="start" transform="rotate(-90 743.6 351.5)">10.2</text>
<rect x="750.2" y="350.4" width="14.3" height="15.6" fill="#9e9e9e" stroke="black" stroke-width="0.7"/>
<text x="759.8" y="346.4" font-size="7.5" text-anchor="start" transform="rotate(-90 759.8 346.4)">15.1</text>
<rect x="766.4" y="348.6" width="14.3" height="17.4" fill="#3f3f3f" stroke="black" stroke-width="0.7"/>
<text x="776.0" y="344.6" font-size="7.5" text-anchor="start" transform="rotate(-90 776.0 344.6)">16.8</text>
<text x="758.3" y="382" font-size="11" text-anchor="middle">4</text>
<rect x="799.7" y="347.0" width="14.3" height="19.0" fill="#ffffff" stroke="black" stroke-width="0.7"/>
<text x="809.3" y="343.0" font-size="7.5" text-anchor="start" transform="rotate(-90 809.3 343.0)">18.4</text>
<rect x="815.9" y="338.7" width="14.3" height="27.3" fill="#9e9e9e" stroke="black" stroke-width="0.7"/>
<text x="825.5" y="334.7" font-size="7.5" text-anchor="start" transform="rotate(-90 825.5 334.7)">26.5</text>
<rect x="832.1" y="332.3" width="14.3" height="33.7" fill="#3f3f3f" stroke="black" stroke-width="0.7"/>
<text x="841.7" y="328.3" font-size="7.5" text-anchor="start" transform="rotate(-90 841.7 328.3)">32.6</text>
<text x="824.0" y="382" font-size="11" text-anchor="middle">8</text>
<rect x="865.4" y="327.8" width="14.3" height="38.2" fill="#ffffff" stroke="black" stroke-width="0.7"/>
<text x="875.0" y="323.8" font-size="7.5" text-anchor="start" transform="rotate(-90 875.0 323.8)">37.0</text>
<rect x="881.6" y="314.9" width="14.3" height="51.1" fill="#9e9e9e" stroke="black" stroke-width="0.7"/>
<text x="891.2" y="310.9" font-size="7.5" text-anchor="start" transform="rotate(-90 891.2 310.9)">49.5</text>
<rect x="897.8" y="299.7" width="14.3" height="66.3" fill="#3f3f3f" stroke="black" stroke-width="0.7"/>
<text x="907.5" y="295.7" font-size="7.5" text-anchor="start" transform="rotate(-90 907.5 295.7)">64.2</text>
<text x="889.7" y="382" font-size="11" text-anchor="middle">16</text>
<rect x="931.1" y="296.2" width="14.3" height="69.8" fill="#ffffff" stroke="black" stroke-width="0.7"/>
<text x="940.7" y="292.2" font-size="7.5" text-anchor="start" transform="rotate(-90 940.7 292.2)">67.6</text>
<rect x="947.3" y="290.9" width="14.3" height="75.1" fill="#9e9e9e" stroke="black" stroke-width="0.7"/>
<text x="957.0" y="286.9" font-size="7.5" text-anchor="start" transform="rotate(-90 957.0 286.9)">72.7</text>
<rect x="963.5" y="242.2" width="14.3" height="123.8" fill="#3f3f3f" stroke="black" stroke-width="0.7"/>
<text x="973.2" y="238.2" font-size="7.5" text-anchor="start" transform="rotate(-90 973.2 238.2)">120</text>
<text x="955.4" y="382" font-size="11" text-anchor="middle">32</text>
<rect x="996.8" y="251.4" width="14.3" height="114.6" fill="#ffffff" stroke="black" stroke-width="0.7"/>
<text x="1006.5" y="247.4" font-size="7.5" text-anchor="start" transform="rotate(-90 1006.5 247.4)">111</text>
<rect x="1013.0" y="241.4" width="14.3" height="124.6" fill="#9e9e9e" stroke="black" stroke-width="0.7"/>
<text x="1022.7" y="237.4" font-size="7.5" text-anchor="start" transform="rotate(-90 1022.7 237.4)">121</text>
<rect x="1029.2" y="120.1" width="14.3" height="245.9" fill="#3f3f3f" stroke="black" stroke-width="0.7"/>
<text x="1038.9" y="116.1" font-size="7.5" text-anchor="start" transform="rotate(-90 1038.9 116.1)">238</text>
<text x="1021.1" y="382" font-size="11" text-anchor="middle">64</text>
</svg>