<svg xmlns="http://www.w3.org/2000/svg" width="1072" height="420" viewBox="0 0 1072 420" font-family="sans-serif">
<rect width="1072" height="420" fill="white"/>
<text x="536" y="20" text-anchor="middle" font-size="15" font-weight="bold">dmb_ish  (l1)</text>
<rect x="371" y="32" width="12" height="12" fill="#ffffff" stroke="black" stroke-width="0.8"/>
<text x="387" y="42" font-size="11">Baseline</text>
<rect x="491" y="32" width="12" height="12" fill="#9e9e9e" stroke="black" stroke-width="0.8"/>
<text x="507" y="42" font-size="11">After group</text>
<rect x="611" y="32" width="12" height="12" fill="#3f3f3f" stroke="black" stroke-width="0.8"/>
<text x="627" y="42" font-size="11">After every</text>
<line x1="58" y1="60" x2="58" y2="366" stroke="black" stroke-width="1.4"/>
<line x1="58" y1="366" x2="518" y2="366" stroke="black" stroke-width="1.4"/>
<text x="15" y="216" font-size="12" text-anchor="middle" transform="rotate(-90 15 216)">Cycles</text>
<text x="288" y="408" font-size="12" text-anchor="middle">Number of Inst. (N)</text>
<rect x="66.5" y="364.3" width="14.3" height="1.7" fill="#ffffff" stroke="black" stroke-width="0.7"/>
<text x="76.2" y="360.3" font-size="7.5" text-anchor="start" transform="rotate(-90 76.2 360.3)">5.9</text>
<rect x="82.8" y="361.9" width="14.3" height="4.1" fill="#9e9e9e" stroke="black" stroke-width="0.7"/>
<text x="92.4" y="357.9" font-size="7.5" text-anchor="start" transform="rotate(-90 92.4 357.9)">14.1</text>
<rect x="99.0" y="361.8" width="14.3" height="4.2" fill="#3f3f3f" stroke="black" stroke-width="0.7"/>
<text x="108.6" y="357.8" font-size="7.5" text-anchor="start" transform="rotate(-90 108.6 357.8)">14.4</text>
<text x="90.9" y="382" font-size="11" text-anchor="middle">1</text>
<rect x="132.3" y="363.6" width="14.3" height="2.4" fill="#ffffff" stroke="black" stroke-width="0.7"/>
<text x="141.9" y="359.6" font-size="7.5" text-anchor="start" transform="rotate(-90 141.9 359.6)">8.2</text>
<rect x="148.5" y="361.2" width="14.3" height="4.8" fill="#9e9e9e" stroke="black" stroke-width="0.7"/>
<text x="158.1" y="357.2" font-size="7.5" text-anchor="start" transform="rotate(-90 158.1 357.2)">16.4</text>
<rect x="164.7" y="358.0" width="14.3" height="8.0" fill="#3f3f3f" stroke="black" stroke-width="0.7"/>
<text x="174.3" y="354.0" font-size="7.5" text-anchor="start" transform="rotate(-90 174.3 354.0)">27.5</text>
<text x="156.6" y="382" font-size="11" text-anchor="middle">2</text>
<rect x="198.0" y="361.7" width="14.3" height="4.3" fill="#ffffff" stroke="black" stroke-width="0.7"/>
<text x="207.6" y="357.7" font-size="7.5" text-anchor="start" transform="rotate(-90 207.6 357.7)">14.8</text>
<rect x="214.2" y="360.1" width="14.3" height="5.9" fill="#9e9e9e" stroke="black" stroke-width="0.7"/>
<text x="223.8" y="356.1" font-size="7.5" text-anchor="start" transform="rotate(-90 223.8 356.1)">20.2</text>
<rect x="230.4" y="350.2" width="14.3" height="15.8" fill="#3f3f3f" stroke="black" stroke-width="0.7"/>
<text x="240.0" y="346.2" font-size="7.5" text-anchor="start" transform="rotate(-90 240.0 346.2)">54.1</text>
<text x="222.3" y="382" font-size="11" text-anchor="middle">4</text>
<rect x="263.7" y="357.6" width="14.3" height="8.4" fill="#ffffff" stroke="black" stroke-width="0.7"/>
<text x="273.3" y="353.6" font-size="7.5" text-anchor="start" transform="rotate(-90 273.3 353.6)">28.8</text>
<rect x="279.9" y="357.7" width="14.3" height="8.3" fill="#9e9e9e" stroke="black" stroke-width="0.7"/>
<text x="289.5" y="353.7" font-size="7.5" text-anchor="start" transform="rotate(-90 289.5 353.7)">28.4</text>
<rect x="296.1" y="334.7" width="14.3" height="31.3" fill="#3f3f3f" stroke="black" stroke-width="0.7"/>
<text x="305.7" y="330.7" font-size="7.5" text-anchor="start" transform="rotate(-90 305.7 330.7)">107</text>
<text x="288.0" y="382" font-size="11" text-anchor="middle">8</text>
<rect x="329.4" y="349.5" width="14.3" height="16.5" fill="#ffffff" stroke="black" stroke-width="0.7"/>
<text x="339.0" y="345.5" font-size="7.5" text-anchor="start" transform="rotate(-90 339.0 345.5)">56.6</text>
<rect x="345.6" y="349.6" width="14.3" height="16.4" fill="#9e9e9e" stroke="black" stroke-width="0.7"/>
<text x="355.2" y="345.6" font-size="7.5" text-anchor="start" transform="rotate(-90 355.2 345.6)">56.2</text>
<rect x="361.8" y="303.8" width="14.3" height="62.2" fill="#3f3f3f" stroke="black" stroke-width="0.7"/>
<text x="371.5" y="299.8" font-size="7.5" text-anchor="start" transform="rotate(-90 371.5 299.8)">213</text>
<text x="353.7" y="382" font-size="11" text-anchor="middle">16</text>
<rect x="395.1" y="333.6" width="14.3" height="32.4" fill="#ffffff" stroke="black" stroke-width="0.7"/>
<text x="404.7" y="329.6" font-size="7.5" text-anchor="start" transform="rotate(-90 404.7 329.6)">111</text>
<rect x="411.3" y="333.7" width="14.3" height="32.3" fill="#9e9e9e" stroke="black" stroke-width="0.7"/>
<text x="421.0" y="329.7" font-size="7.5" text-anchor="start" transform="rotate(-90 421.0 329.7)">110</text>
<rect x="427.5" y="242.3" width="14.3" height="123.7" fill="#3f3f3f" stroke="black" stroke-width="0.7"/>
<text x="437.2" y="238.3" font-size="7.5" text-anchor="start" transform="rotate(-90 437.2 238.3)">423</text>
<text x="419.4" y="382" font-size="11" text-anchor="middle">32</text>
<rect x="460.8" y="301.9" width="14.3" height="64.1" fill="#ffffff" stroke="black" stroke-width="0.7"/>
<text x="470.5" y="297.9" font-size="7.5" text-anchor="start" transform="rotate(-90 470.5 297.9)">220</text>
<rect x="477.0" y="302.6" width="14.3" height="63.4" fill="#9e9e9e" stroke="black" stroke-width="0.7"/>
<text x="486.7" y="298.6" font-size="7.5" text-anchor="start" transform="rotate(-90 486.7 298.6)">217</text>
<rect x="493.2" y="120.1" width="14.3" height="245.9" fill="#3f3f3f" stroke="black" stroke-width="0.7"/>
<text x="502.9" y="116.1" font-size="7.5" text-anchor="start" transform="rotate(-90 502.9 116.1)">842</text>
<text x="485.1" y="382" font-size="11" text-anchor="middle">64</text>
<line x1="594" y1="60" x2="594" y2="366" stroke="black" stroke-width="1.4"/>
<line x1="594" y1="366" x2="1054" y2="366" stroke="black" stroke-width="1.4"/>
<text x="551" y="216" font-size="12" text-anchor="middle" transform="rotate(-90 551 216)">Wall-time (ns)</text>
<text x="824" y="408" font-size="12" text-anchor="middle">Number of Inst. (N)</text>
<rect x="602.5" y="364.3" width="14.3" height="1.7" fill="#ffffff" stroke="black" stroke-width="0.7"/>
<text x="612.2" y="360.3" font-size="7.5" text-anchor="start" transform="rotate(-90 612.2 360.3)">1.8</text>
<rect x="618.8" y="361.9" width="14.3" height="4.1" fill="#9e9e9e" stroke="black" stroke-width="0.7"/>
<text x="628.4" y="357.9" font-size="7.5" text-anchor="start" transform="rotate(-90 628.4 357.9)">4.4</text>
<rect x="635.0" y="361.8" width="14.3" height="4.2" fill="#3f3f3f" stroke="black" stroke-width="0.7"/>
<text x="644.6" y="357.8" font-size="7.5" text-anchor="start" transform="rotate(-90 644.6 357.8)">4.5</text>
<text x="626.9" y="382" font-size="11" text-anchor="middle">1</text>
<rect x="668.3" y="363.6" width="14.3" height="2.4" fill="#ffffff" stroke="black" stroke-width="0.7"/>
<text x="677.9" y="359.6" font-size="7.5" text-anchor="start" transform="rotate(-90 677.9 359.6)">2.6</text>
<rect x="684.5" y="361.2" width="14.3" height="4.8" fill="#9e9e9e" stroke="black" stroke-width="0.7"/>
<text x="694.1" y="357.2" font-size="7.5" text-anchor="start" transform="rotate(-90 694.1 357.2)">5.1</text>
<rect x="700.7" y="357.9" width="14.3" height="8.1" fill="#3f3f3f" stroke="black" stroke-width="0.7"/>
<text x="710.3" y="353.9" font-size="7.5" text-anchor="start" transform="rotate(-90 710.3 353.9)">8.6</text>
<text x="692.6" y="382" font-size="11" text-anchor="middle">2</text>
<rect x="734.0" y="361.7" width="14.3" height="4.3" fill="#ffffff" stroke="black" stroke-width="0.7"/>
<text x="743.6" y="357.7" font-size="7.5" text-anchor="start" transform="rotate(-90 743.6 357.7)">4.6</text>
<rect x="750.2" y="360.1" width="14.3" height="5.9" fill="#9e9e9e" stroke="black" stroke-width="0.7"/>
<text x="759.8" y="356.1" font-size="7.5" text-anchor="start" transform="rotate(-90 759.8 356.1)">6.3</text>
<rect x="766.4" y="350.2" width="14.3" height="15.8" fill="#3f3f3f" stroke="black" stroke-width="0.7"/>
<text x="776.0" y="346.2" font-size="7.5" text-anchor="start" transform="rotate(-90 776.0 346.2)">16.8</text>
<text x="758.3" y="382" font-size="11" text-anchor="middle">4</text>
<rect x="799.7" y="357.5" width="14.3" height="8.5" fill="#ffffff" stroke="black" stroke-width="0.7"/>
<text x="809.3" y="353.5" font-size="7.5" text-anchor="start" transform="rotate(-90 809.3 353.5)">9.0</text>
<rect x="815.9" y="357.6" width="14.3" height="8.4" fill="#9e9e9e" stroke="black" stroke-width="0.7"/>
<text x="825.5" y="353.6" font-size="7.5" text-anchor="start" transform="rotate(-90 825.5 353.6)">8.9</text>
<rect x="832.1" y="334.7" width="14.3" height="31.3" fill="#3f3f3f" stroke="black" stroke-width="0.7"/>
<text x="841.7" y="330.7" font-size="7.5" text-anchor="start" transform="rotate(-90 841.7 330.7)">33.2</text>
<text x="824.0" y="382" font-size="11" text-anchor="middle">8</text>
<rect x="865.4" y="349.5" width="14.3" height="16.5" fill="#ffffff" stroke="black" stroke-width="0.7"/>
<text x="875.0" y="345.5" font-size="7.5" text-anchor="start" transform="rotate(-90 875.0 345.5)">17.6</text>
<rect x="881.6" y="349.6" width="14.3" height="16.4" fill="#9e9e9e" stroke="black" stroke-width="0.7"/>
<text x="891.2" y="345.6" font-size="7.5" text-anchor="start" transform="rotate(-90 891.2 345.6)">17.5</text>
<rect x="897.8" y="303.8" width="14.3" height="62.2" fill="#3f3f3f" stroke="black" stroke-width="0.7"/>
<text x="907.5" y="299.8" font-size="7.5" text-anchor="start" transform="rotate(-90 907.5 299.8)">66.1</text>
<text x="889.7" y="382" font-size="11" text-anchor="middle">16</text>
<rect x="931.1" y="333.6" width="14.3" height="32.4" fill="#ffffff" stroke="black" stroke-width="0.7"/>
<text x="940.7" y="329.6" font-size="7.5" text-anchor="start" transform="rotate(-90 940.7 329.6)">34.4</text>
<rect x="947.3" y="333.7" width="14.3" height="32.3" fill="#9e9e9e" stroke="black" stroke-width="0.7"/>
<text x="957.0" y="329.7" font-size="7.5" text-anchor="start" transform="rotate(-90 957.0 329.7)">34.3</text>
<rect x="963.5" y="242.3" width="14.3" height="123.7" fill="#3f3f3f" stroke="black" stroke-width="0.7"/>
<text x="973.2" y="238.3" font-size="7.5" text-anchor="start" transform="rotate(-90 973.2 238.3)">131</text>
<text x="955.4" y="382" font-size="11" text-anchor="middle">32</text>
<rect x="996.8" y="301.8" width="14.3" height="64.2" fill="#ffffff" stroke="black" stroke-width="0.7"/>
<text x="1006.5" y="297.8" font-size="7.5" text-anchor="start" transform="rotate(-90 1006.5 297.8)">68.1</text>
<rect x="1013.0" y="302.6" width="14.3" height="63.4" fill="#9e9e9e" stroke="black" stroke-width="0.7"/>
<text x="1022.7" y="298.6" font-size="7.5" text-anchor="start" transform="rotate(-90 1022.7 298.6)">67.4</text>
<rect x="1029.2" y="120.1" width="14.3" height="245.9" fill="#3f3f3f" stroke="black" stroke-width="0.7"/>
<text x="1038.9" y="116.1" font-size="7.5" text-anchor="start" transform="rotate(-90 1038.9 116.1)">261</text>
<text x="1021.1" y="382" font-size="11" text-anchor="middle">64</text>
</svg>