<svg xmlns="http://www.w3.org/2000/svg" width="1072" height="420" viewBox="0 0 1072 420" font-family="sans-serif">
<rect width="1072" height="420" fill="white"/>
<text x="536" y="20" text-anchor="middle" font-size="15" font-weight="bold">dmb_sy  (l3)</text>
<rect x="371" y="32" width="12" height="12" fill="#ffffff" stroke="black" stroke-width="0.8"/>
<text x="387" y="42" font-size="11">Baseline</text>
<rect x="491" y="32" width="12" height="12" fill="#9e9e9e" stroke="black" stroke-width="0.8"/>
<text x="507" y="42" font-size="11">After group</text>
<rect x="611" y="32" width="12" height="12" fill="#3f3f3f" stroke="black" stroke-width="0.8"/>
<text x="627" y="42" font-size="11">After every</text>
<line x1="58" y1="60" x2="58" y2="366" stroke="black" stroke-width="1.4"/>
<line x1="58" y1="366" x2="518" y2="366" stroke="black" stroke-width="1.4"/>
<text x="15" y="216" font-size="12" text-anchor="middle" transform="rotate(-90 15 216)">Cycles</text>
<text x="288" y="408" font-size="12" text-anchor="middle">Number of Inst. (N)</text>
<rect x="66.5" y="361.6" width="14.3" height="4.4" fill="#ffffff" stroke="black" stroke-width="0.7"/>
<text x="76.2" y="357.6" font-size="7.5" text-anchor="start" transform="rotate(-90 76.2 357.6)">23.8</text>
<rect x="82.8" y="359.5" width="14.3" height="6.5" fill="#9e9e9e" stroke="black" stroke-width="0.7"/>
<text x="92.4" y="355.5" font-size="7.5" text-anchor="start" transform="rotate(-90 92.4 355.5)">35.0</text>
<rect x="99.0" y="359.6" width="14.3" height="6.4" fill="#3f3f3f" stroke="black" stroke-width="0.7"/>
<text x="108.6" y="355.6" font-size="7.5" text-anchor="start" transform="rotate(-90 108.6 355.6)">34.0</text>
<text x="90.9" y="382" font-size="11" text-anchor="middle">1</text>
<rect x="132.3" y="361.0" width="14.3" height="5.0" fill="#ffffff" stroke="black" stroke-width="0.7"/>
<text x="141.9" y="357.0" font-size="7.5" text-anchor="start" transform="rotate(-90 141.9 357.0)">26.7</text>
<rect x="148.5" y="357.3" width="14.3" height="8.7" fill="#9e9e9e" stroke="black" stroke-width="0.7"/>
<text x="158.1" y="353.3" font-size="7.5" text-anchor="start" transform="rotate(-90 158.1 353.3)">46.4</text>
<rect x="164.7" y="356.0" width="14.3" height="10.0" fill="#3f3f3f" stroke="black" stroke-width="0.7"/>
<text x="174.3" y="352.0" font-size="7.5" text-anchor="start" transform="rotate(-90 174.3 352.0)">53.3</text>
<text x="156.6" y="382" font-size="11" text-anchor="middle">2</text>
<rect x="198.0" y="359.9" width="14.3" height="6.1" fill="#ffffff" stroke="black" stroke-width="0.7"/>
<text x="207.6" y="355.9" font-size="7.5" text-anchor="start" transform="rotate(-90 207.6 355.9)">32.7</text>
<rect x="214.2" y="353.3" width="14.3" height="12.7" fill="#9e9e9e" stroke="black" stroke-width="0.7"/>
<text x="223.8" y="349.3" font-size="7.5" text-anchor="start" transform="rotate(-90 223.8 349.3)">67.7</text>
<rect x="230.4" y="348.9" width="14.3" height="17.1" fill="#3f3f3f" stroke="black" stroke-width="0.7"/>
<text x="240.0" y="344.9" font-size="7.5" text-anchor="start" transform="rotate(-90 240.0 344.9)">91.5</text>
<text x="222.3" y="382" font-size="11" text-anchor="middle">4</text>
<rect x="263.7" y="354.9" width="14.3" height="11.1" fill="#ffffff" stroke="black" stroke-width="0.7"/>
<text x="273.3" y="350.9" font-size="7.5" text-anchor="start" transform="rotate(-90 273.3 350.9)">59.1</text>
<rect x="279.9" y="344.2" width="14.3" height="21.8" fill="#9e9e9e" stroke="black" stroke-width="0.7"/>
<text x="289.5" y="340.2" font-size="7.5" text-anchor="start" transform="rotate(-90 289.5 340.2)">117</text>
<rect x="296.1" y="331.4" width="14.3" height="34.6" fill="#3f3f3f" stroke="black" stroke-width="0.7"/>
<text x="305.7" y="327.4" font-size="7.5" text-anchor="start" transform="rotate(-90 305.7 327.4)">185</text>
<text x="288.0" y="382" font-size="11" text-anchor="middle">8</text>
<rect x="329.4" y="343.7" width="14.3" height="22.3" fill="#ffffff" stroke="black" stroke-width="0.7"/>
<text x="339.0" y="339.7" font-size="7.5" text-anchor="start" transform="rotate(-90 339.0 339.7)">119</text>
<rect x="345.6" y="325.8" width="14.3" height="40.2" fill="#9e9e9e" stroke="black" stroke-width="0.7"/>
<text x="355.2" y="321.8" font-size="7.5" text-anchor="start" transform="rotate(-90 355.2 321.8)">215</text>
<rect x="361.8" y="302.5" width="14.3" height="63.5" fill="#3f3f3f" stroke="black" stroke-width="0.7"/>
<text x="371.5" y="298.5" font-size="7.5" text-anchor="start" transform="rotate(-90 371.5 298.5)">340</text>
<text x="353.7" y="382" font-size="11" text-anchor="middle">16</text>
<rect x="395.1" y="325.3" width="14.3" height="40.7" fill="#ffffff" stroke="black" stroke-width="0.7"/>
<text x="404.7" y="321.3" font-size="7.5" text-anchor="start" transform="rotate(-90 404.7 321.3)">218</text>
<rect x="411.3" y="304.8" width="14.3" height="61.2" fill="#9e9e9e" stroke="black" stroke-width="0.7"/>
<text x="421.0" y="300.8" font-size="7.5" text-anchor="start" transform="rotate(-90 421.0 300.8)">327</text>
<rect x="427.5" y="241.1" width="14.3" height="124.9" fill="#3f3f3f" stroke="black" stroke-width="0.7"/>
<text x="437.2" y="237.1" font-size="7.5" text-anchor="start" transform="rotate(-90 437.2 237.1)">668</text>
<text x="419.4" y="382" font-size="11" text-anchor="middle">32</text>
<rect x="460.8" y="299.1" width="14.3" height="66.9" fill="#ffffff" stroke="black" stroke-width="0.7"/>
<text x="470.5" y="295.1" font-size="7.5" text-anchor="start" transform="rotate(-90 470.5 295.1)">357</text>
<rect x="477.0" y="271.7" width="14.3" height="94.3" fill="#9e9e9e" stroke="black" stroke-width="0.7"/>
<text x="486.7" y="267.7" font-size="7.5" text-anchor="start" transform="rotate(-90 486.7 267.7)">504</text>
<rect x="493.2" y="120.1" width="14.3" height="245.9" fill="#3f3f3f" stroke="black" stroke-width="0.7"/>
<text x="502.9" y="116.1" font-size="7.5" text-anchor="start" transform="rotate(-90 502.9 116.1)">1314</text>
<text x="485.1" y="382" font-size="11" text-anchor="middle">64</text>
<line x1="594" y1="60" x2="594" y2="366" stroke="black" stroke-width="1.4"/>
<line x1="594" y1="366" x2="1054" y2="366" stroke="black" stroke-width="1.4"/>
<text x="551" y="216" font-size="12" text-anchor="middle" transform="rotate(-90 551 216)">Wall-time (ns)</text>
<text x="824" y="408" font-size="12" text-anchor="middle">Number of Inst. (N)</text>
<rect x="602.5" y="361.5" width="14.3" height="4.5" fill="#ffffff" stroke="black" stroke-width="0.7"/>
<text x="612.2" y="357.5" font-size="7.5" text-anchor="start" transform="rotate(-90 612.2 357.5)">7.4</text>
<rect x="618.8" y="359.4" width="14.3" height="6.6" fill="#9e9e9e" stroke="black" stroke-width="0.7"/>
<text x="628.4" y="355.4" font-size="7.5" text-anchor="start" transform="rotate(-90 628.4 355.4)">10.9</text>
<rect x="635.0" y="359.6" width="14.3" height="6.4" fill="#3f3f3f" stroke="black" stroke-width="0.7"/>
<text x="644.6" y="355.6" font-size="7.5" text-anchor="start" transform="rotate(-90 644.6 355.6)">10.6</text>
<text x="626.9" y="382" font-size="11" text-anchor="middle">1</text>
<rect x="668.3" y="361.0" width="14.3" height="5.0" fill="#ffffff" stroke="black" stroke-width="0.7"/>
<text x="677.9" y="357.0" font-size="7.5" text-anchor="start" transform="rotate(-90 677.9 357.0)">8.3</text>
<rect x="684.5" y="357.3" width="14.3" height="8.7" fill="#9e9e9e" stroke="black" stroke-width="0.7"/>
<text x="694.1" y="353.3" font-size="7.5" text-anchor="start" transform="rotate(-90 694.1 353.3)">14.4</text>
<rect x="700.7" y="356.0" width="14.3" height="10.0" fill="#3f3f3f" stroke="black" stroke-width="0.7"/>
<text x="710.3" y="352.0" font-size="7.5" text-anchor="start" transform="rotate(-90 710.3 352.0)">16.6</text>
<text x="692.6" y="382" font-size="11" text-anchor="middle">2</text>
<rect x="734.0" y="359.9" width="14.3" height="6.1" fill="#ffffff" stroke="black" stroke-width="0.7"/>
<text x="743.6" y="355.9" font-size="7.5" text-anchor="start" transform="rotate(-90 743.6 355.9)">10.2</text>
<rect x="750.2" y="353.3" width="14.3" height="12.7" fill="#9e9e9e" stroke="black" stroke-width="0.7"/>
<text x="759.8" y="349.3" font-size="7.5" text-anchor="start" transform="rotate(-90 759.8 349.3)">21.0</text>
<rect x="766.4" y="348.9" width="14.3" height="17.1" fill="#3f3f3f" stroke="black" stroke-width="0.7"/>
<text x="776.0" y="344.9" font-size="7.5" text-anchor="start" transform="rotate(-90 776.0 344.9)">28.4</text>
<text x="758.3" y="382" font-size="11" text-anchor="middle">4</text>
<rect x="799.7" y="354.9" width="14.3" height="11.1" fill="#ffffff" stroke="black" stroke-width="0.7"/>
<text x="809.3" y="350.9" font-size="7.5" text-anchor="start" transform="rotate(-90 809.3 350.9)">18.4</text>
<rect x="815.9" y="344.2" width="14.3" height="21.8" fill="#9e9e9e" stroke="black" stroke-width="0.7"/>
<text x="825.5" y="340.2" font-size="7.5" text-anchor="start" transform="rotate(-90 825.5 340.2)">36.2</text>
<rect x="832.1" y="331.4" width="14.3" height="34.6" fill="#3f3f3f" stroke="black" stroke-width="0.7"/>
<text x="841.7" y="327.4" font-size="7.5" text-anchor="start" transform="rotate(-90 841.7 327.4)">57.4</text>
<text x="824.0" y="382" font-size="11" text-anchor="middle">8</text>
<rect x="865.4" y="343.7" width="14.3" height="22.3" fill="#ffffff" stroke="black" stroke-width="0.7"/>
<text x="875.0" y="339.7" font-size="7.5" text-anchor="start" transform="rotate(-90 875.0 339.7)">37.0</text>
<rect x="881.6" y="325.8" width="14.3" height="40.2" fill="#9e9e9e" stroke="black" stroke-width="0.7"/>
<text x="891.2" y="321.8" font-size="7.5" text-anchor="start" transform="rotate(-90 891.2 321.8)">66.7</text>
<rect x="897.8" y="302.4" width="14.3" height="63.6" fill="#3f3f3f" stroke="black" stroke-width="0.7"/>
<text x="907.5" y="298.4" font-size="7.5" text-anchor="start" transform="rotate(-90 907.5 298.4)">105</text>
<text x="889.7" y="382" font-size="11" text-anchor="middle">16</text>
<rect x="931.1" y="325.2" width="14.3" height="40.8" fill="#ffffff" stroke="black" stroke-width="0.7"/>
<text x="940.7" y="321.2" font-size="7.5" text-anchor="start" transform="rotate(-90 940.7 321.2)">67.6</text>
<rect x="947.3" y="304.7" width="14.3" height="61.3" fill="#9e9e9e" stroke="black" stroke-width="0.7"/>
<text x="957.0" y="300.7" font-size="7.5" text-anchor="start" transform="rotate(-90 957.0 300.7)">102</text>
<rect x="963.5" y="241.0" width="14.3" height="125.0" fill="#3f3f3f" stroke="black" stroke-width="0.7"/>
<text x="973.2" y="237.0" font-size="7.5" text-anchor="start" transform="rotate(-90 973.2 237.0)">207</text>
<text x="955.4" y="382" font-size="11" text-anchor="middle">32</text>
<rect x="996.8" y="299.1" width="14.3" height="66.9" fill="#ffffff" stroke="black" stroke-width="0.7"/>
<text x="1006.5" y="295.1" font-size="7.5" text-anchor="start" transform="rotate(-90 1006.5 295.1)">111</text>
<rect x="1013.0" y="271.6" width="14.3" height="94.4" fill="#9e9e9e" stroke="black" stroke-width="0.7"/>
<text x="1022.7" y="267.6" font-size="7.5" text-anchor="start" transform="rotate(-90 1022.7 267.6)">157</text>
<rect x="1029.2" y="120.1" width="14.3" height="245.9" fill="#3f3f3f" stroke="black" stroke-width="0.7"/>
<text x="1038.9" y="116.1" font-size="7.5" text-anchor="start" transform="rotate(-90 1038.9 116.1)">408</text>
<text x="1021.1" y="382" font-size="11" text-anchor="middle">64</text>
</svg>