<svg xmlns="http://www.w3.org/2000/svg" width="1072" height="420" viewBox="0 0 1072 420" font-family="sans-serif">
<rect width="1072" height="420" fill="white"/>
<text x="536" y="20" text-anchor="middle" font-size="15" font-weight="bold">dmb_ishst  (l2)</text>
<rect x="371" y="32" width="12" height="12" fill="#ffffff" stroke="black" stroke-width="0.8"/>
<text x="387" y="42" font-size="11">Baseline</text>
<rect x="491" y="32" width="12" height="12" fill="#9e9e9e" stroke="black" stroke-width="0.8"/>
<text x="507" y="42" font-size="11">After group</text>
<rect x="611" y="32" width="12" height="12" fill="#3f3f3f" stroke="black" stroke-width="0.8"/>
<text x="627" y="42" font-size="11">After every</text>
<line x1="58" y1="60" x2="58" y2="366" stroke="black" stroke-width="1.4"/>
<line x1="58" y1="366" x2="518" y2="366" stroke="black" stroke-width="1.4"/>
<text x="15" y="216" font-size="12" text-anchor="middle" transform="rotate(-90 15 216)">Cycles</text>
<text x="288" y="408" font-size="12" text-anchor="middle">Number of Inst. (N)</text>
<rect x="66.5" y="357.3" width="14.3" height="8.7" fill="#ffffff" stroke="black" stroke-width="0.7"/>
<text x="76.2" y="353.3" font-size="7.5" text-anchor="start" transform="rotate(-90 76.2 353.3)">14.7</text>
<rect x="82.8" y="357.2" width="14.3" height="8.8" fill="#9e9e9e" stroke="black" stroke-width="0.7"/>
<text x="92.4" y="353.2" font-size="7.5" text-anchor="start" transform="rotate(-90 92.4 353.2)">14.8</text>
<rect x="99.0" y="357.2" width="14.3" height="8.8" fill="#3f3f3f" stroke="black" stroke-width="0.7"/>
<text x="108.6" y="353.2" font-size="7.5" text-anchor="start" transform="rotate(-90 108.6 353.2)">14.7</text>
<text x="90.9" y="382" font-size="11" text-anchor="middle">1</text>
<rect x="132.3" y="353.8" width="14.3" height="12.2" fill="#ffffff" stroke="black" stroke-width="0.7"/>
<text x="141.9" y="349.8" font-size="7.5" text-anchor="start" transform="rotate(-90 141.9 349.8)">20.5</text>
<rect x="148.5" y="353.7" width="14.3" height="12.3" fill="#9e9e9e" stroke="black" stroke-width="0.7"/>
<text x="158.1" y="349.7" font-size="7.5" text-anchor="start" transform="rotate(-90 158.1 349.7)">20.7</text>
<rect x="164.7" y="353.3" width="14.3" height="12.7" fill="#3f3f3f" stroke="black" stroke-width="0.7"/>
<text x="174.3" y="349.3" font-size="7.5" text-anchor="start" transform="rotate(-90 174.3 349.3)">21.4</text>
<text x="156.6" y="382" font-size="11" text-anchor="middle">2</text>
<rect x="198.0" y="350.7" width="14.3" height="15.3" fill="#ffffff" stroke="black" stroke-width="0.7"/>
<text x="207.6" y="346.7" font-size="7.5" text-anchor="start" transform="rotate(-90 207.6 346.7)">25.6</text>
<rect x="214.2" y="350.1" width="14.3" height="15.9" fill="#9e9e9e" stroke="black" stroke-width="0.7"/>
<text x="223.8" y="346.1" font-size="7.5" text-anchor="start" transform="rotate(-90 223.8 346.1)">26.7</text>
<rect x="230.4" y="346.5" width="14.3" height="19.5" fill="#3f3f3f" stroke="black" stroke-width="0.7"/>
<text x="240.0" y="342.5" font-size="7.5" text-anchor="start" transform="rotate(-90 240.0 342.5)">32.8</text>
<text x="222.3" y="382" font-size="11" text-anchor="middle">4</text>
<rect x="263.7" y="342.1" width="14.3" height="23.9" fill="#ffffff" stroke="black" stroke-width="0.7"/>
<text x="273.3" y="338.1" font-size="7.5" text-anchor="start" transform="rotate(-90 273.3 338.1)">40.2</text>
<rect x="279.9" y="341.8" width="14.3" height="24.2" fill="#9e9e9e" stroke="black" stroke-width="0.7"/>
<text x="289.5" y="337.8" font-size="7.5" text-anchor="start" transform="rotate(-90 289.5 337.8)">40.6</text>
<rect x="296.1" y="333.8" width="14.3" height="32.2" fill="#3f3f3f" stroke="black" stroke-width="0.7"/>
<text x="305.7" y="329.8" font-size="7.5" text-anchor="start" transform="rotate(-90 305.7 329.8)">54.2</text>
<text x="288.0" y="382" font-size="11" text-anchor="middle">8</text>
<rect x="329.4" y="325.3" width="14.3" height="40.7" fill="#ffffff" stroke="black" stroke-width="0.7"/>
<text x="339.0" y="321.3" font-size="7.5" text-anchor="start" transform="rotate(-90 339.0 321.3)">68.4</text>
<rect x="345.6" y="324.8" width="14.3" height="41.2" fill="#9e9e9e" stroke="black" stroke-width="0.7"/>
<text x="355.2" y="320.8" font-size="7.5" text-anchor="start" transform="rotate(-90 355.2 320.8)">69.3</text>
<rect x="361.8" y="303.0" width="14.3" height="63.0" fill="#3f3f3f" stroke="black" stroke-width="0.7"/>
<text x="371.5" y="299.0" font-size="7.5" text-anchor="start" transform="rotate(-90 371.5 299.0)">106</text>
<text x="353.7" y="382" font-size="11" text-anchor="middle">16</text>
<rect x="395.1" y="293.4" width="14.3" height="72.6" fill="#ffffff" stroke="black" stroke-width="0.7"/>
<text x="404.7" y="289.4" font-size="7.5" text-anchor="start" transform="rotate(-90 404.7 289.4)">122</text>
<rect x="411.3" y="294.5" width="14.3" height="71.5" fill="#9e9e9e" stroke="black" stroke-width="0.7"/>
<text x="421.0" y="290.5" font-size="7.5" text-anchor="start" transform="rotate(-90 421.0 290.5)">120</text>
<rect x="427.5" y="239.1" width="14.3" height="126.9" fill="#3f3f3f" stroke="black" stroke-width="0.7"/>
<text x="437.2" y="235.1" font-size="7.5" text-anchor="start" transform="rotate(-90 437.2 235.1)">213</text>
<text x="419.4" y="382" font-size="11" text-anchor="middle">32</text>
<rect x="460.8" y="226.7" width="14.3" height="139.3" fill="#ffffff" stroke="black" stroke-width="0.7"/>
<text x="470.5" y="222.7" font-size="7.5" text-anchor="start" transform="rotate(-90 470.5 222.7)">234</text>
<rect x="477.0" y="227.4" width="14.3" height="138.6" fill="#9e9e9e" stroke="black" stroke-width="0.7"/>
<text x="486.7" y="223.4" font-size="7.5" text-anchor="start" transform="rotate(-90 486.7 223.4)">233</text>
<rect x="493.2" y="120.1" width="14.3" height="245.9" fill="#3f3f3f" stroke="black" stroke-width="0.7"/>
<text x="502.9" y="116.1" font-size="7.5" text-anchor="start" transform="rotate(-90 502.9 116.1)">413</text>
<text x="485.1" y="382" font-size="11" text-anchor="middle">64</text>
<line x1="594" y1="60" x2="594" y2="366" stroke="black" stroke-width="1.4"/>
<line x1="594" y1="366" x2="1054" y2="366" stroke="black" stroke-width="1.4"/>
<text x="551" y="216" font-size="12" text-anchor="middle" transform="rotate(-90 551 216)">Wall-time (ns)</text>
<text x="824" y="408" font-size="12" text-anchor="middle">Number of Inst. (N)</text>
<rect x="602.5" y="357.2" width="14.3" height="8.8" fill="#ffffff" stroke="black" stroke-width="0.7"/>
<text x="612.2" y="353.2" font-size="7.5" text-anchor="start" transform="rotate(-90 612.2 353.2)">4.6</text>
<rect x="618.8" y="357.2" width="14.3" height="8.8" fill="#9e9e9e" stroke="black" stroke-width="0.7"/>
<text x="628.4" y="353.2" font-size="7.5" text-anchor="start" transform="rotate(-90 628.4 353.2)">4.6</text>
<rect x="635.0" y="357.2" width="14.3" height="8.8" fill="#3f3f3f" stroke="black" stroke-width="0.7"/>
<text x="644.6" y="353.2" font-size="7.5" text-anchor="start" transform="rotate(-90 644.6 353.2)">4.6</text>
<text x="626.9" y="382" font-size="11" text-anchor="middle">1</text>
<rect x="668.3" y="353.8" width="14.3" height="12.2" fill="#ffffff" stroke="black" stroke-width="0.7"/>
<text x="677.9" y="349.8" font-size="7.5" text-anchor="start" transform="rotate(-90 677.9 349.8)">6.4</text>
<rect x="684.5" y="353.7" width="14.3" height="12.3" fill="#9e9e9e" stroke="black" stroke-width="0.7"/>
<text x="694.1" y="349.7" font-size="7.5" text-anchor="start" transform="rotate(-90 694.1 349.7)">6.4</text>
<rect x="700.7" y="353.2" width="14.3" height="12.8" fill="#3f3f3f" stroke="black" stroke-width="0.7"/>
<text x="710.3" y="349.2" font-size="7.5" text-anchor="start" transform="rotate(-90 710.3 349.2)">6.7</text>
<text x="692.6" y="382" font-size="11" text-anchor="middle">2</text>
<rect x="734.0" y="350.7" width="14.3" height="15.3" fill="#ffffff" stroke="black" stroke-width="0.7"/>
<text x="743.6" y="346.7" font-size="7.5" text-anchor="start" transform="rotate(-90 743.6 346.7)">8.0</text>
<rect x="750.2" y="350.1" width="14.3" height="15.9" fill="#9e9e9e" stroke="black" stroke-width="0.7"/>
<text x="759.8" y="346.1" font-size="7.5" text-anchor="start" transform="rotate(-90 759.8 346.1)">8.3</text>
<rect x="766.4" y="346.5" width="14.3" height="19.5" fill="#3f3f3f" stroke="black" stroke-width="0.7"/>
<text x="776.0" y="342.5" font-size="7.5" text-anchor="start" transform="rotate(-90 776.0 342.5)">10.2</text>
<text x="758.3" y="382" font-size="11" text-anchor="middle">4</text>
<rect x="799.7" y="342.1" width="14.3" height="23.9" fill="#ffffff" stroke="black" stroke-width="0.7"/>
<text x="809.3" y="338.1" font-size="7.5" text-anchor="start" transform="rotate(-90 809.3 338.1)">12.5</text>
<rect x="815.9" y="341.8" width="14.3" height="24.2" fill="#9e9e9e" stroke="black" stroke-width="0.7"/>
<text x="825.5" y="337.8" font-size="7.5" text-anchor="start" transform="rotate(-90 825.5 337.8)">12.6</text>
<rect x="832.1" y="333.8" width="14.3" height="32.2" fill="#3f3f3f" stroke="black" stroke-width="0.7"/>
<text x="841.7" y="329.8" font-size="7.5" text-anchor="start" transform="rotate(-90 841.7 329.8)">16.8</text>
<text x="824.0" y="382" font-size="11" text-anchor="middle">8</text>
<rect x="865.4" y="325.4" width="14.3" height="40.6" fill="#ffffff" stroke="black" stroke-width="0.7"/>
<text x="875.0" y="321.4" font-size="7.5" text-anchor="start" transform="rotate(-90 875.0 321.4)">21.2</text>
<rect x="881.6" y="324.8" width="14.3" height="41.2" fill="#9e9e9e" stroke="black" stroke-width="0.7"/>
<text x="891.2" y="320.8" font-size="7.5" text-anchor="start" transform="rotate(-90 891.2 320.8)">21.5</text>
<rect x="897.8" y="303.0" width="14.3" height="63.0" fill="#3f3f3f" stroke="black" stroke-width="0.7"/>
<text x="907.5" y="299.0" font-size="7.5" text-anchor="start" transform="rotate(-90 907.5 299.0)">32.9</text>
<text x="889.7" y="382" font-size="11" text-anchor="middle">16</text>
<rect x="931.1" y="293.4" width="14.3" height="72.6" fill="#ffffff" stroke="black" stroke-width="0.7"/>
<text x="940.7" y="289.4" font-size="7.5" text-anchor="start" transform="rotate(-90 940.7 289.4)">37.9</text>
<rect x="947.3" y="294.6" width="14.3" height="71.4" fill="#9e9e9e" stroke="black" stroke-width="0.7"/>
<text x="957.0" y="290.6" font-size="7.5" text-anchor="start" transform="rotate(-90 957.0 290.6)">37.3</text>
<rect x="963.5" y="239.2" width="14.3" height="126.8" fill="#3f3f3f" stroke="black" stroke-width="0.7"/>
<text x="973.2" y="235.2" font-size="7.5" text-anchor="start" transform="rotate(-90 973.2 235.2)">66.2</text>
<text x="955.4" y="382" font-size="11" text-anchor="middle">32</text>
<rect x="996.8" y="226.5" width="14.3" height="139.5" fill="#ffffff" stroke="black" stroke-width="0.7"/>
<text x="1006.5" y="222.5" font-size="7.5" text-anchor="start" transform="rotate(-90 1006.5 222.5)">72.9</text>
<rect x="1013.0" y="227.2" width="14.3" height="138.8" fill="#9e9e9e" stroke="black" stroke-width="0.7"/>
<text x="1022.7" y="223.2" font-size="7.5" text-anchor="start" transform="rotate(-90 1022.7 223.2)">72.5</text>
<rect x="1029.2" y="120.1" width="14.3" height="245.9" fill="#3f3f3f" stroke="black" stroke-width="0.7"/>
<text x="1038.9" y="116.1" font-size="7.5" text-anchor="start" transform="rotate(-90 1038.9 116.1)">128</text>
<text x="1021.1" y="382" font-size="11" text-anchor="middle">64</text>
</svg>