<svg xmlns="http://www.w3.org/2000/svg" width="1072" height="420" viewBox="0 0 1072 420" font-family="sans-serif">
<rect width="1072" height="420" fill="white"/>
<text x="536" y="20" text-anchor="middle" font-size="15" font-weight="bold">stlr  (l3)</text>
<rect x="371" y="32" width="12" height="12" fill="#ffffff" stroke="black" stroke-width="0.8"/>
<text x="387" y="42" font-size="11">Baseline</text>
<rect x="491" y="32" width="12" height="12" fill="#9e9e9e" stroke="black" stroke-width="0.8"/>
<text x="507" y="42" font-size="11">After group</text>
<rect x="611" y="32" width="12" height="12" fill="#3f3f3f" stroke="black" stroke-width="0.8"/>
<text x="627" y="42" font-size="11">After every</text>
<line x1="58" y1="60" x2="58" y2="366" stroke="black" stroke-width="1.4"/>
<line x1="58" y1="366" x2="518" y2="366" stroke="black" stroke-width="1.4"/>
<text x="15" y="216" font-size="12" text-anchor="middle" transform="rotate(-90 15 216)">Cycles</text>
<text x="288" y="408" font-size="12" text-anchor="middle">Number of Inst. (N)</text>
<rect x="66.5" y="357.7" width="14.3" height="8.3" fill="#ffffff" stroke="black" stroke-width="0.7"/>
<text x="76.2" y="353.7" font-size="7.5" text-anchor="start" transform="rotate(-90 76.2 353.7)">23.8</text>
<rect x="82.8" y="357.6" width="14.3" height="8.4" fill="#9e9e9e" stroke="black" stroke-width="0.7"/>
<text x="92.4" y="353.6" font-size="7.5" text-anchor="start" transform="rotate(-90 92.4 353.6)">23.8</text>
<rect x="99.0" y="357.5" width="14.3" height="8.5" fill="#3f3f3f" stroke="black" stroke-width="0.7"/>
<text x="108.6" y="353.5" font-size="7.5" text-anchor="start" transform="rotate(-90 108.6 353.5)">24.1</text>
<text x="90.9" y="382" font-size="11" text-anchor="middle">1</text>
<rect x="132.3" y="356.6" width="14.3" height="9.4" fill="#ffffff" stroke="black" stroke-width="0.7"/>
<text x="141.9" y="352.6" font-size="7.5" text-anchor="start" transform="rotate(-90 141.9 352.6)">26.7</text>
<rect x="148.5" y="356.4" width="14.3" height="9.6" fill="#9e9e9e" stroke="black" stroke-width="0.7"/>
<text x="158.1" y="352.4" font-size="7.5" text-anchor="start" transform="rotate(-90 158.1 352.4)">27.4</text>
<rect x="164.7" y="356.5" width="14.3" height="9.5" fill="#3f3f3f" stroke="black" stroke-width="0.7"/>
<text x="174.3" y="352.5" font-size="7.5" text-anchor="start" transform="rotate(-90 174.3 352.5)">27.1</text>
<text x="156.6" y="382" font-size="11" text-anchor="middle">2</text>
<rect x="198.0" y="354.5" width="14.3" height="11.5" fill="#ffffff" stroke="black" stroke-width="0.7"/>
<text x="207.6" y="350.5" font-size="7.5" text-anchor="start" transform="rotate(-90 207.6 350.5)">32.7</text>
<rect x="214.2" y="354.4" width="14.3" height="11.6" fill="#9e9e9e" stroke="black" stroke-width="0.7"/>
<text x="223.8" y="350.4" font-size="7.5" text-anchor="start" transform="rotate(-90 223.8 350.4)">33.0</text>
<rect x="230.4" y="348.4" width="14.3" height="17.6" fill="#3f3f3f" stroke="black" stroke-width="0.7"/>
<text x="240.0" y="344.4" font-size="7.5" text-anchor="start" transform="rotate(-90 240.0 344.4)">50.2</text>
<text x="222.3" y="382" font-size="11" text-anchor="middle">4</text>
<rect x="263.7" y="345.2" width="14.3" height="20.8" fill="#ffffff" stroke="black" stroke-width="0.7"/>
<text x="273.3" y="341.2" font-size="7.5" text-anchor="start" transform="rotate(-90 273.3 341.2)">59.1</text>
<rect x="279.9" y="344.0" width="14.3" height="22.0" fill="#9e9e9e" stroke="black" stroke-width="0.7"/>
<text x="289.5" y="340.0" font-size="7.5" text-anchor="start" transform="rotate(-90 289.5 340.0)">62.6</text>
<rect x="296.1" y="331.3" width="14.3" height="34.7" fill="#3f3f3f" stroke="black" stroke-width="0.7"/>
<text x="305.7" y="327.3" font-size="7.5" text-anchor="start" transform="rotate(-90 305.7 327.3)">98.8</text>
<text x="288.0" y="382" font-size="11" text-anchor="middle">8</text>
<rect x="329.4" y="324.1" width="14.3" height="41.9" fill="#ffffff" stroke="black" stroke-width="0.7"/>
<text x="339.0" y="320.1" font-size="7.5" text-anchor="start" transform="rotate(-90 339.0 320.1)">119</text>
<rect x="345.6" y="323.0" width="14.3" height="43.0" fill="#9e9e9e" stroke="black" stroke-width="0.7"/>
<text x="355.2" y="319.0" font-size="7.5" text-anchor="start" transform="rotate(-90 355.2 319.0)">122</text>
<rect x="361.8" y="302.6" width="14.3" height="63.4" fill="#3f3f3f" stroke="black" stroke-width="0.7"/>
<text x="371.5" y="298.6" font-size="7.5" text-anchor="start" transform="rotate(-90 371.5 298.6)">181</text>
<text x="353.7" y="382" font-size="11" text-anchor="middle">16</text>
<rect x="395.1" y="289.6" width="14.3" height="76.4" fill="#ffffff" stroke="black" stroke-width="0.7"/>
<text x="404.7" y="285.6" font-size="7.5" text-anchor="start" transform="rotate(-90 404.7 285.6)">218</text>
<rect x="411.3" y="288.6" width="14.3" height="77.4" fill="#9e9e9e" stroke="black" stroke-width="0.7"/>
<text x="421.0" y="284.6" font-size="7.5" text-anchor="start" transform="rotate(-90 421.0 284.6)">220</text>
<rect x="427.5" y="240.1" width="14.3" height="125.9" fill="#3f3f3f" stroke="black" stroke-width="0.7"/>
<text x="437.2" y="236.1" font-size="7.5" text-anchor="start" transform="rotate(-90 437.2 236.1)">359</text>
<text x="419.4" y="382" font-size="11" text-anchor="middle">32</text>
<rect x="460.8" y="240.5" width="14.3" height="125.5" fill="#ffffff" stroke="black" stroke-width="0.7"/>
<text x="470.5" y="236.5" font-size="7.5" text-anchor="start" transform="rotate(-90 470.5 236.5)">357</text>
<rect x="477.0" y="239.5" width="14.3" height="126.5" fill="#9e9e9e" stroke="black" stroke-width="0.7"/>
<text x="486.7" y="235.5" font-size="7.5" text-anchor="start" transform="rotate(-90 486.7 235.5)">360</text>
<rect x="493.2" y="120.1" width="14.3" height="245.9" fill="#3f3f3f" stroke="black" stroke-width="0.7"/>
<text x="502.9" y="116.1" font-size="7.5" text-anchor="start" transform="rotate(-90 502.9 116.1)">700</text>
<text x="485.1" y="382" font-size="11" text-anchor="middle">64</text>
<line x1="594" y1="60" x2="594" y2="366" stroke="black" stroke-width="1.4"/>
<line x1="594" y1="366" x2="1054" y2="366" stroke="black" stroke-width="1.4"/>
<text x="551" y="216" font-size="12" text-anchor="middle" transform="rotate(-90 551 216)">Wall-time (ns)</text>
<text x="824" y="408" font-size="12" text-anchor="middle">Number of Inst. (N)</text>
<rect x="602.5" y="357.6" width="14.3" height="8.4" fill="#ffffff" stroke="black" stroke-width="0.7"/>
<text x="612.2" y="353.6" font-size="7.5" text-anchor="start" transform="rotate(-90 612.2 353.6)">7.4</text>
<rect x="618.8" y="357.6" width="14.3" height="8.4" fill="#9e9e9e" stroke="black" stroke-width="0.7"/>
<text x="628.4" y="353.6" font-size="7.5" text-anchor="start" transform="rotate(-90 628.4 353.6)">7.4</text>
<rect x="635.0" y="357.5" width="14.3" height="8.5" fill="#3f3f3f" stroke="black" stroke-width="0.7"/>
<text x="644.6" y="353.5" font-size="7.5" text-anchor="start" transform="rotate(-90 644.6 353.5)">7.5</text>
<text x="626.9" y="382" font-size="11" text-anchor="middle">1</text>
<rect x="668.3" y="356.6" width="14.3" height="9.4" fill="#ffffff" stroke="black" stroke-width="0.7"/>
<text x="677.9" y="352.6" font-size="7.5" text-anchor="start" transform="rotate(-90 677.9 352.6)">8.3</text>
<rect x="684.5" y="356.3" width="14.3" height="9.7" fill="#9e9e9e" stroke="black" stroke-width="0.7"/>
<text x="694.1" y="352.3" font-size="7.5" text-anchor="start" transform="rotate(-90 694.1 352.3)">8.5</text>
<rect x="700.7" y="356.4" width="14.3" height="9.6" fill="#3f3f3f" stroke="black" stroke-width="0.7"/>
<text x="710.3" y="352.4" font-size="7.5" text-anchor="start" transform="rotate(-90 710.3 352.4)">8.4</text>
<text x="692.6" y="382" font-size="11" text-anchor="middle">2</text>
<rect x="734.0" y="354.5" width="14.3" height="11.5" fill="#ffffff" stroke="black" stroke-width="0.7"/>
<text x="743.6" y="350.5" font-size="7.5" text-anchor="start" transform="rotate(-90 743.6 350.5)">10.2</text>
<rect x="750.2" y="354.4" width="14.3" height="11.6" fill="#9e9e9e" stroke="black" stroke-width="0.7"/>
<text x="759.8" y="350.4" font-size="7.5" text-anchor="start" transform="rotate(-90 759.8 350.4)">10.3</text>
<rect x="766.4" y="348.4" width="14.3" height="17.6" fill="#3f3f3f" stroke="black" stroke-width="0.7"/>
<text x="776.0" y="344.4" font-size="7.5" text-anchor="start" transform="rotate(-90 776.0 344.4)">15.6</text>
<text x="758.3" y="382" font-size="11" text-anchor="middle">4</text>
<rect x="799.7" y="345.2" width="14.3" height="20.8" fill="#ffffff" stroke="black" stroke-width="0.7"/>
<text x="809.3" y="341.2" font-size="7.5" text-anchor="start" transform="rotate(-90 809.3 341.2)">18.4</text>
<rect x="815.9" y="344.0" width="14.3" height="22.0" fill="#9e9e9e" stroke="black" stroke-width="0.7"/>
<text x="825.5" y="340.0" font-size="7.5" text-anchor="start" transform="rotate(-90 825.5 340.0)">19.5</text>
<rect x="832.1" y="331.2" width="14.3" height="34.8" fill="#3f3f3f" stroke="black" stroke-width="0.7"/>
<text x="841.7" y="327.2" font-size="7.5" text-anchor="start" transform="rotate(-90 841.7 327.2)">30.8</text>
<text x="824.0" y="382" font-size="11" text-anchor="middle">8</text>
<rect x="865.4" y="324.1" width="14.3" height="41.9" fill="#ffffff" stroke="black" stroke-width="0.7"/>
<text x="875.0" y="320.1" font-size="7.5" text-anchor="start" transform="rotate(-90 875.0 320.1)">37.0</text>
<rect x="881.6" y="322.9" width="14.3" height="43.1" fill="#9e9e9e" stroke="black" stroke-width="0.7"/>
<text x="891.2" y="318.9" font-size="7.5" text-anchor="start" transform="rotate(-90 891.2 318.9)">38.1</text>
<rect x="897.8" y="302.5" width="14.3" height="63.5" fill="#3f3f3f" stroke="black" stroke-width="0.7"/>
<text x="907.5" y="298.5" font-size="7.5" text-anchor="start" transform="rotate(-90 907.5 298.5)">56.1</text>
<text x="889.7" y="382" font-size="11" text-anchor="middle">16</text>
<rect x="931.1" y="289.5" width="14.3" height="76.5" fill="#ffffff" stroke="black" stroke-width="0.7"/>
<text x="940.7" y="285.5" font-size="7.5" text-anchor="start" transform="rotate(-90 940.7 285.5)">67.6</text>
<rect x="947.3" y="288.5" width="14.3" height="77.5" fill="#9e9e9e" stroke="black" stroke-width="0.7"/>
<text x="957.0" y="284.5" font-size="7.5" text-anchor="start" transform="rotate(-90 957.0 284.5)">68.5</text>
<rect x="963.5" y="240.0" width="14.3" height="126.0" fill="#3f3f3f" stroke="black" stroke-width="0.7"/>
<text x="973.2" y="236.0" font-size="7.5" text-anchor="start" transform="rotate(-90 973.2 236.0)">111</text>
<text x="955.4" y="382" font-size="11" text-anchor="middle">32</text>
<rect x="996.8" y="240.5" width="14.3" height="125.5" fill="#ffffff" stroke="black" stroke-width="0.7"/>
<text x="1006.5" y="236.5" font-size="7.5" text-anchor="start" transform="rotate(-90 1006.5 236.5)">111</text>
<rect x="1013.0" y="239.4" width="14.3" height="126.6" fill="#9e9e9e" stroke="black" stroke-width="0.7"/>
<text x="1022.7" y="235.4" font-size="7.5" text-anchor="start" transform="rotate(-90 1022.7 235.4)">112</text>
<rect x="1029.2" y="120.1" width="14.3" height="245.9" fill="#3f3f3f" stroke="black" stroke-width="0.7"/>
<text x="1038.9" y="116.1" font-size="7.5" text-anchor="start" transform="rotate(-90 1038.9 116.1)">217</text>
<text x="1021.1" y="382" font-size="11" text-anchor="middle">64</text>
</svg>