<svg xmlns="http://www.w3.org/2000/svg" width="1072" height="420" viewBox="0 0 1072 420" font-family="sans-serif">
<rect width="1072" height="420" fill="white"/>
<text x="536" y="20" text-anchor="middle" font-size="15" font-weight="bold">stlr  (hit)</text>
<rect x="371" y="32" width="12" height="12" fill="#ffffff" stroke="black" stroke-width="0.8"/>
<text x="387" y="42" font-size="11">Baseline</text>
<rect x="491" y="32" width="12" height="12" fill="#9e9e9e" stroke="black" stroke-width="0.8"/>
<text x="507" y="42" font-size="11">After group</text>
<rect x="611" y="32" width="12" height="12" fill="#3f3f3f" stroke="black" stroke-width="0.8"/>
<text x="627" y="42" font-size="11">After every</text>
<line x1="58" y1="60" x2="58" y2="366" stroke="black" stroke-width="1.4"/>
<line x1="58" y1="366" x2="518" y2="366" stroke="black" stroke-width="1.4"/>
<text x="15" y="216" font-size="12" text-anchor="middle" transform="rotate(-90 15 216)">Cycles</text>
<text x="288" y="408" font-size="12" text-anchor="middle">Number of Inst. (N)</text>
<rect x="66.5" y="361.7" width="14.3" height="4.3" fill="#ffffff" stroke="black" stroke-width="0.7"/>
<text x="76.2" y="357.7" font-size="7.5" text-anchor="start" transform="rotate(-90 76.2 357.7)">3.9</text>
<rect x="82.8" y="361.6" width="14.3" height="4.4" fill="#9e9e9e" stroke="black" stroke-width="0.7"/>
<text x="92.4" y="357.6" font-size="7.5" text-anchor="start" transform="rotate(-90 92.4 357.6)">3.9</text>
<rect x="99.0" y="361.6" width="14.3" height="4.4" fill="#3f3f3f" stroke="black" stroke-width="0.7"/>
<text x="108.6" y="357.6" font-size="7.5" text-anchor="start" transform="rotate(-90 108.6 357.6)">3.9</text>
<text x="90.9" y="382" font-size="11" text-anchor="middle">1</text>
<rect x="132.3" y="358.4" width="14.3" height="7.6" fill="#ffffff" stroke="black" stroke-width="0.7"/>
<text x="141.9" y="354.4" font-size="7.5" text-anchor="start" transform="rotate(-90 141.9 354.4)">6.8</text>
<rect x="148.5" y="358.2" width="14.3" height="7.8" fill="#9e9e9e" stroke="black" stroke-width="0.7"/>
<text x="158.1" y="354.2" font-size="7.5" text-anchor="start" transform="rotate(-90 158.1 354.2)">7.0</text>
<rect x="164.7" y="358.1" width="14.3" height="7.9" fill="#3f3f3f" stroke="black" stroke-width="0.7"/>
<text x="174.3" y="354.1" font-size="7.5" text-anchor="start" transform="rotate(-90 174.3 354.1)">7.0</text>
<text x="156.6" y="382" font-size="11" text-anchor="middle">2</text>
<rect x="198.0" y="352.4" width="14.3" height="13.6" fill="#ffffff" stroke="black" stroke-width="0.7"/>
<text x="207.6" y="348.4" font-size="7.5" text-anchor="start" transform="rotate(-90 207.6 348.4)">12.1</text>
<rect x="214.2" y="352.3" width="14.3" height="13.7" fill="#9e9e9e" stroke="black" stroke-width="0.7"/>
<text x="223.8" y="348.3" font-size="7.5" text-anchor="start" transform="rotate(-90 223.8 348.3)">12.3</text>
<rect x="230.4" y="352.2" width="14.3" height="13.8" fill="#3f3f3f" stroke="black" stroke-width="0.7"/>
<text x="240.0" y="348.2" font-size="7.5" text-anchor="start" transform="rotate(-90 240.0 348.2)">12.4</text>
<text x="222.3" y="382" font-size="11" text-anchor="middle">4</text>
<rect x="263.7" y="338.7" width="14.3" height="27.3" fill="#ffffff" stroke="black" stroke-width="0.7"/>
<text x="273.3" y="334.7" font-size="7.5" text-anchor="start" transform="rotate(-90 273.3 334.7)">24.5</text>
<rect x="279.9" y="339.1" width="14.3" height="26.9" fill="#9e9e9e" stroke="black" stroke-width="0.7"/>
<text x="289.5" y="335.1" font-size="7.5" text-anchor="start" transform="rotate(-90 289.5 335.1)">24.1</text>
<rect x="296.1" y="337.8" width="14.3" height="28.2" fill="#3f3f3f" stroke="black" stroke-width="0.7"/>
<text x="305.7" y="333.8" font-size="7.5" text-anchor="start" transform="rotate(-90 305.7 333.8)">25.2</text>
<text x="288.0" y="382" font-size="11" text-anchor="middle">8</text>
<rect x="329.4" y="309.1" width="14.3" height="56.9" fill="#ffffff" stroke="black" stroke-width="0.7"/>
<text x="339.0" y="305.1" font-size="7.5" text-anchor="start" transform="rotate(-90 339.0 305.1)">51.0</text>
<rect x="345.6" y="309.5" width="14.3" height="56.5" fill="#9e9e9e" stroke="black" stroke-width="0.7"/>
<text x="355.2" y="305.5" font-size="7.5" text-anchor="start" transform="rotate(-90 355.2 305.5)">50.6</text>
<rect x="361.8" y="307.6" width="14.3" height="58.4" fill="#3f3f3f" stroke="black" stroke-width="0.7"/>
<text x="371.5" y="303.6" font-size="7.5" text-anchor="start" transform="rotate(-90 371.5 303.6)">52.3</text>
<text x="353.7" y="382" font-size="11" text-anchor="middle">16</text>
<rect x="395.1" y="252.0" width="14.3" height="114.0" fill="#ffffff" stroke="black" stroke-width="0.7"/>
<text x="404.7" y="248.0" font-size="7.5" text-anchor="start" transform="rotate(-90 404.7 248.0)">102</text>
<rect x="411.3" y="253.6" width="14.3" height="112.4" fill="#9e9e9e" stroke="black" stroke-width="0.7"/>
<text x="421.0" y="249.6" font-size="7.5" text-anchor="start" transform="rotate(-90 421.0 249.6)">101</text>
<rect x="427.5" y="249.6" width="14.3" height="116.4" fill="#3f3f3f" stroke="black" stroke-width="0.7"/>
<text x="437.2" y="245.6" font-size="7.5" text-anchor="start" transform="rotate(-90 437.2 245.6)">104</text>
<text x="419.4" y="382" font-size="11" text-anchor="middle">32</text>
<rect x="460.8" y="125.9" width="14.3" height="240.1" fill="#ffffff" stroke="black" stroke-width="0.7"/>
<text x="470.5" y="121.9" font-size="7.5" text-anchor="start" transform="rotate(-90 470.5 121.9)">215</text>
<rect x="477.0" y="128.9" width="14.3" height="237.1" fill="#9e9e9e" stroke="black" stroke-width="0.7"/>
<text x="486.7" y="124.9" font-size="7.5" text-anchor="start" transform="rotate(-90 486.7 124.9)">212</text>
<rect x="493.2" y="120.1" width="14.3" height="245.9" fill="#3f3f3f" stroke="black" stroke-width="0.7"/>
<text x="502.9" y="116.1" font-size="7.5" text-anchor="start" transform="rotate(-90 502.9 116.1)">220</text>
<text x="485.1" y="382" font-size="11" text-anchor="middle">64</text>
<line x1="594" y1="60" x2="594" y2="366" stroke="black" stroke-width="1.4"/>
<line x1="594" y1="366" x2="1054" y2="366" stroke="black" stroke-width="1.4"/>
<text x="551" y="216" font-size="12" text-anchor="middle" transform="rotate(-90 551 216)">Wall-time (ns)</text>
<text x="824" y="408" font-size="12" text-anchor="middle">Number of Inst. (N)</text>
<rect x="602.5" y="361.6" width="14.3" height="4.4" fill="#ffffff" stroke="black" stroke-width="0.7"/>
<text x="612.2" y="357.6" font-size="7.5" text-anchor="start" transform="rotate(-90 612.2 357.6)">1.2</text>
<rect x="618.8" y="361.6" width="14.3" height="4.4" fill="#9e9e9e" stroke="black" stroke-width="0.7"/>
<text x="628.4" y="357.6" font-size="7.5" text-anchor="start" transform="rotate(-90 628.4 357.6)">1.2</text>
<rect x="635.0" y="361.6" width="14.3" height="4.4" fill="#3f3f3f" stroke="black" stroke-width="0.7"/>
<text x="644.6" y="357.6" font-size="7.5" text-anchor="start" transform="rotate(-90 644.6 357.6)">1.2</text>
<text x="626.9" y="382" font-size="11" text-anchor="middle">1</text>
<rect x="668.3" y="358.4" width="14.3" height="7.6" fill="#ffffff" stroke="black" stroke-width="0.7"/>
<text x="677.9" y="354.4" font-size="7.5" text-anchor="start" transform="rotate(-90 677.9 354.4)">2.1</text>
<rect x="684.5" y="358.1" width="14.3" height="7.9" fill="#9e9e9e" stroke="black" stroke-width="0.7"/>
<text x="694.1" y="354.1" font-size="7.5" text-anchor="start" transform="rotate(-90 694.1 354.1)">2.2</text>
<rect x="700.7" y="358.1" width="14.3" height="7.9" fill="#3f3f3f" stroke="black" stroke-width="0.7"/>
<text x="710.3" y="354.1" font-size="7.5" text-anchor="start" transform="rotate(-90 710.3 354.1)">2.2</text>
<text x="692.6" y="382" font-size="11" text-anchor="middle">2</text>
<rect x="734.0" y="352.4" width="14.3" height="13.6" fill="#ffffff" stroke="black" stroke-width="0.7"/>
<text x="743.6" y="348.4" font-size="7.5" text-anchor="start" transform="rotate(-90 743.6 348.4)">3.8</text>
<rect x="750.2" y="352.2" width="14.3" height="13.8" fill="#9e9e9e" stroke="black" stroke-width="0.7"/>
<text x="759.8" y="348.2" font-size="7.5" text-anchor="start" transform="rotate(-90 759.8 348.2)">3.8</text>
<rect x="766.4" y="352.1" width="14.3" height="13.9" fill="#3f3f3f" stroke="black" stroke-width="0.7"/>
<text x="776.0" y="348.1" font-size="7.5" text-anchor="start" transform="rotate(-90 776.0 348.1)">3.9</text>
<text x="758.3" y="382" font-size="11" text-anchor="middle">4</text>
<rect x="799.7" y="338.6" width="14.3" height="27.4" fill="#ffffff" stroke="black" stroke-width="0.7"/>
<text x="809.3" y="334.6" font-size="7.5" text-anchor="start" transform="rotate(-90 809.3 334.6)">7.6</text>
<rect x="815.9" y="339.1" width="14.3" height="26.9" fill="#9e9e9e" stroke="black" stroke-width="0.7"/>
<text x="825.5" y="335.1" font-size="7.5" text-anchor="start" transform="rotate(-90 825.5 335.1)">7.5</text>
<rect x="832.1" y="337.8" width="14.3" height="28.2" fill="#3f3f3f" stroke="black" stroke-width="0.7"/>
<text x="841.7" y="333.8" font-size="7.5" text-anchor="start" transform="rotate(-90 841.7 333.8)">7.8</text>
<text x="824.0" y="382" font-size="11" text-anchor="middle">8</text>
<rect x="865.4" y="309.1" width="14.3" height="56.9" fill="#ffffff" stroke="black" stroke-width="0.7"/>
<text x="875.0" y="305.1" font-size="7.5" text-anchor="start" transform="rotate(-90 875.0 305.1)">15.8</text>
<rect x="881.6" y="309.5" width="14.3" height="56.5" fill="#9e9e9e" stroke="black" stroke-width="0.7"/>
<text x="891.2" y="305.5" font-size="7.5" text-anchor="start" transform="rotate(-90 891.2 305.5)">15.7</text>
<rect x="897.8" y="307.6" width="14.3" height="58.4" fill="#3f3f3f" stroke="black" stroke-width="0.7"/>
<text x="907.5" y="303.6" font-size="7.5" text-anchor="start" transform="rotate(-90 907.5 303.6)">16.2</text>
<text x="889.7" y="382" font-size="11" text-anchor="middle">16</text>
<rect x="931.1" y="252.0" width="14.3" height="114.0" fill="#ffffff" stroke="black" stroke-width="0.7"/>
<text x="940.7" y="248.0" font-size="7.5" text-anchor="start" transform="rotate(-90 940.7 248.0)">31.7</text>
<rect x="947.3" y="253.6" width="14.3" height="112.4" fill="#9e9e9e" stroke="black" stroke-width="0.7"/>
<text x="957.0" y="249.6" font-size="7.5" text-anchor="start" transform="rotate(-90 957.0 249.6)">31.2</text>
<rect x="963.5" y="249.7" width="14.3" height="116.3" fill="#3f3f3f" stroke="black" stroke-width="0.7"/>
<text x="973.2" y="245.7" font-size="7.5" text-anchor="start" transform="rotate(-90 973.2 245.7)">32.3</text>
<text x="955.4" y="382" font-size="11" text-anchor="middle">32</text>
<rect x="996.8" y="126.0" width="14.3" height="240.0" fill="#ffffff" stroke="black" stroke-width="0.7"/>
<text x="1006.5" y="122.0" font-size="7.5" text-anchor="start" transform="rotate(-90 1006.5 122.0)">66.7</text>
<rect x="1013.0" y="129.0" width="14.3" height="237.0" fill="#9e9e9e" stroke="black" stroke-width="0.7"/>
<text x="1022.7" y="125.0" font-size="7.5" text-anchor="start" transform="rotate(-90 1022.7 125.0)">65.9</text>
<rect x="1029.2" y="120.1" width="14.3" height="245.9" fill="#3f3f3f" stroke="black" stroke-width="0.7"/>
<text x="1038.9" y="116.1" font-size="7.5" text-anchor="start" transform="rotate(-90 1038.9 116.1)">68.3</text>
<text x="1021.1" y="382" font-size="11" text-anchor="middle">64</text>
</svg>