<svg xmlns="http://www.w3.org/2000/svg" width="1072" height="420" viewBox="0 0 1072 420" font-family="sans-serif">
<rect width="1072" height="420" fill="white"/>
<text x="536" y="20" text-anchor="middle" font-size="15" font-weight="bold">stlr  (dram)</text>
<rect x="371" y="32" width="12" height="12" fill="#ffffff" stroke="black" stroke-width="0.8"/>
<text x="387" y="42" font-size="11">Baseline</text>
<rect x="491" y="32" width="12" height="12" fill="#9e9e9e" stroke="black" stroke-width="0.8"/>
<text x="507" y="42" font-size="11">After group</text>
<rect x="611" y="32" width="12" height="12" fill="#3f3f3f" stroke="black" stroke-width="0.8"/>
<text x="627" y="42" font-size="11">After every</text>
<line x1="58" y1="60" x2="58" y2="366" stroke="black" stroke-width="1.4"/>
<line x1="58" y1="366" x2="518" y2="366" stroke="black" stroke-width="1.4"/>
<text x="15" y="216" font-size="12" text-anchor="middle" transform="rotate(-90 15 216)">Cycles</text>
<text x="288" y="408" font-size="12" text-anchor="middle">Number of Inst. (N)</text>
<rect x="66.5" y="335.8" width="14.3" height="30.2" fill="#ffffff" stroke="black" stroke-width="0.7"/>
<text x="76.2" y="331.8" font-size="7.5" text-anchor="start" transform="rotate(-90 76.2 331.8)">306</text>
<rect x="82.8" y="335.9" width="14.3" height="30.1" fill="#9e9e9e" stroke="black" stroke-width="0.7"/>
<text x="92.4" y="331.9" font-size="7.5" text-anchor="start" transform="rotate(-90 92.4 331.9)">304</text>
<rect x="99.0" y="335.8" width="14.3" height="30.2" fill="#3f3f3f" stroke="black" stroke-width="0.7"/>
<text x="108.6" y="331.8" font-size="7.5" text-anchor="start" transform="rotate(-90 108.6 331.8)">305</text>
<text x="90.9" y="382" font-size="11" text-anchor="middle">1</text>
<rect x="132.3" y="319.1" width="14.3" height="46.9" fill="#ffffff" stroke="black" stroke-width="0.7"/>
<text x="141.9" y="315.1" font-size="7.5" text-anchor="start" transform="rotate(-90 141.9 315.1)">475</text>
<rect x="148.5" y="319.1" width="14.3" height="46.9" fill="#9e9e9e" stroke="black" stroke-width="0.7"/>
<text x="158.1" y="315.1" font-size="7.5" text-anchor="start" transform="rotate(-90 158.1 315.1)">475</text>
<rect x="164.7" y="319.1" width="14.3" height="46.9" fill="#3f3f3f" stroke="black" stroke-width="0.7"/>
<text x="174.3" y="315.1" font-size="7.5" text-anchor="start" transform="rotate(-90 174.3 315.1)">475</text>
<text x="156.6" y="382" font-size="11" text-anchor="middle">2</text>
<rect x="198.0" y="304.7" width="14.3" height="61.3" fill="#ffffff" stroke="black" stroke-width="0.7"/>
<text x="207.6" y="300.7" font-size="7.5" text-anchor="start" transform="rotate(-90 207.6 300.7)">621</text>
<rect x="214.2" y="304.8" width="14.3" height="61.2" fill="#9e9e9e" stroke="black" stroke-width="0.7"/>
<text x="223.8" y="300.8" font-size="7.5" text-anchor="start" transform="rotate(-90 223.8 300.8)">620</text>
<rect x="230.4" y="304.8" width="14.3" height="61.2" fill="#3f3f3f" stroke="black" stroke-width="0.7"/>
<text x="240.0" y="300.8" font-size="7.5" text-anchor="start" transform="rotate(-90 240.0 300.8)">620</text>
<text x="222.3" y="382" font-size="11" text-anchor="middle">4</text>
<rect x="263.7" y="297.3" width="14.3" height="68.7" fill="#ffffff" stroke="black" stroke-width="0.7"/>
<text x="273.3" y="293.3" font-size="7.5" text-anchor="start" transform="rotate(-90 273.3 293.3)">695</text>
<rect x="279.9" y="296.6" width="14.3" height="69.4" fill="#9e9e9e" stroke="black" stroke-width="0.7"/>
<text x="289.5" y="292.6" font-size="7.5" text-anchor="start" transform="rotate(-90 289.5 292.6)">702</text>
<rect x="296.1" y="297.3" width="14.3" height="68.7" fill="#3f3f3f" stroke="black" stroke-width="0.7"/>
<text x="305.7" y="293.3" font-size="7.5" text-anchor="start" transform="rotate(-90 305.7 293.3)">696</text>
<text x="288.0" y="382" font-size="11" text-anchor="middle">8</text>
<rect x="329.4" y="290.5" width="14.3" height="75.5" fill="#ffffff" stroke="black" stroke-width="0.7"/>
<text x="339.0" y="286.5" font-size="7.5" text-anchor="start" transform="rotate(-90 339.0 286.5)">765</text>
<rect x="345.6" y="290.2" width="14.3" height="75.8" fill="#9e9e9e" stroke="black" stroke-width="0.7"/>
<text x="355.2" y="286.2" font-size="7.5" text-anchor="start" transform="rotate(-90 355.2 286.2)">767</text>
<rect x="361.8" y="290.5" width="14.3" height="75.5" fill="#3f3f3f" stroke="black" stroke-width="0.7"/>
<text x="371.5" y="286.5" font-size="7.5" text-anchor="start" transform="rotate(-90 371.5 286.5)">764</text>
<text x="353.7" y="382" font-size="11" text-anchor="middle">16</text>
<rect x="395.1" y="280.0" width="14.3" height="86.0" fill="#ffffff" stroke="black" stroke-width="0.7"/>
<text x="404.7" y="276.0" font-size="7.5" text-anchor="start" transform="rotate(-90 404.7 276.0)">870</text>
<rect x="411.3" y="279.8" width="14.3" height="86.2" fill="#9e9e9e" stroke="black" stroke-width="0.7"/>
<text x="421.0" y="275.8" font-size="7.5" text-anchor="start" transform="rotate(-90 421.0 275.8)">873</text>
<rect x="427.5" y="257.6" width="14.3" height="108.4" fill="#3f3f3f" stroke="black" stroke-width="0.7"/>
<text x="437.2" y="253.6" font-size="7.5" text-anchor="start" transform="rotate(-90 437.2 253.6)">1097</text>
<text x="419.4" y="382" font-size="11" text-anchor="middle">32</text>
<rect x="460.8" y="258.8" width="14.3" height="107.2" fill="#ffffff" stroke="black" stroke-width="0.7"/>
<text x="470.5" y="254.8" font-size="7.5" text-anchor="start" transform="rotate(-90 470.5 254.8)">1085</text>
<rect x="477.0" y="257.1" width="14.3" height="108.9" fill="#9e9e9e" stroke="black" stroke-width="0.7"/>
<text x="486.7" y="253.1" font-size="7.5" text-anchor="start" transform="rotate(-90 486.7 253.1)">1102</text>
<rect x="493.2" y="120.1" width="14.3" height="245.9" fill="#3f3f3f" stroke="black" stroke-width="0.7"/>
<text x="502.9" y="116.1" font-size="7.5" text-anchor="start" transform="rotate(-90 502.9 116.1)">2489</text>
<text x="485.1" y="382" font-size="11" text-anchor="middle">64</text>
<line x1="594" y1="60" x2="594" y2="366" stroke="black" stroke-width="1.4"/>
<line x1="594" y1="366" x2="1054" y2="366" stroke="black" stroke-width="1.4"/>
<text x="551" y="216" font-size="12" text-anchor="middle" transform="rotate(-90 551 216)">Wall-time (ns)</text>
<text x="824" y="408" font-size="12" text-anchor="middle">Number of Inst. (N)</text>
<rect x="602.5" y="335.8" width="14.3" height="30.2" fill="#ffffff" stroke="black" stroke-width="0.7"/>
<text x="612.2" y="331.8" font-size="7.5" text-anchor="start" transform="rotate(-90 612.2 331.8)">95.0</text>
<rect x="618.8" y="335.9" width="14.3" height="30.1" fill="#9e9e9e" stroke="black" stroke-width="0.7"/>
<text x="628.4" y="331.9" font-size="7.5" text-anchor="start" transform="rotate(-90 628.4 331.9)">94.6</text>
<rect x="635.0" y="335.8" width="14.3" height="30.2" fill="#3f3f3f" stroke="black" stroke-width="0.7"/>
<text x="644.6" y="331.8" font-size="7.5" text-anchor="start" transform="rotate(-90 644.6 331.8)">95.0</text>
<text x="626.9" y="382" font-size="11" text-anchor="middle">1</text>
<rect x="668.3" y="319.1" width="14.3" height="46.9" fill="#ffffff" stroke="black" stroke-width="0.7"/>
<text x="677.9" y="315.1" font-size="7.5" text-anchor="start" transform="rotate(-90 677.9 315.1)">148</text>
<rect x="684.5" y="319.0" width="14.3" height="47.0" fill="#9e9e9e" stroke="black" stroke-width="0.7"/>
<text x="694.1" y="315.0" font-size="7.5" text-anchor="start" transform="rotate(-90 694.1 315.0)">148</text>
<rect x="700.7" y="319.0" width="14.3" height="47.0" fill="#3f3f3f" stroke="black" stroke-width="0.7"/>
<text x="710.3" y="315.0" font-size="7.5" text-anchor="start" transform="rotate(-90 710.3 315.0)">148</text>
<text x="692.6" y="382" font-size="11" text-anchor="middle">2</text>
<rect x="734.0" y="304.6" width="14.3" height="61.4" fill="#ffffff" stroke="black" stroke-width="0.7"/>
<text x="743.6" y="300.6" font-size="7.5" text-anchor="start" transform="rotate(-90 743.6 300.6)">193</text>
<rect x="750.2" y="304.7" width="14.3" height="61.3" fill="#9e9e9e" stroke="black" stroke-width="0.7"/>
<text x="759.8" y="300.7" font-size="7.5" text-anchor="start" transform="rotate(-90 759.8 300.7)">193</text>
<rect x="766.4" y="304.7" width="14.3" height="61.3" fill="#3f3f3f" stroke="black" stroke-width="0.7"/>
<text x="776.0" y="300.7" font-size="7.5" text-anchor="start" transform="rotate(-90 776.0 300.7)">193</text>
<text x="758.3" y="382" font-size="11" text-anchor="middle">4</text>
<rect x="799.7" y="297.3" width="14.3" height="68.7" fill="#ffffff" stroke="black" stroke-width="0.7"/>
<text x="809.3" y="293.3" font-size="7.5" text-anchor="start" transform="rotate(-90 809.3 293.3)">216</text>
<rect x="815.9" y="296.5" width="14.3" height="69.5" fill="#9e9e9e" stroke="black" stroke-width="0.7"/>
<text x="825.5" y="292.5" font-size="7.5" text-anchor="start" transform="rotate(-90 825.5 292.5)">218</text>
<rect x="832.1" y="297.2" width="14.3" height="68.8" fill="#3f3f3f" stroke="black" stroke-width="0.7"/>
<text x="841.7" y="293.2" font-size="7.5" text-anchor="start" transform="rotate(-90 841.7 293.2)">216</text>
<text x="824.0" y="382" font-size="11" text-anchor="middle">8</text>
<rect x="865.4" y="290.4" width="14.3" height="75.6" fill="#ffffff" stroke="black" stroke-width="0.7"/>
<text x="875.0" y="286.4" font-size="7.5" text-anchor="start" transform="rotate(-90 875.0 286.4)">238</text>
<rect x="881.6" y="290.1" width="14.3" height="75.9" fill="#9e9e9e" stroke="black" stroke-width="0.7"/>
<text x="891.2" y="286.1" font-size="7.5" text-anchor="start" transform="rotate(-90 891.2 286.1)">238</text>
<rect x="897.8" y="290.5" width="14.3" height="75.5" fill="#3f3f3f" stroke="black" stroke-width="0.7"/>
<text x="907.5" y="286.5" font-size="7.5" text-anchor="start" transform="rotate(-90 907.5 286.5)">237</text>
<text x="889.7" y="382" font-size="11" text-anchor="middle">16</text>
<rect x="931.1" y="280.0" width="14.3" height="86.0" fill="#ffffff" stroke="black" stroke-width="0.7"/>
<text x="940.7" y="276.0" font-size="7.5" text-anchor="start" transform="rotate(-90 940.7 276.0)">270</text>
<rect x="947.3" y="279.7" width="14.3" height="86.3" fill="#9e9e9e" stroke="black" stroke-width="0.7"/>
<text x="957.0" y="275.7" font-size="7.5" text-anchor="start" transform="rotate(-90 957.0 275.7)">271</text>
<rect x="963.5" y="257.5" width="14.3" height="108.5" fill="#3f3f3f" stroke="black" stroke-width="0.7"/>
<text x="973.2" y="253.5" font-size="7.5" text-anchor="start" transform="rotate(-90 973.2 253.5)">341</text>
<text x="955.4" y="382" font-size="11" text-anchor="middle">32</text>
<rect x="996.8" y="258.7" width="14.3" height="107.3" fill="#ffffff" stroke="black" stroke-width="0.7"/>
<text x="1006.5" y="254.7" font-size="7.5" text-anchor="start" transform="rotate(-90 1006.5 254.7)">337</text>
<rect x="1013.0" y="257.0" width="14.3" height="109.0" fill="#9e9e9e" stroke="black" stroke-width="0.7"/>
<text x="1022.7" y="253.0" font-size="7.5" text-anchor="start" transform="rotate(-90 1022.7 253.0)">342</text>
<rect x="1029.2" y="120.1" width="14.3" height="245.9" fill="#3f3f3f" stroke="black" stroke-width="0.7"/>
<text x="1038.9" y="116.1" font-size="7.5" text-anchor="start" transform="rotate(-90 1038.9 116.1)">773</text>
<text x="1021.1" y="382" font-size="11" text-anchor="middle">64</text>
</svg>