<svg xmlns="http://www.w3.org/2000/svg" width="1072" height="420" viewBox="0 0 1072 420" font-family="sans-serif">
<rect width="1072" height="420" fill="white"/>
<text x="536" y="20" text-anchor="middle" font-size="15" font-weight="bold">stlr  (l2)</text>
<rect x="371" y="32" width="12" height="12" fill="#ffffff" stroke="black" stroke-width="0.8"/>
<text x="387" y="42" font-size="11">Baseline</text>
<rect x="491" y="32" width="12" height="12" fill="#9e9e9e" stroke="black" stroke-width="0.8"/>
<text x="507" y="42" font-size="11">After group</text>
<rect x="611" y="32" width="12" height="12" fill="#3f3f3f" stroke="black" stroke-width="0.8"/>
<text x="627" y="42" font-size="11">After every</text>
<line x1="58" y1="60" x2="58" y2="366" stroke="black" stroke-width="1.4"/>
<line x1="58" y1="366" x2="518" y2="366" stroke="black" stroke-width="1.4"/>
<text x="15" y="216" font-size="12" text-anchor="middle" transform="rotate(-90 15 216)">Cycles</text>
<text x="288" y="408" font-size="12" text-anchor="middle">Number of Inst. (N)</text>
<rect x="66.5" y="350.6" width="14.3" height="15.4" fill="#ffffff" stroke="black" stroke-width="0.7"/>
<text x="76.2" y="346.6" font-size="7.5" text-anchor="start" transform="rotate(-90 76.2 346.6)">14.7</text>
<rect x="82.8" y="350.9" width="14.3" height="15.1" fill="#9e9e9e" stroke="black" stroke-width="0.7"/>
<text x="92.4" y="346.9" font-size="7.5" text-anchor="start" transform="rotate(-90 92.4 346.9)">14.5</text>
<rect x="99.0" y="350.7" width="14.3" height="15.3" fill="#3f3f3f" stroke="black" stroke-width="0.7"/>
<text x="108.6" y="346.7" font-size="7.5" text-anchor="start" transform="rotate(-90 108.6 346.7)">14.6</text>
<text x="90.9" y="382" font-size="11" text-anchor="middle">1</text>
<rect x="132.3" y="344.6" width="14.3" height="21.4" fill="#ffffff" stroke="black" stroke-width="0.7"/>
<text x="141.9" y="340.6" font-size="7.5" text-anchor="start" transform="rotate(-90 141.9 340.6)">20.5</text>
<rect x="148.5" y="344.2" width="14.3" height="21.8" fill="#9e9e9e" stroke="black" stroke-width="0.7"/>
<text x="158.1" y="340.2" font-size="7.5" text-anchor="start" transform="rotate(-90 158.1 340.2)">20.9</text>
<rect x="164.7" y="344.5" width="14.3" height="21.5" fill="#3f3f3f" stroke="black" stroke-width="0.7"/>
<text x="174.3" y="340.5" font-size="7.5" text-anchor="start" transform="rotate(-90 174.3 340.5)">20.6</text>
<text x="156.6" y="382" font-size="11" text-anchor="middle">2</text>
<rect x="198.0" y="339.2" width="14.3" height="26.8" fill="#ffffff" stroke="black" stroke-width="0.7"/>
<text x="207.6" y="335.2" font-size="7.5" text-anchor="start" transform="rotate(-90 207.6 335.2)">25.6</text>
<rect x="214.2" y="339.0" width="14.3" height="27.0" fill="#9e9e9e" stroke="black" stroke-width="0.7"/>
<text x="223.8" y="335.0" font-size="7.5" text-anchor="start" transform="rotate(-90 223.8 335.0)">25.8</text>
<rect x="230.4" y="339.1" width="14.3" height="26.9" fill="#3f3f3f" stroke="black" stroke-width="0.7"/>
<text x="240.0" y="335.1" font-size="7.5" text-anchor="start" transform="rotate(-90 240.0 335.1)">25.8</text>
<text x="222.3" y="382" font-size="11" text-anchor="middle">4</text>
<rect x="263.7" y="323.9" width="14.3" height="42.1" fill="#ffffff" stroke="black" stroke-width="0.7"/>
<text x="273.3" y="319.9" font-size="7.5" text-anchor="start" transform="rotate(-90 273.3 319.9)">40.2</text>
<rect x="279.9" y="323.1" width="14.3" height="42.9" fill="#9e9e9e" stroke="black" stroke-width="0.7"/>
<text x="289.5" y="319.1" font-size="7.5" text-anchor="start" transform="rotate(-90 289.5 319.1)">41.0</text>
<rect x="296.1" y="322.0" width="14.3" height="44.0" fill="#3f3f3f" stroke="black" stroke-width="0.7"/>
<text x="305.7" y="318.0" font-size="7.5" text-anchor="start" transform="rotate(-90 305.7 318.0)">42.1</text>
<text x="288.0" y="382" font-size="11" text-anchor="middle">8</text>
<rect x="329.4" y="294.5" width="14.3" height="71.5" fill="#ffffff" stroke="black" stroke-width="0.7"/>
<text x="339.0" y="290.5" font-size="7.5" text-anchor="start" transform="rotate(-90 339.0 290.5)">68.4</text>
<rect x="345.6" y="292.6" width="14.3" height="73.4" fill="#9e9e9e" stroke="black" stroke-width="0.7"/>
<text x="355.2" y="288.6" font-size="7.5" text-anchor="start" transform="rotate(-90 355.2 288.6)">70.2</text>
<rect x="361.8" y="294.1" width="14.3" height="71.9" fill="#3f3f3f" stroke="black" stroke-width="0.7"/>
<text x="371.5" y="290.1" font-size="7.5" text-anchor="start" transform="rotate(-90 371.5 290.1)">68.8</text>
<text x="353.7" y="382" font-size="11" text-anchor="middle">16</text>
<rect x="395.1" y="238.3" width="14.3" height="127.7" fill="#ffffff" stroke="black" stroke-width="0.7"/>
<text x="404.7" y="234.3" font-size="7.5" text-anchor="start" transform="rotate(-90 404.7 234.3)">122</text>
<rect x="411.3" y="236.6" width="14.3" height="129.4" fill="#9e9e9e" stroke="black" stroke-width="0.7"/>
<text x="421.0" y="232.6" font-size="7.5" text-anchor="start" transform="rotate(-90 421.0 232.6)">124</text>
<rect x="427.5" y="238.0" width="14.3" height="128.0" fill="#3f3f3f" stroke="black" stroke-width="0.7"/>
<text x="437.2" y="234.0" font-size="7.5" text-anchor="start" transform="rotate(-90 437.2 234.0)">122</text>
<text x="419.4" y="382" font-size="11" text-anchor="middle">32</text>
<rect x="460.8" y="121.0" width="14.3" height="245.0" fill="#ffffff" stroke="black" stroke-width="0.7"/>
<text x="470.5" y="117.0" font-size="7.5" text-anchor="start" transform="rotate(-90 470.5 117.0)">234</text>
<rect x="477.0" y="120.1" width="14.3" height="245.9" fill="#9e9e9e" stroke="black" stroke-width="0.7"/>
<text x="486.7" y="116.1" font-size="7.5" text-anchor="start" transform="rotate(-90 486.7 116.1)">235</text>
<rect x="493.2" y="121.3" width="14.3" height="244.7" fill="#3f3f3f" stroke="black" stroke-width="0.7"/>
<text x="502.9" y="117.3" font-size="7.5" text-anchor="start" transform="rotate(-90 502.9 117.3)">234</text>
<text x="485.1" y="382" font-size="11" text-anchor="middle">64</text>
<line x1="594" y1="60" x2="594" y2="366" stroke="black" stroke-width="1.4"/>
<line x1="594" y1="366" x2="1054" y2="366" stroke="black" stroke-width="1.4"/>
<text x="551" y="216" font-size="12" text-anchor="middle" transform="rotate(-90 551 216)">Wall-time (ns)</text>
<text x="824" y="408" font-size="12" text-anchor="middle">Number of Inst. (N)</text>
<rect x="602.5" y="350.6" width="14.3" height="15.4" fill="#ffffff" stroke="black" stroke-width="0.7"/>
<text x="612.2" y="346.6" font-size="7.5" text-anchor="start" transform="rotate(-90 612.2 346.6)">4.6</text>
<rect x="618.8" y="350.8" width="14.3" height="15.2" fill="#9e9e9e" stroke="black" stroke-width="0.7"/>
<text x="628.4" y="346.8" font-size="7.5" text-anchor="start" transform="rotate(-90 628.4 346.8)">4.5</text>
<rect x="635.0" y="350.7" width="14.3" height="15.3" fill="#3f3f3f" stroke="black" stroke-width="0.7"/>
<text x="644.6" y="346.7" font-size="7.5" text-anchor="start" transform="rotate(-90 644.6 346.7)">4.5</text>
<text x="626.9" y="382" font-size="11" text-anchor="middle">1</text>
<rect x="668.3" y="344.5" width="14.3" height="21.5" fill="#ffffff" stroke="black" stroke-width="0.7"/>
<text x="677.9" y="340.5" font-size="7.5" text-anchor="start" transform="rotate(-90 677.9 340.5)">6.4</text>
<rect x="684.5" y="344.1" width="14.3" height="21.9" fill="#9e9e9e" stroke="black" stroke-width="0.7"/>
<text x="694.1" y="340.1" font-size="7.5" text-anchor="start" transform="rotate(-90 694.1 340.1)">6.5</text>
<rect x="700.7" y="344.4" width="14.3" height="21.6" fill="#3f3f3f" stroke="black" stroke-width="0.7"/>
<text x="710.3" y="340.4" font-size="7.5" text-anchor="start" transform="rotate(-90 710.3 340.4)">6.4</text>
<text x="692.6" y="382" font-size="11" text-anchor="middle">2</text>
<rect x="734.0" y="339.2" width="14.3" height="26.8" fill="#ffffff" stroke="black" stroke-width="0.7"/>
<text x="743.6" y="335.2" font-size="7.5" text-anchor="start" transform="rotate(-90 743.6 335.2)">8.0</text>
<rect x="750.2" y="339.0" width="14.3" height="27.0" fill="#9e9e9e" stroke="black" stroke-width="0.7"/>
<text x="759.8" y="335.0" font-size="7.5" text-anchor="start" transform="rotate(-90 759.8 335.0)">8.0</text>
<rect x="766.4" y="339.1" width="14.3" height="26.9" fill="#3f3f3f" stroke="black" stroke-width="0.7"/>
<text x="776.0" y="335.1" font-size="7.5" text-anchor="start" transform="rotate(-90 776.0 335.1)">8.0</text>
<text x="758.3" y="382" font-size="11" text-anchor="middle">4</text>
<rect x="799.7" y="323.9" width="14.3" height="42.1" fill="#ffffff" stroke="black" stroke-width="0.7"/>
<text x="809.3" y="319.9" font-size="7.5" text-anchor="start" transform="rotate(-90 809.3 319.9)">12.5</text>
<rect x="815.9" y="323.2" width="14.3" height="42.8" fill="#9e9e9e" stroke="black" stroke-width="0.7"/>
<text x="825.5" y="319.2" font-size="7.5" text-anchor="start" transform="rotate(-90 825.5 319.2)">12.7</text>
<rect x="832.1" y="322.0" width="14.3" height="44.0" fill="#3f3f3f" stroke="black" stroke-width="0.7"/>
<text x="841.7" y="318.0" font-size="7.5" text-anchor="start" transform="rotate(-90 841.7 318.0)">13.1</text>
<text x="824.0" y="382" font-size="11" text-anchor="middle">8</text>
<rect x="865.4" y="294.6" width="14.3" height="71.4" fill="#ffffff" stroke="black" stroke-width="0.7"/>
<text x="875.0" y="290.6" font-size="7.5" text-anchor="start" transform="rotate(-90 875.0 290.6)">21.2</text>
<rect x="881.6" y="292.7" width="14.3" height="73.3" fill="#9e9e9e" stroke="black" stroke-width="0.7"/>
<text x="891.2" y="288.7" font-size="7.5" text-anchor="start" transform="rotate(-90 891.2 288.7)">21.8</text>
<rect x="897.8" y="294.1" width="14.3" height="71.9" fill="#3f3f3f" stroke="black" stroke-width="0.7"/>
<text x="907.5" y="290.1" font-size="7.5" text-anchor="start" transform="rotate(-90 907.5 290.1)">21.4</text>
<text x="889.7" y="382" font-size="11" text-anchor="middle">16</text>
<rect x="931.1" y="238.5" width="14.3" height="127.5" fill="#ffffff" stroke="black" stroke-width="0.7"/>
<text x="940.7" y="234.5" font-size="7.5" text-anchor="start" transform="rotate(-90 940.7 234.5)">37.9</text>
<rect x="947.3" y="236.9" width="14.3" height="129.1" fill="#9e9e9e" stroke="black" stroke-width="0.7"/>
<text x="957.0" y="232.9" font-size="7.5" text-anchor="start" transform="rotate(-90 957.0 232.9)">38.4</text>
<rect x="963.5" y="238.2" width="14.3" height="127.8" fill="#3f3f3f" stroke="black" stroke-width="0.7"/>
<text x="973.2" y="234.2" font-size="7.5" text-anchor="start" transform="rotate(-90 973.2 234.2)">38.0</text>
<text x="955.4" y="382" font-size="11" text-anchor="middle">32</text>
<rect x="996.8" y="120.9" width="14.3" height="245.1" fill="#ffffff" stroke="black" stroke-width="0.7"/>
<text x="1006.5" y="116.9" font-size="7.5" text-anchor="start" transform="rotate(-90 1006.5 116.9)">72.9</text>
<rect x="1013.0" y="120.1" width="14.3" height="245.9" fill="#9e9e9e" stroke="black" stroke-width="0.7"/>
<text x="1022.7" y="116.1" font-size="7.5" text-anchor="start" transform="rotate(-90 1022.7 116.1)">73.1</text>
<rect x="1029.2" y="121.2" width="14.3" height="244.8" fill="#3f3f3f" stroke="black" stroke-width="0.7"/>
<text x="1038.9" y="117.2" font-size="7.5" text-anchor="start" transform="rotate(-90 1038.9 117.2)">72.8</text>
<text x="1021.1" y="382" font-size="11" text-anchor="middle">64</text>
</svg>